SplineFontDB: 3.0
FontName: Artifika-Medium
FullName: Artifika Medium
FamilyName: Artifika
Weight: Medium
Copyright: Copyright (c) 2010 by Yulya Zhdanova. All rights reserved.
Version: 1.000
ItalicAngle: 0
UnderlinePosition: -103
UnderlineWidth: 102
Ascent: 1638
Descent: 410
LayerCount: 2
Layer: 0 1 "Back"  1
Layer: 1 1 "Fore"  0
XUID: [1021 230 1610532706 4109516]
FSType: 0
OS2Version: 3
OS2_WeightWidthSlopeOnly: 0
OS2_UseTypoMetrics: 1
CreationTime: 1305182880
ModificationTime: 1305225781
PfmFamily: 17
TTFWeight: 500
TTFWidth: 5
LineGap: 0
VLineGap: 0
Panose: 2 0 6 5 0 0 0 2 0 4
OS2TypoAscent: 1985
OS2TypoAOffset: 0
OS2TypoDescent: -507
OS2TypoDOffset: 0
OS2TypoLinegap: 0
OS2WinAscent: 1985
OS2WinAOffset: 0
OS2WinDescent: 507
OS2WinDOffset: 0
HheadAscent: 1985
HheadAOffset: 0
HheadDescent: -507
HheadDOffset: 0
OS2SubXSize: 1434
OS2SubYSize: 1331
OS2SubXOff: 0
OS2SubYOff: 287
OS2SupXSize: 1434
OS2SupYSize: 1331
OS2SupXOff: 0
OS2SupYOff: 977
OS2StrikeYSize: 102
OS2StrikeYPos: 512
OS2Vendor: 'pyrs'
OS2CodePages: 00000003.00000000
OS2UnicodeRanges: 80000027.10000043.00000000.00000000
Lookup: 258 0 0 "'kern' Horizontal Kerning in Latin lookup 0"  {"'kern' Horizontal Kerning in Latin lookup 0 per glyph data 0"  "'kern' Horizontal Kerning in Latin lookup 0 kerning class 1"  } ['kern' ('latn' <'dflt' > ) ]
DEI: 91125
KernClass2: 74+ 68 "'kern' Horizontal Kerning in Latin lookup 0 kerning class 1" 
 9 ampersand
 20 quotedbl quotesingle
 8 asterisk
 28 hyphen uni00AD endash emdash
 40 comma period quotesinglbase quotedblbase
 5 slash
 4 zero
 4 four
 5 seven
 4 nine
 9 backslash
 10 exclamdown
 14 periodcentered
 12 questiondown
 22 quoteleft quotedblleft
 24 quoteright quotedblright
 27 guillemotleft guilsinglleft
 29 guillemotright guilsinglright
 56 A Atilde Agrave Aacute Acircumflex Adieresis Aring A.alt
 7 B B.alt
 10 C Ccedilla
 11 D Eth D.alt
 49 E OE Eacute Egrave Ecircumflex AE Edieresis E.alt
 1 F
 1 G
 45 H I Iacute Igrave Icircumflex Idieresis H.alt
 7 J J.alt

StartChar: exclam
Encoding: 33 33 3
Width: 636
Flags: W
LayerCount: 2
Fore
SplineSet
263 249.5 m 128,-1,1
 290 260 290 260 322.5 260 c 128,-1,2
 355 260 355 260 382.5 249.5 c 128,-1,3
 410 239 410 239 430 220 c 0,4,5
 472 180 472 180 472 136.5 c 128,-1,6
 472 93 472 93 461 67 c 128,-1,7
 450 41 450 41 430 22 c 0,8,9
 386 -18 386 -18 338 -18 c 128,-1,10
 290 -18 290 -18 263 -7 c 128,-1,11
 236 4 236 4 217 22 c 0,12,13
 177 61 177 61 177 106 c 128,-1,14
 177 151 177 151 187.5 176 c 128,-1,15
 198 201 198 201 217 220 c 128,-1,0
 236 239 236 239 263 249.5 c 128,-1,1
412 424 m 1,16,17
 381 401 381 401 336 401 c 128,-1,18
 291 401 291 401 268 421 c 128,-1,19
 245 441 245 441 242 489 c 2,20,-1
 203 1128 l 2,21,22
 193 1288 193 1288 182.5 1335 c 128,-1,23
 172 1382 172 1382 169 1397 c 1,24,25
 230 1432 230 1432 326 1432 c 0,26,27
 445 1432 445 1432 445 1333 c 1,28,-1
 412 788 l 2,29,30
 402 609 402 609 402 538.5 c 128,-1,31
 402 468 402 468 412 424 c 1,16,17
EndSplineSet
EndChar

StartChar: quotedbl
Encoding: 34 34 4
Width: 906
Flags: W
LayerCount: 2
Fore
SplineSet
330 897 m 1,0,-1
 260 897 l 2,1,2
 216 897 216 897 201 916.5 c 128,-1,3
 186 936 186 936 183 979 c 2,4,-1
 154 1413 l 1,5,-1
 281 1413 l 2,6,7
 323 1413 323 1413 342 1397 c 128,-1,8
 361 1381 361 1381 361 1343 c 2,9,-1
 361 1331 l 1,10,-1
 330 897 l 1,0,-1
715 897 m 1,11,-1
 645 897 l 2,12,13
 601 897 601 897 586 916.5 c 128,-1,14
 571 936 571 936 568 979 c 2,15,-1
 539 1413 l 1,16,-1
 666 1413 l 2,17,18
 708 1413 708 1413 727 1397 c 128,-1,19
 746 1381 746 1381 746 1343 c 2,20,-1
 746 1331 l 1,21,-1
 715 897 l 1,11,-1
EndSplineSet
EndChar

StartChar: numbersign
Encoding: 35 35 5
Width: 1228
Flags: W
LayerCount: 2
Fore
SplineSet
841 442 m 1,0,-1
 785 129 l 1,1,-1
 726 129 l 2,2,3
 684 129 684 129 665 140.5 c 128,-1,4
 646 152 646 152 646 186 c 0,5,6
 646 200 646 200 660 276 c 2,7,-1
 689 442 l 1,8,-1
 447 442 l 1,9,-1
 390 129 l 1,10,-1
 331 129 l 2,11,12
 289 129 289 129 270 140.5 c 128,-1,13
 251 152 251 152 251 186 c 0,14,15
 251 200 251 200 264 276 c 2,16,-1
 294 442 l 1,17,-1
 111 442 l 1,18,-1
 111 500 l 2,19,20
 111 545 111 545 130.5 561.5 c 128,-1,21
 150 578 150 578 193 578 c 2,22,-1
 318 578 l 1,23,-1
 363 829 l 1,24,-1
 167 829 l 1,25,-1
 167 887 l 2,26,27
 167 932 167 932 186 948.5 c 128,-1,28
 205 965 205 965 249 965 c 2,29,-1
 388 965 l 1,30,-1
 445 1274 l 1,31,-1
 507 1274 l 2,32,33
 549 1274 549 1274 569 1265.5 c 128,-1,34
 589 1257 589 1257 589 1223 c 0,35,36
 589 1209 589 1209 584 1182 c 2,37,-1
 544 965 l 1,38,-1
 783 965 l 1,39,-1
 841 1274 l 1,40,-1
 898 1274 l 2,41,42
 940 1274 940 1274 960 1265.5 c 128,-1,43
 980 1257 980 1257 980 1223 c 0,44,45
 980 1205 980 1205 966 1130 c 2,46,-1
 937 965 l 1,47,-1
 1117 965 l 1,48,-1
 1117 909 l 2,49,50
 1117 864 1117 864 1097.5 846.5 c 128,-1,51
 1078 829 1078 829 1035 829 c 2,52,-1
 912 829 l 1,53,-1
 865 578 l 1,54,-1
 1062 578 l 1,55,-1
 1062 522 l 2,56,57
 1062 477 1062 477 1042.5 459.5 c 128,-1,58
 1023 442 1023 442 980 442 c 2,59,-1
 841 442 l 1,0,-1
472 578 m 1,60,-1
 714 578 l 1,61,-1
 759 829 l 1,62,-1
 519 829 l 1,63,-1
 472 578 l 1,60,-1
EndSplineSet
EndChar

StartChar: dollar
Encoding: 36 36 6
Width: 1229
Flags: W
LayerCount: 2
Fore
SplineSet
698 1450 m 1,0,-1
 710 1450 l 2,1,2
 895 1450 895 1450 1008 1406 c 0,3,4
 1078 1378 1078 1378 1078 1337 c 0,5,6
 1078 1320 1078 1320 1066 1298 c 2,7,-1
 986 1161 l 1,8,-1
 927 1206 l 1,9,10
 819 1284 819 1284 698 1307 c 1,11,-1
 698 778 l 1,12,13
 898 689 898 689 1001 598 c 0,14,15
 1138 478 1138 478 1138 330 c 0,16,17
 1138 167 1138 167 1008 66 c 0,18,19
 885 -29 885 -29 698 -37 c 1,20,-1
 698 -274 l 1,21,-1
 628 -274 l 2,22,23
 583 -274 583 -274 566.5 -255 c 128,-1,24
 550 -236 550 -236 550 -193 c 2,25,-1
 550 -35 l 1,26,27
 332 -16 332 -16 149 104 c 1,28,29
 85 145 85 145 85 190 c 0,30,31
 85 211 85 211 100 227 c 1,32,-1
 202 348 l 1,33,-1
 274 280 l 2,34,35
 421 140 421 140 550 106 c 1,36,-1
 550 625 l 1,37,-1
 459 671 l 2,38,39
 278 761 278 761 203 860 c 0,40,41
 134 951 134 951 134 1053 c 128,-1,42
 134 1155 134 1155 169 1219.5 c 128,-1,43
 204 1284 204 1284 262 1328 c 0,44,45
 369 1411 369 1411 550 1438 c 1,46,-1
 550 1591 l 1,47,-1
 618 1591 l 2,48,49
 663 1591 663 1591 680.5 1572 c 128,-1,50
 698 1553 698 1553 698 1509 c 2,51,-1
 698 1450 l 1,0,-1
352 1192 m 0,52,53
 333 1155 333 1155 333 1102 c 128,-1,54
 333 1049 333 1049 351 1007.5 c 128,-1,55
 369 966 369 966 399 936 c 0,56,57
 448 886 448 886 550 842 c 1,58,-1
 550 1315 l 1,59,60
 409 1304 409 1304 352 1192 c 0,52,53
915 300 m 0,61,62
 915 345 915 345 898 381.5 c 128,-1,63
 881 418 881 418 852 449 c 0,64,65
 801 503 801 503 698 557 c 1,66,-1
 698 90 l 1,67,68
 795 98 795 98 856 155 c 0,69,70
 915 211 915 211 915 300 c 0,61,62
EndSplineSet
EndChar

StartChar: percent
Encoding: 37 37 7
Width: 1671
Flags: W
LayerCount: 2
Fore
SplineSet
463 -12 m 1,0,-1
 413 10 l 1,1,2
 381 26 381 26 361.5 38.5 c 128,-1,3
 342 51 342 51 342 66 c 128,-1,4
 342 81 342 81 352 98 c 2,5,-1
 1188 1415 l 1,6,-1
 1251 1384 l 2,7,8
 1280 1370 1280 1370 1296 1358 c 128,-1,9
 1312 1346 1312 1346 1312 1330.5 c 128,-1,10
 1312 1315 1312 1315 1300 1296 c 2,11,-1
 463 -12 l 1,0,-1
403 1358 m 256,12,13
 239 1358 239 1358 239 1082.5 c 128,-1,14
 239 807 239 807 402 807 c 128,-1,15
 565 807 565 807 565 1082.5 c 128,-1,16
 565 1358 565 1358 403 1358 c 256,12,13
727 1081 m 0,17,18
 727 862 727 862 547 770 c 0,19,20
 476 733 476 733 414 733 c 0,21,22
 284 733 284 733 182 823.5 c 128,-1,23
 80 914 80 914 80 1083 c 128,-1,24
 80 1252 80 1252 177 1342 c 128,-1,25
 274 1432 274 1432 402.5 1432 c 128,-1,26
 531 1432 531 1432 629 1342.5 c 128,-1,27
 727 1253 727 1253 727 1081 c 0,17,18
1265 606 m 256,28,29
 1104 606 1104 606 1104 330.5 c 128,-1,30
 1104 55 1104 55 1266.5 55 c 128,-1,31
 1429 55 1429 55 1429 330.5 c 128,-1,32
 1429 606 1429 606 1265 606 c 256,28,29
1265 -18 m 256,33,34
 1145 -18 1145 -18 1052 64 c 0,35,36
 940 164 940 164 940 330 c 256,37,38
 940 499 940 499 1046 597 c 0,39,40
 1135 680 1135 680 1265 680 c 0,41,42
 1396 680 1396 680 1486 597 c 0,43,44
 1591 499 1591 499 1591 330 c 256,45,46
 1591 164 1591 164 1479 64 c 0,47,48
 1386 -18 1386 -18 1265 -18 c 256,33,34
EndSplineSet
EndChar

StartChar: ampersand
Encoding: 38 38 8
Width: 1407
Flags: W
LayerCount: 2
Fore
SplineSet
1029 322 m 1,0,1
 1093 430 1093 430 1093 563 c 0,2,3
 1093 633 1093 633 1074 690 c 1,4,-1
 1199 745 l 1,5,6
 1226 758 1226 758 1254.5 758 c 128,-1,7
 1283 758 1283 758 1302.5 728.5 c 128,-1,8
 1322 699 1322 699 1322 654.5 c 128,-1,9
 1322 610 1322 610 1308.5 559.5 c 128,-1,10
 1295 509 1295 509 1268 454 c 0,11,12
 1209 333 1209 333 1111 227 c 1,13,14
 1249 72 1249 72 1285 41 c 1,15,16
 1223 -39 1223 -39 1155 -39 c 128,-1,17
 1087 -39 1087 -39 1025 35 c 2,18,-1
 968 102 l 1,19,20
 786 -39 786 -39 589 -39 c 0,21,22
 380 -39 380 -39 248 60 c 0,23,24
 104 169 104 169 104 360 c 0,25,26
 104 546 104 546 305 675 c 0,27,28
 364 713 364 713 429 748 c 1,29,-1
 337 858 l 1,30,31
 241 975 241 975 241 1098 c 0,32,33
 241 1244 241 1244 367 1348 c 0,34,35
 489 1450 489 1450 652 1450 c 0,36,37
 819 1450 819 1450 916 1360 c 0,38,39
 1013 1271 1013 1271 1013 1122 c 0,40,41
 1013 948 1013 948 811 820 c 0,42,43
 750 782 750 782 679 743 c 1,44,-1
 1029 322 l 1,0,1
898 186 m 1,45,-1
 513 647 l 1,46,47
 404 574 404 574 365 529 c 0,48,49
 294 445 294 445 294 373.5 c 128,-1,50
 294 302 294 302 321 249.5 c 128,-1,51
 348 197 348 197 392 162 c 0,52,53
 479 90 479 90 621.5 90 c 128,-1,54
 764 90 764 90 898 186 c 1,45,-1
599 834 m 1,55,56
 682 881 682 881 717.5 904.5 c 128,-1,57
 753 928 753 928 786 963 c 0,58,59
 859 1039 859 1039 859 1130 c 0,60,61
 859 1213 859 1213 795 1273 c 0,62,63
 731 1333 731 1333 640 1333 c 0,64,65
 550 1333 550 1333 482 1276 c 0,66,67
 409 1216 409 1216 409 1126 c 0,68,69
 409 1076 409 1076 443.5 1025 c 128,-1,70
 478 974 478 974 514 932 c 2,71,-1
 599 834 l 1,55,56
EndSplineSet
EndChar

StartChar: quotesingle
Encoding: 39 39 9
Width: 521
Flags: W
LayerCount: 2
Fore
SplineSet
330 897 m 1,0,-1
 260 897 l 2,1,2
 216 897 216 897 201 916.5 c 128,-1,3
 186 936 186 936 183 979 c 2,4,-1
 154 1413 l 1,5,-1
 281 1413 l 2,6,7
 323 1413 323 1413 342 1397 c 128,-1,8
 361 1381 361 1381 361 1343 c 2,9,-1
 361 1331 l 1,10,-1
 330 897 l 1,0,-1
EndSplineSet
EndChar

StartChar: parenleft
Encoding: 40 40 10
Width: 662
Flags: W
LayerCount: 2
Fore
SplineSet
405 1454 m 1,0,1
 449 1509 449 1509 493 1509 c 0,2,3
 509 1509 509 1509 520 1501 c 1,4,-1
 559 1466 l 1,5,6
 383 1185 383 1185 336 822 c 0,7,8
 326 740 326 740 326 650.5 c 128,-1,9
 326 561 326 561 336.5 478.5 c 128,-1,10
 347 396 347 396 364 322 c 0,11,12
 424 51 424 51 559 -164 c 1,13,-1
 520 -199 l 1,14,15
 507 -209 507 -209 491 -209 c 0,16,17
 450 -209 450 -209 405 -152 c 1,18,19
 193 90 193 90 142 461 c 0,20,21
 131 545 131 545 131 656.5 c 128,-1,22
 131 768 131 768 151 879 c 128,-1,23
 171 990 171 990 201 1080.5 c 128,-1,24
 231 1171 231 1171 266 1240.5 c 128,-1,25
 301 1310 301 1310 331.5 1357.5 c 128,-1,26
 362 1405 362 1405 382.5 1429.5 c 128,-1,27
 403 1454 403 1454 405 1454 c 1,0,1
EndSplineSet
EndChar

StartChar: parenright
Encoding: 41 41 11
Width: 663
Flags: W
LayerCount: 2
Fore
SplineSet
326 478 m 0,0,1
 336 561 336 561 336 650.5 c 128,-1,2
 336 740 336 740 325.5 822.5 c 128,-1,3
 315 905 315 905 298 979 c 0,4,5
 237 1254 237 1254 104 1466 c 1,6,-1
 143 1501 l 2,7,8
 151 1509 151 1509 170 1509 c 0,9,10
 211 1509 211 1509 272 1437.5 c 128,-1,11
 333 1366 333 1366 376.5 1281 c 128,-1,12
 420 1196 420 1196 444.5 1133.5 c 128,-1,13
 469 1071 469 1071 488 998 c 0,14,15
 532 834 532 834 532 683.5 c 128,-1,16
 532 533 532 533 512 422.5 c 128,-1,17
 492 312 492 312 462 221.5 c 128,-1,18
 432 131 432 131 397 61.5 c 128,-1,19
 362 -8 362 -8 331.5 -55.5 c 128,-1,20
 301 -103 301 -103 280 -127.5 c 128,-1,21
 259 -152 259 -152 257 -152 c 1,22,23
 209 -209 209 -209 169 -209 c 0,24,25
 153 -209 153 -209 143 -199 c 2,26,-1
 104 -164 l 1,27,28
 279 115 279 115 326 478 c 0,0,1
EndSplineSet
EndChar

StartChar: asterisk
Encoding: 42 42 12
Width: 999
Flags: W
LayerCount: 2
Fore
SplineSet
482 657 m 2,0,1
 416 657 416 657 416 709 c 0,2,3
 416 716 416 716 418 730 c 2,4,-1
 421 764 l 2,5,6
 423 784 423 784 426.5 807 c 128,-1,7
 430 830 430 830 435.5 868.5 c 128,-1,8
 441 907 441 907 451 971 c 1,9,-1
 218 770 l 1,10,-1
 162 858 l 2,11,12
 144 885 144 885 144 900 c 0,13,14
 144 932 144 932 183 948 c 1,15,-1
 410 1051 l 1,16,-1
 130 1167 l 1,17,-1
 181 1257 l 2,18,19
 201 1292 201 1292 228 1292 c 0,20,21
 254 1292 254 1292 271 1278 c 2,22,-1
 451 1133 l 1,23,-1
 414 1427 l 1,24,-1
 517 1427 l 2,25,26
 583 1427 583 1427 583 1376 c 0,27,28
 583 1369 583 1369 582 1362 c 2,29,-1
 549 1130 l 1,30,-1
 785 1317 l 1,31,-1
 838 1229 l 2,32,33
 853 1205 853 1205 853 1189 c 0,34,35
 853 1154 853 1154 816 1139 c 2,36,-1
 595 1053 l 1,37,-1
 869 885 l 1,38,-1
 803 801 l 1,39,40
 782 772 782 772 764 772 c 0,41,42
 732 772 732 772 713 795 c 1,43,-1
 545 969 l 1,44,-1
 584 657 l 1,45,-1
 482 657 l 2,0,1
EndSplineSet
EndChar

StartChar: plus
Encoding: 43 43 13
Width: 1120
Flags: W
LayerCount: 2
Fore
SplineSet
630 705 m 1,0,-1
 1031 705 l 1,1,-1
 1031 643 l 2,2,3
 1031 598 1031 598 1011.5 580.5 c 128,-1,4
 992 563 992 563 949 563 c 2,5,-1
 630 563 l 1,6,-1
 630 162 l 1,7,-1
 566 162 l 2,8,9
 521 162 521 162 504.5 181 c 128,-1,10
 488 200 488 200 488 244 c 2,11,-1
 488 563 l 1,12,-1
 89 563 l 1,13,-1
 89 627 l 2,14,15
 89 672 89 672 108 688.5 c 128,-1,16
 127 705 127 705 171 705 c 2,17,-1
 488 705 l 1,18,-1
 488 1104 l 1,19,-1
 550 1104 l 2,20,21
 595 1104 595 1104 612.5 1084.5 c 128,-1,22
 630 1065 630 1065 630 1022 c 2,23,-1
 630 705 l 1,0,-1
EndSplineSet
EndChar

StartChar: comma
Encoding: 44 44 14
Width: 599
Flags: W
LayerCount: 2
Fore
SplineSet
208 -332 m 256,0,1
 183 -332 183 -332 183 -301 c 2,2,-1
 183 -246 l 1,3,4
 275 -189 275 -189 308 -37 c 1,5,6
 306 -39 306 -39 302 -39 c 2,7,-1
 296 -39 l 2,8,9
 233 -39 233 -39 190 2 c 0,10,11
 150 41 150 41 150 85.5 c 128,-1,12
 150 130 150 130 160.5 155.5 c 128,-1,13
 171 181 171 181 190 200 c 0,14,15
 233 240 233 240 281 240 c 128,-1,16
 329 240 329 240 354.5 229 c 128,-1,17
 380 218 380 218 399 200 c 0,18,19
 453 147 453 147 453 37 c 0,20,21
 453 -148 453 -148 330 -264 c 0,22,23
 287 -306 287 -306 226 -328 c 1,24,25
 218 -332 218 -332 208 -332 c 256,0,1
EndSplineSet
EndChar

StartChar: hyphen
Encoding: 45 45 15
Width: 923
Flags: W
LayerCount: 2
Fore
SplineSet
168 551 m 1,0,-1
 168 614 l 2,1,2
 168 659 168 659 187.5 675.5 c 128,-1,3
 207 692 207 692 250 692 c 2,4,-1
 756 692 l 1,5,-1
 756 631 l 2,6,7
 756 586 756 586 737 568.5 c 128,-1,8
 718 551 718 551 674 551 c 2,9,-1
 168 551 l 1,0,-1
EndSplineSet
EndChar

StartChar: period
Encoding: 46 46 16
Width: 594
Flags: W
LayerCount: 2
Fore
SplineSet
237 229 m 128,-1,1
 264 240 264 240 296.5 240 c 128,-1,2
 329 240 329 240 356.5 229 c 128,-1,3
 384 218 384 218 404 200 c 0,4,5
 445 160 445 160 445 116 c 128,-1,6
 445 72 445 72 434 46.5 c 128,-1,7
 423 21 423 21 404 2 c 0,8,9
 361 -39 361 -39 312.5 -39 c 128,-1,10
 264 -39 264 -39 237 -28 c 128,-1,11
 210 -17 210 -17 190 2 c 0,12,13
 150 41 150 41 150 85.5 c 128,-1,14
 150 130 150 130 160.5 155.5 c 128,-1,15
 171 181 171 181 190.5 199.5 c 128,-1,0
 210 218 210 218 237 229 c 128,-1,1
EndSplineSet
EndChar

StartChar: slash
Encoding: 47 47 17
Width: 1023
Flags: W
LayerCount: 2
Fore
SplineSet
872 1536 m 2,0,1
 960 1536 960 1536 960 1489 c 0,2,3
 960 1472 960 1472 952 1454 c 2,4,-1
 219 -246 l 1,5,-1
 149 -246 l 2,6,7
 63 -246 63 -246 63 -195 c 0,8,9
 63 -180 63 -180 71 -164 c 1,10,-1
 804 1536 l 1,11,-1
 872 1536 l 2,0,1
EndSplineSet
EndChar

StartChar: zero
Encoding: 48 48 18
Width: 1394
Flags: W
LayerCount: 2
Fore
SplineSet
1031 696 m 0,0,1
 1031 1319 1031 1319 697 1319 c 256,2,3
 523 1319 523 1319 438 1143 c 0,4,5
 363 987 363 987 363 696 c 0,6,7
 363 269 363 269 542 138 c 0,8,9
 605 92 605 92 697 92 c 256,10,11
 872 92 872 92 956 266 c 0,12,13
 1031 420 1031 420 1031 696 c 0,0,1
697 -39 m 256,14,15
 438 -39 438 -39 286 164 c 0,16,17
 136 365 136 365 136 696 c 0,18,19
 136 1035 136 1035 279 1238 c 0,20,21
 429 1450 429 1450 697 1450 c 128,-1,22
 965 1450 965 1450 1115 1238 c 0,23,24
 1258 1035 1258 1035 1258 696 c 0,25,26
 1258 365 1258 365 1107 164 c 0,27,28
 954 -39 954 -39 697 -39 c 256,14,15
EndSplineSet
EndChar

StartChar: one
Encoding: 49 49 19
Width: 740
Flags: W
LayerCount: 2
Fore
SplineSet
533 315 m 2,0,1
 533 163 533 163 546 97 c 2,2,-1
 563 16 l 1,3,4
 503 -18 503 -18 447.5 -18 c 128,-1,5
 392 -18 392 -18 359 3.5 c 128,-1,6
 326 25 326 25 326 82 c 2,7,-1
 326 1286 l 1,8,-1
 70 1194 l 1,9,-1
 37 1278 l 1,10,11
 174 1370 174 1370 352 1416 c 0,12,13
 412 1432 412 1432 449 1432 c 128,-1,14
 486 1432 486 1432 499.5 1427.5 c 128,-1,15
 513 1423 513 1423 520 1414 c 0,16,17
 533 1399 533 1399 533 1360 c 2,18,-1
 533 315 l 2,0,1
EndSplineSet
EndChar

StartChar: two
Encoding: 50 50 20
Width: 1207
Flags: W
LayerCount: 2
Fore
SplineSet
1082 225 m 1,0,1
 1107 150 1107 150 1107 104.5 c 128,-1,2
 1107 59 1107 59 1083.5 35 c 128,-1,3
 1060 11 1060 11 1004 0 c 0,4,5
 932 -13 932 -13 690 -13 c 0,6,7
 547 -13 547 -13 347 -8 c 0,8,9
 231 -6 231 -6 171.5 -1 c 128,-1,10
 112 4 112 4 96.5 23.5 c 128,-1,11
 81 43 81 43 81 86 c 0,12,13
 81 85 81 85 104 108 c 2,14,-1
 464 490 l 1,15,-1
 644 688 l 1,16,17
 748 808 748 808 783 901 c 128,-1,18
 818 994 818 994 818 1059 c 128,-1,19
 818 1124 818 1124 803.5 1169.5 c 128,-1,20
 789 1215 789 1215 762 1249 c 0,21,22
 703 1321 703 1321 603 1321 c 256,23,24
 479 1321 479 1321 304 1198 c 1,25,-1
 218 1135 l 1,26,-1
 140 1241 l 1,27,28
 128 1259 128 1259 128 1279 c 128,-1,29
 128 1299 128 1299 149 1321 c 128,-1,30
 170 1343 170 1343 204.5 1362 c 128,-1,31
 239 1381 239 1381 284 1397.5 c 128,-1,32
 329 1414 329 1414 378 1426 c 0,33,34
 481 1450 481 1450 583.5 1450 c 128,-1,35
 686 1450 686 1450 775.5 1416.5 c 128,-1,36
 865 1383 865 1383 922 1326 c 0,37,38
 1033 1216 1033 1216 1033 1047 c 0,39,40
 1033 801 1033 801 764 523 c 0,41,42
 687 444 687 444 607 372 c 1,43,-1
 314 119 l 1,44,-1
 503 119 l 2,45,46
 754 119 754 119 1082 225 c 1,0,1
EndSplineSet
EndChar

StartChar: three
Encoding: 51 51 21
Width: 1204
Flags: W
LayerCount: 2
Fore
SplineSet
116 1329 m 0,0,1
 116 1430 116 1430 570 1430 c 0,2,3
 664 1430 664 1430 724 1426 c 2,4,-1
 829 1420 l 2,5,6
 874 1418 874 1418 918 1415.5 c 128,-1,7
 962 1413 962 1413 983 1404 c 128,-1,8
 1004 1395 1004 1395 1014 1380 c 0,9,10
 1024 1364 1024 1364 1027 1305 c 1,11,12
 968 1099 968 1099 712 879 c 0,13,14
 637 814 637 814 615 803 c 1,15,16
 946 757 946 757 1042 550 c 0,17,18
 1076 477 1076 477 1076 379 c 256,19,20
 1076 188 1076 188 932 74 c 0,21,22
 792 -37 792 -37 574 -37 c 0,23,24
 422 -37 422 -37 270 12 c 0,25,26
 170 44 170 44 136.5 78 c 128,-1,27
 103 112 103 112 103 133.5 c 128,-1,28
 103 155 103 155 118 182 c 2,29,-1
 181 291 l 1,30,-1
 278 224 l 2,31,32
 466 94 466 94 597 94 c 0,33,34
 723 94 723 94 802 185 c 0,35,36
 878 272 878 272 878 397 c 0,37,38
 878 551 878 551 730 628 c 0,39,40
 609 690 609 690 416 690 c 0,41,42
 403 690 403 690 390 690 c 1,43,-1
 390 748 l 2,44,45
 390 785 390 785 410 796 c 0,46,47
 415 799 415 799 449 819 c 128,-1,48
 483 839 483 839 551 899 c 128,-1,49
 619 959 619 959 676 1028 c 0,50,51
 804 1180 804 1180 826 1300 c 1,52,-1
 597 1300 l 2,53,54
 418 1300 418 1300 288 1240 c 0,55,56
 230 1214 230 1214 192 1180 c 1,57,58
 116 1299 116 1299 116 1329 c 0,0,1
EndSplineSet
EndChar

StartChar: four
Encoding: 52 52 22
Width: 1217
Flags: W
LayerCount: 2
Fore
SplineSet
808 -18 m 1,0,-1
 789 -16 l 1,1,2
 689 -9 689 -9 689 82 c 2,3,-1
 689 365 l 1,4,-1
 111 365 l 2,5,6
 40 365 40 365 40 414 c 0,7,8
 40 438 40 438 52 455 c 0,9,10
 535 1161 535 1161 597 1247 c 0,11,12
 720 1416 720 1416 740 1427 c 1,13,14
 762 1432 762 1432 787 1432 c 2,15,-1
 816 1432 l 2,16,17
 896 1432 896 1432 896 1360 c 2,18,-1
 896 487 l 1,19,-1
 1158 487 l 1,20,-1
 1158 444 l 2,21,22
 1158 399 1158 399 1138.5 382 c 128,-1,23
 1119 365 1119 365 1076 365 c 2,24,-1
 896 365 l 1,25,-1
 896 305 l 2,26,27
 896 148 896 148 910 89.5 c 128,-1,28
 924 31 924 31 927 16 c 1,29,30
 867 -18 867 -18 808 -18 c 1,0,-1
689 487 m 1,31,-1
 689 1124 l 1,32,-1
 685 1141 l 1,33,-1
 240 492 l 1,34,-1
 247 487 l 1,35,-1
 689 487 l 1,31,-1
EndSplineSet
EndChar

StartChar: five
Encoding: 53 53 23
Width: 1196
Flags: W
LayerCount: 2
Fore
SplineSet
996 1266.5 m 128,-1,1
 946 1251 946 1251 814.5 1251 c 128,-1,2
 683 1251 683 1251 419 1298 c 1,3,-1
 419 819 l 1,4,5
 512 838 512 838 601.5 838 c 128,-1,6
 691 838 691 838 781 805.5 c 128,-1,7
 871 773 871 773 936 716 c 0,8,9
 1071 596 1071 596 1071 418 c 0,10,11
 1071 212 1071 212 926 86 c 0,12,13
 786 -37 786 -37 569 -37 c 0,14,15
 437 -37 437 -37 268 16 c 0,16,17
 154 51 154 51 116.5 83.5 c 128,-1,18
 79 116 79 116 79 134 c 0,19,20
 79 156 79 156 92 182 c 1,21,-1
 165 307 l 1,22,23
 185 295 185 295 216 274 c 0,24,25
 373 171 373 171 428 144 c 0,26,27
 534 92 534 92 593.5 92 c 128,-1,28
 653 92 653 92 696 109.5 c 128,-1,29
 739 127 739 127 769.5 155.5 c 128,-1,30
 800 184 800 184 820 219 c 128,-1,31
 840 254 840 254 852 290 c 0,32,33
 872 353 872 353 872 414 c 128,-1,34
 872 475 872 475 846.5 529.5 c 128,-1,35
 821 584 821 584 770 624 c 0,36,37
 660 709 660 709 464 709 c 0,38,39
 382 709 382 709 268 690 c 1,40,41
 243 715 243 715 239 723 c 1,42,-1
 239 1343 l 1,43,44
 243 1374 243 1374 252 1385 c 0,45,46
 275 1413 275 1413 339.5 1413 c 128,-1,47
 404 1413 404 1413 482 1412 c 0,48,49
 513 1412 513 1412 546 1412 c 0,50,51
 595 1412 595 1412 647 1412 c 0,52,53
 850 1416 850 1416 1032 1442 c 1,54,-1
 1046 1325 l 1,55,0
 1046 1282 1046 1282 996 1266.5 c 128,-1,1
EndSplineSet
EndChar

StartChar: six
Encoding: 54 54 24
Width: 1234
Flags: W
LayerCount: 2
Fore
SplineSet
357 504 m 1,0,1
 357 364 357 364 412 249 c 0,2,3
 487 92 487 92 654 92 c 0,4,5
 776 92 776 92 848 185 c 0,6,7
 922 280 922 280 922 442 c 0,8,9
 922 652 922 652 805 712 c 0,10,11
 769 731 769 731 728.5 731 c 128,-1,12
 688 731 688 731 647 715 c 128,-1,13
 606 699 606 699 565 674.5 c 128,-1,14
 524 650 524 650 487.5 621.5 c 128,-1,15
 451 593 451 593 422 568 c 0,16,17
 363 515 363 515 357 504 c 1,0,1
349 635 m 1,18,19
 544 864 544 864 746 864 c 0,20,21
 923 864 923 864 1032 731 c 0,22,23
 1133 609 1133 609 1133 436 c 0,24,25
 1133 249 1133 249 1014 115 c 0,26,27
 876 -39 876 -39 644 -39 c 0,28,29
 384 -39 384 -39 256 152 c 0,30,31
 140 325 140 325 140 639 c 0,32,33
 140 981 140 981 240 1163 c 1,34,35
 357 1373 357 1373 593 1432 c 0,36,37
 668 1450 668 1450 721.5 1450 c 128,-1,38
 775 1450 775 1450 818.5 1446.5 c 128,-1,39
 862 1443 862 1443 904 1434 c 0,40,41
 1006 1412 1006 1412 1006 1366 c 0,42,43
 1006 1355 1006 1355 1000 1346 c 2,44,-1
 922 1204 l 1,45,46
 792 1311 792 1311 681 1311 c 0,47,48
 471 1311 471 1311 382 980 c 0,49,50
 347 850 347 850 347 709 c 2,51,-1
 347 670 l 2,52,53
 347 652 347 652 349 635 c 1,18,19
EndSplineSet
EndChar

StartChar: seven
Encoding: 55 55 25
Width: 1067
Flags: W
LayerCount: 2
Fore
SplineSet
36 1325 m 0,0,1
 36 1425 36 1425 532 1425 c 0,2,3
 690 1425 690 1425 825 1417 c 128,-1,4
 960 1409 960 1409 981 1400.5 c 128,-1,5
 1002 1392 1002 1392 1012 1382 c 0,6,7
 1022 1371 1022 1371 1026 1341 c 1,8,-1
 1026 1300 l 1,9,-1
 532 168 l 1,10,11
 478 59 478 59 473 0 c 1,12,13
 441 -18 441 -18 355.5 -18 c 128,-1,14
 270 -18 270 -18 270 41 c 0,15,16
 270 54 270 54 280 76 c 2,17,-1
 804 1298 l 1,18,-1
 575 1296 l 2,19,20
 396 1294 396 1294 237 1236 c 0,21,22
 177 1214 177 1214 144.5 1195.5 c 128,-1,23
 112 1177 112 1177 112 1176 c 2,24,25
 98 1198 l 2,26,27
 36 1296 36 1296 36 1325 c 0,0,1
EndSplineSet
EndChar

StartChar: eight
Encoding: 56 56 26
Width: 1238
Flags: W
LayerCount: 2
Fore
SplineSet
1016.5 1248 m 128,-1,1
 1053 1182 1053 1182 1053 1111.5 c 128,-1,2
 1053 1041 1053 1041 1033.5 990 c 128,-1,3
 1014 939 1014 939 980 893 c 0,4,5
 911 801 911 801 799 733 c 1,6,7
 956 646 956 646 1007 592 c 0,8,9
 1108 488 1108 488 1108 368 c 128,-1,10
 1108 248 1108 248 1064 173 c 128,-1,11
 1020 98 1020 98 949 50 c 0,12,13
 815 -39 815 -39 609 -39 c 0,14,15
 425 -39 425 -39 294 42 c 0,16,17
 148 132 148 132 148 291 c 0,18,19
 148 509 148 509 316 648 c 0,20,21
 366 690 366 690 424 725 c 1,22,23
 204 847 204 847 166 1003 c 0,24,25
 154 1050 154 1050 154 1116 c 128,-1,26
 154 1182 154 1182 190 1248 c 128,-1,27
 226 1314 226 1314 288 1359 c 0,28,29
 415 1450 415 1450 609 1450 c 0,30,31
 796 1450 796 1450 919 1359 c 0,32,0
 980 1314 980 1314 1016.5 1248 c 128,-1,1
549 657 m 1,33,34
 334 511 334 511 334 332 c 0,35,36
 334 217 334 217 418 152 c 0,37,38
 494 92 494 92 609 92 c 0,39,40
 804 92 804 92 874 224 c 0,41,42
 897 268 897 268 897 316.5 c 128,-1,43
 897 365 897 365 880 398.5 c 128,-1,44
 863 432 863 432 835.5 463 c 128,-1,45
 808 494 808 494 771.5 521.5 c 128,-1,46
 735 549 735 549 696.5 573.5 c 128,-1,47
 658 598 658 598 620 619 c 2,48,-1
 549 657 l 1,33,34
863 1102 m 0,49,50
 863 1152 863 1152 843 1194 c 128,-1,51
 823 1236 823 1236 788 1264 c 0,52,53
 719 1319 719 1319 609 1319 c 0,54,55
 433 1319 433 1319 374 1194 c 0,56,57
 355 1152 355 1152 355 1102.5 c 128,-1,58
 355 1053 355 1053 385 1011 c 128,-1,59
 415 969 415 969 462 931 c 0,60,61
 541 867 541 867 676 797 c 1,62,63
 863 913 863 913 863 1102 c 0,49,50
EndSplineSet
EndChar

StartChar: nine
Encoding: 57 57 27
Width: 1238
Flags: W
LayerCount: 2
Fore
SplineSet
885 864 m 0,0,1
 889 898 889 898 889 953 c 128,-1,2
 889 1008 889 1008 874 1076 c 128,-1,3
 859 1144 859 1144 824 1198 c 0,4,5
 744 1319 744 1319 588 1319 c 0,6,7
 467 1319 467 1319 394 1226 c 0,8,9
 319 1132 319 1132 319 969 c 0,10,11
 319 757 319 757 437 696 c 0,12,13
 473 678 473 678 512.5 678 c 128,-1,14
 552 678 552 678 593 691.5 c 128,-1,15
 634 705 634 705 675 725 c 128,-1,16
 716 745 716 745 753 768.5 c 128,-1,17
 790 792 790 792 819 813 c 2,18,-1
 866 848 l 2,19,20
 884 862 884 862 885 864 c 0,0,1
276 207 m 1,21,22
 406 100 406 100 547 100 c 0,23,24
 666 100 666 100 749 206 c 0,25,26
 886 380 886 380 891 733 c 1,27,28
 740 560 740 560 566 548 c 0,29,30
 524 545 524 545 495 545 c 0,31,32
 319 545 319 545 208 680 c 0,33,34
 108 802 108 802 108 975 c 0,35,36
 108 1160 108 1160 228 1296 c 0,37,38
 364 1450 364 1450 598 1450 c 0,39,40
 849 1450 849 1450 980 1267 c 0,41,42
 1100 1098 1100 1098 1100 801 c 0,43,44
 1100 331 1100 331 894 133 c 0,45,46
 714 -39 714 -39 455 -39 c 0,47,48
 297 -39 297 -39 222 2 c 0,49,50
 192 19 192 19 192 36 c 128,-1,51
 192 53 192 53 199 66 c 2,52,-1
 276 207 l 1,21,22
EndSplineSet
EndChar

StartChar: colon
Encoding: 58 58 28
Width: 630
Flags: W
LayerCount: 2
Fore
SplineSet
255 229 m 128,-1,1
 282 240 282 240 314.5 240 c 128,-1,2
 347 240 347 240 374.5 229 c 128,-1,3
 402 218 402 218 422 200 c 0,4,5
 463 160 463 160 463 116 c 128,-1,6
 463 72 463 72 452 46.5 c 128,-1,7
 441 21 441 21 422 2 c 0,8,9
 379 -39 379 -39 330.5 -39 c 128,-1,10
 282 -39 282 -39 255 -28 c 128,-1,11
 228 -17 228 -17 208 2 c 0,12,13
 168 41 168 41 168 85.5 c 128,-1,14
 168 130 168 130 178.5 155.5 c 128,-1,15
 189 181 189 181 208.5 199.5 c 128,-1,0
 228 218 228 218 255 229 c 128,-1,1
255 1044 m 0,16,17
 282 1055 282 1055 314.5 1055 c 128,-1,18
 347 1055 347 1055 374.5 1044 c 128,-1,19
 402 1033 402 1033 422 1014 c 0,20,21
 463 975 463 975 463 931.5 c 128,-1,22
 463 888 463 888 452 862 c 128,-1,23
 441 836 441 836 422 817 c 0,24,25
 379 776 379 776 330.5 776 c 128,-1,26
 282 776 282 776 255 787 c 128,-1,27
 228 798 228 798 208 817 c 0,28,29
 168 856 168 856 168 918 c 0,30,31
 168 1009 168 1009 255 1044 c 0,16,17
EndSplineSet
EndChar

StartChar: semicolon
Encoding: 59 59 29
Width: 640
Flags: W
LayerCount: 2
Fore
SplineSet
257 1044 m 0,0,1
 284 1055 284 1055 316.5 1055 c 128,-1,2
 349 1055 349 1055 376.5 1044 c 128,-1,3
 404 1033 404 1033 424 1014 c 0,4,5
 465 975 465 975 465 931.5 c 128,-1,6
 465 888 465 888 454 862 c 128,-1,7
 443 836 443 836 424 817 c 0,8,9
 381 776 381 776 332.5 776 c 128,-1,10
 284 776 284 776 257 787 c 128,-1,11
 230 798 230 798 210 817 c 0,12,13
 170 856 170 856 170 918 c 0,14,15
 170 1009 170 1009 257 1044 c 0,0,1
203 -301 m 2,16,17
 203 -332 203 -332 228 -332 c 256,18,19
 238 -332 238 -332 246 -328 c 1,20,21
 359 -287 359 -287 421 -173 c 0,22,23
 473 -77 473 -77 473 37 c 0,24,25
 473 187 473 187 374 229 c 0,26,27
 349 240 349 240 316.5 240 c 128,-1,28
 284 240 284 240 257 229 c 128,-1,29
 230 218 230 218 210 200 c 0,30,31
 170 161 170 161 170 116.5 c 128,-1,32
 170 72 170 72 180.5 46.5 c 128,-1,33
 191 21 191 21 210 2 c 0,34,35
 253 -39 253 -39 316 -39 c 2,36,-1
 322 -39 l 2,37,38
 326 -39 326 -39 328 -37 c 1,39,40
 305 -141 305 -141 246 -208 c 0,41,42
 227 -231 227 -231 203 -246 c 1,43,-1
 203 -301 l 2,16,17
EndSplineSet
EndChar

StartChar: less
Encoding: 60 60 30
Width: 1312
Flags: W
LayerCount: 2
Fore
SplineSet
1046 1077 m 2,0,1
 1076 1090 1076 1090 1093 1090 c 0,2,3
 1128 1090 1128 1090 1152 1040 c 2,4,-1
 1185 973 l 1,5,-1
 306 578 l 1,6,-1
 306 573 l 1,7,-1
 1181 176 l 1,8,-1
 1152 111 l 2,9,10
 1128 59 1128 59 1093 59 c 0,11,12
 1082 59 1082 59 1071 64 c 2,13,14
 73 520 l 1,15,-1
 73 582 l 2,16,17
 73 627 73 627 108 645 c 0,18,19
 115 649 115 649 118 651 c 2,20,-1
 1046 1077 l 2,0,1
EndSplineSet
EndChar

StartChar: equal
Encoding: 61 61 31
Width: 1290
Flags: W
LayerCount: 2
Fore
SplineSet
175 748 m 1,0,-1
 175 811 l 2,1,2
 175 856 175 856 194 872.5 c 128,-1,3
 213 889 213 889 257 889 c 2,4,-1
 1117 889 l 1,5,-1
 1117 827 l 2,6,7
 1117 782 1117 782 1097.5 765 c 128,-1,8
 1078 748 1078 748 1035 748 c 2,9,-1
 175 748 l 1,0,-1
175 379 m 1,10,-1
 175 442 l 2,11,12
 175 487 175 487 194 503.5 c 128,-1,13
 213 520 213 520 257 520 c 2,14,-1
 1117 520 l 1,15,-1
 1117 459 l 2,16,17
 1117 414 1117 414 1097.5 396.5 c 128,-1,18
 1078 379 1078 379 1035 379 c 2,19,-1
 175 379 l 1,10,-1
EndSplineSet
EndChar

StartChar: greater
Encoding: 62 62 32
Width: 1310
Flags: W
LayerCount: 2
Fore
SplineSet
1190 649 m 2,0,1
 1193 647 1193 647 1200.5 643 c 128,-1,2
 1208 639 1208 639 1216 632 c 0,3,4
 1235 612 1235 612 1235 580 c 2,5,-1
 1235 518 l 1,6,-1
 262 72 l 1,7,8
 232 57 232 57 215 57 c 0,9,10
 177 57 177 57 156 109 c 1,11,-1
 127 174 l 1,12,-1
 1001 571 l 1,13,-1
 1001 575 l 1,14,-1
 123 971 l 1,15,-1
 156 1038 l 2,16,17
 180 1087 180 1087 215 1087 c 256,18,19
 235 1087 235 1087 262 1075 c 2,20,-1
 1190 649 l 2,0,1
EndSplineSet
EndChar

StartChar: question
Encoding: 63 63 33
Width: 974
Flags: W
LayerCount: 2
Fore
SplineSet
389 229 m 128,-1,1
 416 240 416 240 448.5 240 c 128,-1,2
 481 240 481 240 508.5 229 c 128,-1,3
 536 218 536 218 556 200 c 0,4,5
 598 161 598 161 598 116.5 c 128,-1,6
 598 72 598 72 587 46.5 c 128,-1,7
 576 21 576 21 556 2 c 0,8,9
 513 -39 513 -39 464.5 -39 c 128,-1,10
 416 -39 416 -39 389 -28 c 128,-1,11
 362 -17 362 -17 343 2 c 0,12,13
 303 42 303 42 303 86 c 128,-1,14
 303 130 303 130 313.5 155.5 c 128,-1,15
 324 181 324 181 343 199.5 c 128,-1,0
 362 218 362 218 389 229 c 128,-1,1
560 396 m 0,16,17
 546 385 546 385 515 385 c 128,-1,18
 484 385 484 385 443 400.5 c 128,-1,19
 402 416 402 416 369 444 c 0,20,21
 295 505 295 505 295 594 c 0,22,23
 295 672 295 672 389 760 c 0,24,25
 429 798 429 798 476 835 c 128,-1,26
 523 872 523 872 563 914 c 0,27,28
 657 1013 657 1013 657 1118 c 0,29,30
 657 1192 657 1192 610 1242 c 0,31,32
 560 1296 560 1296 477 1296 c 0,33,34
 370 1296 370 1296 200 1206 c 0,35,36
 141 1175 141 1175 141 1171 c 1,37,-1
 80 1311 l 1,38,39
 71 1327 71 1327 71 1345.5 c 128,-1,40
 71 1364 71 1364 89.5 1381 c 128,-1,41
 108 1398 108 1398 137.5 1410.5 c 128,-1,42
 167 1423 167 1423 204.5 1430.5 c 128,-1,43
 242 1438 242 1438 280 1442 c 0,44,45
 342 1450 342 1450 426.5 1450 c 128,-1,46
 511 1450 511 1450 599 1427.5 c 128,-1,47
 687 1405 687 1405 752 1360 c 0,48,49
 889 1264 889 1264 889 1090 c 0,50,51
 889 961 889 961 768 859 c 0,52,53
 733 829 733 829 694 800 c 2,54,-1
 614 744 l 1,55,56
 519 680 519 680 499 647.5 c 128,-1,57
 479 615 479 615 479 590.5 c 128,-1,58
 479 566 479 566 498 549 c 128,-1,59
 517 532 517 532 539.5 521.5 c 128,-1,60
 562 511 562 511 581 505 c 128,-1,61
 600 499 600 499 600 494 c 0,62,63
 600 427 600 427 560 396 c 0,16,17
EndSplineSet
EndChar

StartChar: at
Encoding: 64 64 34
Width: 1874
Flags: W
LayerCount: 2
Fore
SplineSet
1606 -68 m 1,0,1
 1312 -274 1312 -274 971 -274 c 0,2,3
 611 -274 611 -274 362 -50 c 0,4,5
 194 100 194 100 129 333 c 0,6,7
 96 451 96 451 96 582.5 c 128,-1,8
 96 714 96 714 128 825.5 c 128,-1,9
 160 937 160 937 218.5 1033 c 128,-1,10
 277 1129 277 1129 360 1206 c 128,-1,11
 443 1283 443 1283 544 1337 c 0,12,13
 757 1450 757 1450 1012 1450 c 0,14,15
 1347 1450 1347 1450 1558 1256 c 0,16,17
 1780 1054 1780 1054 1780 717 c 0,18,19
 1780 469 1780 469 1640 304 c 0,20,21
 1557 208 1557 208 1458 173 c 0,22,23
 1411 156 1411 156 1368 156 c 0,24,25
 1189 156 1189 156 1128 342 c 1,26,-1
 1118 342 l 1,27,28
 1025 156 1025 156 844 156 c 0,29,30
 713 156 713 156 628 242 c 0,31,32
 534 337 534 337 534 504 c 0,33,34
 534 701 534 701 654 871 c 0,35,36
 742 996 742 996 885 1048 c 0,37,38
 960 1075 960 1075 1057 1075 c 128,-1,39
 1154 1075 1154 1075 1208 1024 c 1,40,-1
 1225 1098 l 1,41,42
 1295 1087 1295 1087 1326.5 1055.5 c 128,-1,43
 1358 1024 1358 1024 1358 989 c 2,44,-1
 1358 978 l 2,45,46
 1358 973 1358 973 1356 967 c 2,47,-1
 1270 539 l 2,48,49
 1257 474 1257 474 1257 426 c 256,50,51
 1257 274 1257 274 1380 274 c 0,52,53
 1419 274 1419 274 1465.5 302 c 128,-1,54
 1512 330 1512 330 1552 386 c 0,55,56
 1647 518 1647 518 1647 723 c 0,57,58
 1647 1012 1647 1012 1461 1180 c 0,59,60
 1288 1335 1288 1335 1008 1335 c 0,61,62
 717 1335 717 1335 500 1140 c 0,63,64
 353 1009 353 1009 294 810 c 0,65,66
 264 709 264 709 264 586 c 128,-1,67
 264 463 264 463 292.5 357.5 c 128,-1,68
 321 252 321 252 371.5 167.5 c 128,-1,69
 422 83 422 83 491.5 20.5 c 128,-1,70
 561 -42 561 -42 644 -84 c 0,71,72
 808 -168 808 -168 1003 -168 c 0,73,74
 1299 -168 1299 -168 1558 6 c 1,75,-1
 1606 -68 l 1,0,1
736 582 m 128,-1,77
 727 528 727 528 727 476.5 c 128,-1,78
 727 425 727 425 739.5 383 c 128,-1,79
 752 341 752 341 773 314 c 0,80,81
 813 264 813 264 871.5 264 c 128,-1,82
 930 264 930 264 967.5 286 c 128,-1,83
 1005 308 1005 308 1031 344 c 0,84,85
 1077 407 1077 407 1098 518 c 1,86,-1
 1182 924 l 1,87,88
 1164 969 1164 969 1098 986 c 0,89,90
 1079 991 1079 991 1041 991 c 128,-1,91
 1003 991 1003 991 956 965.5 c 128,-1,92
 909 940 909 940 872 898 c 128,-1,93
 835 856 835 856 807.5 802.5 c 128,-1,94
 780 749 780 749 762.5 692.5 c 128,-1,76
 745 636 745 636 736 582 c 128,-1,77
EndSplineSet
EndChar

StartChar: A
Encoding: 65 65 35
Width: 1517
Flags: W
LayerCount: 2
Fore
SplineSet
1537 158 m 1,0,1
 1338 -25 1338 -25 1209 -25 c 0,2,3
 1148 -25 1148 -25 1123 33 c 2,4,-1
 973 381 l 1,5,-1
 363 381 l 1,6,7
 332 271 332 271 332 180 c 128,-1,8
 332 89 332 89 349 29 c 1,9,-1
 193 -14 l 2,10,11
 169 -20 169 -20 148 -20 c 0,12,13
 87 -20 87 -20 87 39 c 1,14,15
 107 198 107 198 172 372.5 c 128,-1,16
 237 547 237 547 286 662 c 1,17,18
 415 952 415 952 472 1069 c 0,19,20
 590 1307 590 1307 618 1359.5 c 128,-1,21
 646 1412 646 1412 646 1413 c 1,22,-1
 748 1413 l 2,23,24
 798 1413 798 1413 817 1400 c 0,25,26
 847 1381 847 1381 867 1331 c 2,27,-1
 1328 160 l 1,28,-1
 1504 229 l 1,29,-1
 1537 158 l 1,0,1
670 1184 m 1,30,-1
 506 814 l 2,31,32
 426 631 426 631 396 518 c 1,33,-1
 922 518 l 1,34,-1
 681 1184 l 1,35,-1
 670 1184 l 1,30,-1
EndSplineSet
EndChar

StartChar: B
Encoding: 66 66 36
Width: 1448
Flags: W
LayerCount: 2
Fore
SplineSet
1005 715 m 1,0,1
 1313 682 1313 682 1313 381 c 0,2,3
 1313 58 1313 58 946 0 c 0,4,5
 835 -18 835 -18 720 -18 c 0,6,7
 313 -18 313 -18 274 26 c 0,8,9
 258 45 258 45 258 88 c 2,10,-1
 258 1272 l 1,11,-1
 65 1257 l 1,12,-1
 65 1346 l 1,13,14
 262 1427 262 1427 747 1432 c 1,15,16
 1133 1432 1133 1432 1238 1220 c 0,17,18
 1276 1143 1276 1143 1276 1030 c 0,19,20
 1276 934 1276 934 1218 846 c 0,21,22
 1146 734 1146 734 1005 715 c 1,0,1
500 143 m 1,23,24
 596 111 596 111 720.5 111 c 128,-1,25
 845 111 845 111 911 134.5 c 128,-1,26
 977 158 977 158 1014 195 c 0,27,28
 1075 257 1075 257 1075 365 c 0,29,30
 1075 555 1075 555 918 613 c 0,31,32
 843 641 843 641 720 641 c 2,33,-1
 663 641 l 2,34,35
 584 641 584 641 500 637 c 1,36,-1
 500 143 l 1,23,24
1046 1034 m 0,37,38
 1046 1290 1046 1290 745 1294 c 1,39,40
 602 1294 602 1294 551 1288.5 c 128,-1,41
 500 1283 500 1283 500 1282 c 2,42,-1
 500 780 l 1,43,44
 585 764 585 764 675 764 c 128,-1,45
 765 764 765 764 839 785.5 c 128,-1,46
 913 807 913 807 959 844 c 0,47,48
 1046 914 1046 914 1046 1034 c 0,37,38
EndSplineSet
EndChar

StartChar: C
Encoding: 67 67 37
Width: 1439
Flags: W
LayerCount: 2
Fore
SplineSet
1373 121 m 1,0,1
 1169 -39 1169 -39 845 -39 c 0,2,3
 517 -39 517 -39 322 162 c 0,4,5
 128 362 128 362 128 702 c 0,6,7
 128 1052 128 1052 316 1248 c 0,8,9
 510 1450 510 1450 869 1450 c 0,10,11
 1098 1450 1098 1450 1230 1398 c 0,12,13
 1312 1365 1312 1365 1312 1319 c 0,14,15
 1312 1301 1312 1301 1300 1280 c 2,16,-1
 1216 1139 l 1,17,18
 1183 1157 1183 1157 1138 1187.5 c 128,-1,19
 1093 1218 1093 1218 1038 1246 c 0,20,21
 904 1317 904 1317 808.5 1317 c 128,-1,22
 713 1317 713 1317 652.5 1291.5 c 128,-1,23
 592 1266 592 1266 547 1222 c 128,-1,24
 502 1178 502 1178 471.5 1119.5 c 128,-1,25
 441 1061 441 1061 422 995 c 0,26,27
 388 872 388 872 388 758.5 c 128,-1,28
 388 645 388 645 402.5 568.5 c 128,-1,29
 417 492 417 492 446.5 424 c 128,-1,30
 476 356 476 356 520 299.5 c 128,-1,31
 564 243 564 243 623 202 c 0,32,33
 748 115 748 115 930 115 c 128,-1,34
 1112 115 1112 115 1332 199 c 1,35,-1
 1373 121 l 1,0,1
EndSplineSet
EndChar

StartChar: D
Encoding: 68 68 38
Width: 1632
Flags: W
LayerCount: 2
Fore
SplineSet
258 1274 m 1,0,-1
 63 1270 l 1,1,-1
 63 1350 l 1,2,3
 241 1408 241 1408 586 1426 c 0,4,5
 691 1432 691 1432 828 1432 c 128,-1,6
 965 1432 965 1432 1097 1391.5 c 128,-1,7
 1229 1351 1229 1351 1318 1264 c 0,8,9
 1495 1088 1495 1088 1495 705 c 0,10,11
 1495 355 1495 355 1300 171 c 0,12,13
 1119 0 1119 0 807 0 c 2,14,-1
 334 0 l 2,15,16
 289 0 289 0 272.5 19.5 c 128,-1,17
 256 39 256 39 256 82 c 2,18,-1
 258 1274 l 1,0,-1
491 141 m 1,19,20
 614 127 614 127 730.5 127 c 128,-1,21
 847 127 847 127 943 159 c 128,-1,22
 1039 191 1039 191 1104 260 c 0,23,24
 1237 401 1237 401 1237 705 c 0,25,26
 1237 1009 1237 1009 1140 1148 c 0,27,28
 1030 1303 1030 1303 770 1303 c 0,29,30
 662 1303 662 1303 575 1294 c 0,31,32
 498 1286 498 1286 490 1286 c 0,33,34
 489 1286 l 2,35,-1
 491 141 l 1,19,20
EndSplineSet
EndChar

StartChar: E
Encoding: 69 69 39
Width: 1333
Flags: W
LayerCount: 2
Fore
SplineSet
721 1432 m 0,0,1
 1231 1432 1231 1432 1231 1333 c 0,2,3
 1231 1307 1231 1307 1187.5 1236 c 128,-1,4
 1144 1165 1144 1165 1139 1159 c 0,5,6
 1139 1160 1139 1160 1112.5 1178 c 128,-1,7
 1086 1196 1086 1196 1032 1218 c 0,8,9
 891 1274 891 1274 713 1276 c 2,10,-1
 491 1278 l 1,11,-1
 491 805 l 1,12,-1
 1020 805 l 1,13,-1
 1020 756 l 2,14,15
 1020 703 1020 703 997.5 683.5 c 128,-1,16
 975 664 975 664 926 664 c 2,17,-1
 491 664 l 1,18,-1
 491 141 l 1,19,-1
 672 141 l 2,20,21
 965 141 965 141 1206 219 c 0,22,23
 1205 219 1205 219 1208.5 209 c 128,-1,24
 1212 199 1212 199 1216 183 c 0,25,26
 1227 139 1227 139 1227 99 c 128,-1,27
 1227 59 1227 59 1203 35 c 128,-1,28
 1179 11 1179 11 1126 0 c 0,29,30
 1057 -13 1057 -13 831 -13 c 0,31,32
 698 -13 698 -13 512 -8 c 0,33,34
 407 -6 407 -6 347 -1 c 128,-1,35
 287 4 287 4 271.5 23.5 c 128,-1,36
 256 43 256 43 256 86 c 2,37,-1
 256 1292 l 1,38,-1
 65 1292 l 1,39,-1
 65 1372 l 1,40,41
 177 1409 177 1409 507 1426 c 0,42,43
 612 1432 612 1432 721 1432 c 0,0,1
EndSplineSet
EndChar

StartChar: F
Encoding: 70 70 40
Width: 1262
Flags: W
LayerCount: 2
Fore
SplineSet
378 -18 m 0,0,1
 257 -18 257 -18 257 82 c 2,2,-1
 257 1292 l 1,3,-1
 66 1292 l 1,4,-1
 66 1372 l 1,5,6
 178 1409 178 1409 508 1426 c 0,7,8
 613 1432 613 1432 722 1432 c 0,9,10
 1232 1432 1232 1432 1232 1333 c 0,11,12
 1232 1307 1232 1307 1188.5 1236 c 128,-1,13
 1145 1165 1145 1165 1140 1159 c 0,14,15
 1140 1160 1140 1160 1113.5 1178 c 128,-1,16
 1087 1196 1087 1196 1034 1218 c 0,17,18
 892 1274 892 1274 714 1276 c 1,19,-1
 492 1276 l 1,20,-1
 492 805 l 1,21,-1
 1021 805 l 1,22,-1
 1021 756 l 2,23,24
 1021 703 1021 703 998.5 683.5 c 128,-1,25
 976 664 976 664 927 664 c 2,26,-1
 492 664 l 1,27,-1
 492 317 l 2,28,29
 492 173 492 173 520 56 c 0,30,31
 526 31 526 31 529 16 c 1,32,33
 465 -18 465 -18 378 -18 c 0,0,1
EndSplineSet
EndChar

StartChar: G
Encoding: 71 71 41
Width: 1525
Flags: W
LayerCount: 2
Fore
SplineSet
1164 164 m 1,0,-1
 1164 547 l 1,1,-1
 957 547 l 1,2,-1
 957 627 l 1,3,4
 1016 654 1016 654 1115.5 663 c 128,-1,5
 1215 672 1215 672 1254.5 672 c 128,-1,6
 1294 672 1294 672 1320.5 671 c 128,-1,7
 1347 670 1347 670 1363 666 c 0,8,9
 1391 658 1391 658 1391 621 c 2,10,-1
 1391 139 l 1,11,12
 1269 15 1269 15 996 -27 c 0,13,14
 917 -39 917 -39 844 -39 c 0,15,16
 525 -39 525 -39 327 158 c 0,17,18
 123 360 123 360 123 698 c 0,19,20
 123 1045 123 1045 336 1248 c 0,21,22
 548 1450 548 1450 910 1450 c 0,23,24
 1111 1450 1111 1450 1234 1397 c 0,25,26
 1307 1366 1307 1366 1307 1323 c 0,27,28
 1307 1305 1307 1305 1295 1284 c 2,29,-1
 1211 1143 l 1,30,31
 1178 1161 1178 1161 1129.5 1191 c 128,-1,32
 1081 1221 1081 1221 1023 1250 c 0,33,34
 882 1319 882 1319 792 1319 c 128,-1,35
 702 1319 702 1319 645.5 1295 c 128,-1,36
 589 1271 589 1271 545.5 1228 c 128,-1,37
 502 1185 502 1185 471 1126.5 c 128,-1,38
 440 1068 440 1068 420 1000 c 0,39,40
 383 868 383 868 383 711.5 c 128,-1,41
 383 555 383 555 423.5 443 c 128,-1,42
 464 331 464 331 530 254 c 0,43,44
 665 100 665 100 857 100 c 128,-1,45
 1049 100 1049 100 1164 164 c 1,0,-1
EndSplineSet
EndChar

StartChar: H
Encoding: 72 72 42
Width: 1675
Flags: W
LayerCount: 2
Fore
SplineSet
1297 1432 m 0,0,1
 1418 1432 1418 1432 1418 1333 c 2,2,-1
 1418 115 l 1,3,-1
 1607 115 l 1,4,-1
 1607 29 l 1,5,6
 1513 -18 1513 -18 1326 -18 c 0,7,8
 1256 -18 1256 -18 1230 -4 c 0,9,10
 1183 22 1183 22 1183 78 c 2,11,-1
 1183 670 l 1,12,-1
 492 670 l 1,13,-1
 492 315 l 2,14,15
 492 168 492 168 506 100 c 2,16,-1
 523 16 l 1,17,18
 459 -18 459 -18 378 -18 c 0,19,20
 257 -18 257 -18 257 82 c 2,21,-1
 257 1307 l 1,22,-1
 64 1307 l 1,23,-1
 64 1386 l 1,24,25
 150 1432 150 1432 361 1432 c 0,26,27
 401 1432 401 1432 429 1432 c 128,-1,28
 457 1432 457 1432 468 1428 c 0,29,30
 492 1418 492 1418 492 1380 c 2,31,-1
 492 811 l 1,32,-1
 1183 811 l 1,33,-1
 1183 1108 l 2,34,35
 1183 1255 1183 1255 1169 1319.5 c 128,-1,36
 1155 1384 1155 1384 1152 1399 c 1,37,38
 1214 1432 1214 1432 1297 1432 c 0,0,1
EndSplineSet
EndChar

StartChar: I
Encoding: 73 73 43
Width: 751
Flags: W
LayerCount: 2
Fore
SplineSet
257 1307 m 1,0,-1
 64 1307 l 1,1,-1
 64 1386 l 1,2,3
 150 1432 150 1432 361 1432 c 0,4,5
 444 1432 444 1432 463 1425 c 0,6,7
 492 1414 492 1414 492 1380 c 2,8,-1
 492 115 l 1,9,-1
 681 115 l 1,10,-1
 681 29 l 1,11,12
 587 -18 587 -18 400 -18 c 0,13,14
 330 -18 330 -18 304 -4 c 0,15,16
 257 22 257 22 257 78 c 2,17,-1
 257 1307 l 1,0,-1
EndSplineSet
EndChar

StartChar: J
Encoding: 74 74 44
Width: 699
Flags: W
LayerCount: 2
Fore
SplineSet
140 -332 m 0,0,1
 258 -332 258 -332 258 -39 c 2,2,-1
 258 1307 l 1,3,-1
 66 1307 l 1,4,-1
 66 1386 l 1,5,6
 152 1432 152 1432 363 1432 c 0,7,8
 445 1432 445 1432 464 1426 c 0,9,10
 494 1417 494 1417 494 1380 c 2,11,-1
 492 23 l 2,12,13
 492 -222 492 -222 340 -363 c 0,14,15
 197 -494 197 -494 -28 -494 c 0,16,17
 -200 -494 -200 -494 -200 -436 c 0,18,19
 -200 -428 -200 -428 -196 -418 c 2,20,-1
 -131 -244 l 1,21,-1
 25 -306 l 2,22,23
 93 -332 93 -332 140 -332 c 0,0,1
EndSplineSet
EndChar

StartChar: K
Encoding: 75 75 45
Width: 1441
Flags: W
LayerCount: 2
Fore
SplineSet
948 1164.5 m 128,-1,1
 970 1210 970 1210 970 1251 c 128,-1,2
 970 1292 970 1292 957 1325 c 1,3,-1
 1154 1419 l 2,4,5
 1183 1432 1183 1432 1209.5 1432 c 128,-1,6
 1236 1432 1236 1432 1255.5 1410.5 c 128,-1,7
 1275 1389 1275 1389 1275 1346 c 128,-1,8
 1275 1303 1275 1303 1238 1241 c 128,-1,9
 1201 1179 1201 1179 1145 1115.5 c 128,-1,10
 1089 1052 1089 1052 1024 992 c 1,11,-1
 902 883 l 1,12,-1
 808 802 l 2,13,14
 769 769 769 769 767 762 c 1,15,-1
 1205 160 l 1,16,-1
 1353 258 l 1,17,-1
 1400 193 l 1,18,19
 1299 62 1299 62 1184 6 c 0,20,21
 1136 -18 1136 -18 1096 -18 c 128,-1,22
 1056 -18 1056 -18 1035.5 -7.5 c 128,-1,23
 1015 3 1015 3 992 35 c 2,24,-1
 566 647 l 1,25,26
 542 678 542 678 542 701 c 0,27,28
 542 739 542 739 571 763 c 0,29,30
 732 898 732 898 794.5 962 c 128,-1,31
 857 1026 857 1026 891.5 1072.5 c 128,-1,0
 926 1119 926 1119 948 1164.5 c 128,-1,1
378 -18 m 0,32,33
 257 -18 257 -18 257 82 c 2,34,-1
 257 1307 l 1,35,-1
 64 1307 l 1,36,-1
 64 1386 l 1,37,38
 150 1432 150 1432 361 1432 c 0,39,40
 443 1432 443 1432 462 1426 c 0,41,42
 492 1417 492 1417 492 1380 c 2,43,-1
 492 315 l 2,44,45
 492 168 492 168 506 100 c 2,46,47
 523 16 l 1,48,49
 459 -18 459 -18 378 -18 c 0,32,33
EndSplineSet
EndChar

StartChar: L
Encoding: 76 76 46
Width: 1252
Flags: W
LayerCount: 2
Fore
SplineSet
492 141 m 1,0,-1
 673 141 l 2,1,2
 966 141 966 141 1207 219 c 0,3,4
 1206 219 1206 219 1209.5 209 c 128,-1,5
 1213 199 1213 199 1217 183 c 0,6,7
 1228 139 1228 139 1228 100.5 c 128,-1,8
 1228 62 1228 62 1205.5 38 c 128,-1,9
 1183 14 1183 14 1130 3 c 0,10,11
 1055 -13 1055 -13 812 -13 c 0,12,13
 685 -13 685 -13 512 -8 c 0,14,15
 408 -6 408 -6 348 -1 c 128,-1,16
 288 4 288 4 272.5 23.5 c 128,-1,17
 257 43 257 43 257 86 c 2,18,-1
 257 1307 l 1,19,-1
 64 1307 l 1,20,-1
 64 1386 l 1,21,22
 150 1432 150 1432 361 1432 c 0,23,24
 443 1432 443 1432 462 1426 c 0,25,26
 492 1417 492 1417 492 1380 c 2,27,-1
 492 141 l 1,0,-1
EndSplineSet
EndChar

StartChar: M
Encoding: 77 77 47
Width: 2110
Flags: W
LayerCount: 2
Fore
SplineSet
402 130 m 0,0,1
 383 93 383 93 359.5 66.5 c 128,-1,2
 336 40 336 40 307 20 c 0,3,4
 245 -23 245 -23 175 -23 c 0,5,6
 121 -23 121 -23 101 35 c 2,7,-1
 60 158 l 1,8,9
 71 163 71 163 92.5 170 c 128,-1,10
 114 177 114 177 139 189 c 0,11,12
 202 219 202 219 227 257.5 c 128,-1,13
 252 296 252 296 270 364.5 c 128,-1,14
 288 433 288 433 304 525.5 c 128,-1,15
 320 618 320 618 334.5 726 c 128,-1,16
 349 834 349 834 360 940 c 0,17,18
 382 1167 382 1167 384 1307 c 1,19,-1
 189 1307 l 1,20,-1
 189 1386 l 1,21,22
 236 1411 236 1411 324 1421.5 c 128,-1,23
 412 1432 412 1432 448 1432 c 128,-1,24
 484 1432 484 1432 513.5 1430.5 c 128,-1,25
 543 1429 543 1429 565 1424 c 0,26,27
 607 1413 607 1413 630 1378 c 1,28,29
 732 1132 732 1132 774 1020 c 1,30,-1
 912 633 l 1,31,32
 982 431 982 431 1045 231 c 1,33,34
 1298 1000 1298 1000 1370 1180 c 128,-1,35
 1442 1360 1442 1360 1465 1399 c 1,36,37
 1462 1402 1462 1402 1503 1413 c 0,38,39
 1581 1432 1581 1432 1614 1432 c 128,-1,40
 1647 1432 1647 1432 1662 1427.5 c 128,-1,41
 1677 1423 1677 1423 1686 1414 c 0,42,43
 1700 1399 1700 1399 1709 1356 c 1,44,-1
 1871 135 l 1,45,-1
 2061 164 l 1,46,-1
 2079 90 l 1,47,48
 2038 49 2038 49 1963 22 c 0,49,50
 1830 -27 1830 -27 1746 -27 c 0,51,52
 1651 -27 1651 -27 1641 49 c 2,53,-1
 1516 1075 l 1,54,55
 1159 66 1159 66 1108 5 c 0,56,57
 1103 -1 1103 -1 1103 0 c 1,58,-1
 994 0 l 2,59,60
 923 0 923 0 895 41 c 0,61,62
 884 57 884 57 830 200 c 1,63,64
 597 847 597 847 531 1071 c 1,65,-1
 520 896 l 2,66,67
 484 295 484 295 402 130 c 0,0,1
EndSplineSet
EndChar

StartChar: N
Encoding: 78 78 48
Width: 1577
Flags: W
LayerCount: 2
Fore
SplineSet
267 868 m 1,0,-1
 263 1307 l 1,1,-1
 70 1307 l 1,2,-1
 70 1386 l 1,3,4
 162 1432 162 1432 357 1432 c 0,5,6
 419 1432 419 1432 443 1401 c 1,7,-1
 1228 328 l 1,8,9
 1218 1150 1218 1150 1164 1393 c 0,10,11
 1165 1393 1165 1393 1170 1394.5 c 128,-1,12
 1175 1396 1175 1396 1189.5 1400 c 128,-1,13
 1204 1404 1204 1404 1230 1410 c 2,14,-1
 1301 1427 l 1,15,16
 1311 1432 1311 1432 1332 1432 c 128,-1,17
 1353 1432 1353 1432 1363.5 1421.5 c 128,-1,18
 1374 1411 1374 1411 1380 1388 c 0,19,20
 1387 1355 1387 1355 1387 1255 c 128,-1,21
 1387 1155 1387 1155 1384.5 1054 c 128,-1,22
 1382 953 1382 953 1378 841 c 128,-1,23
 1374 729 1374 729 1368.5 611 c 128,-1,24
 1363 493 1363 493 1357 380 c 0,25,26
 1346 166 1346 166 1332 -18 c 1,27,-1
 1240 -18 l 2,28,29
 1209 -18 1209 -18 1195 -9.5 c 128,-1,30
 1181 -1 1181 -1 1168 16 c 2,31,-1
 417 1053 l 1,32,33
 449 655 449 655 449 446 c 0,34,35
 449 178 449 178 438 88.5 c 128,-1,36
 427 -1 427 -1 419 -27 c 1,37,-1
 296 -4 l 1,38,39
 216 12 216 12 216 86 c 0,40,41
 216 109 216 109 224 146.5 c 128,-1,42
 232 184 232 184 240.5 242.5 c 128,-1,43
 249 301 249 301 255 385 c 0,44,45
 267 553 267 553 267 868 c 1,0,-1
EndSplineSet
EndChar

StartChar: O
Encoding: 79 79 49
Width: 1612
Flags: W
LayerCount: 2
Fore
SplineSet
391 699 m 0,0,1
 391 570 391 570 413 456.5 c 128,-1,2
 435 343 435 343 484 261 c 0,3,4
 589 88 589 88 807 88 c 0,5,6
 1021 88 1021 88 1126 262 c 0,7,8
 1221 419 1221 419 1221 705 c 0,9,10
 1221 1137 1221 1137 1000 1274 c 0,11,12
 921 1323 921 1323 807 1323 c 256,13,14
 593 1323 593 1323 484 1137 c 0,15,16
 391 976 391 976 391 699 c 0,0,1
1481 705 m 256,17,18
 1481 370 1481 370 1302 168 c 0,19,20
 1120 -39 1120 -39 807 -39 c 256,21,22
 493 -39 493 -39 311 168 c 0,23,24
 131 371 131 371 131 705 c 256,25,26
 131 1039 131 1039 311 1242 c 0,27,28
 494 1450 494 1450 807 1450 c 256,29,30
 1119 1450 1119 1450 1302 1242 c 0,31,32
 1481 1040 1481 1040 1481 705 c 256,17,18
EndSplineSet
EndChar

StartChar: P
Encoding: 80 80 50
Width: 1333
Flags: W
LayerCount: 2
Fore
SplineSet
670 1300 m 0,0,1
 564 1300 564 1300 494 1290 c 1,2,-1
 494 702 l 1,3,4
 557 680 557 680 668.5 680 c 128,-1,5
 780 680 780 680 845 705.5 c 128,-1,6
 910 731 910 731 948 773 c 0,7,8
 1013 846 1013 846 1013 981 c 0,9,10
 1013 1133 1013 1133 954 1204 c 0,11,12
 875 1300 875 1300 670 1300 c 0,0,1
757 551 m 2,13,-1
 674 551 l 2,14,15
 604 551 604 551 494 561 c 1,16,-1
 494 315 l 2,17,18
 494 170 494 170 522 56 c 0,19,20
 528 31 528 31 531 16 c 1,21,22
 467 -18 467 -18 380 -18 c 0,23,24
 259 -18 259 -18 259 82 c 2,25,-1
 259 1280 l 1,26,-1
 66 1268 l 1,27,-1
 66 1356 l 1,28,29
 272 1432 272 1432 697 1432 c 0,30,31
 953 1432 953 1432 1088 1342 c 0,32,33
 1252 1234 1252 1234 1252 981 c 0,34,35
 1252 779 1252 779 1120 664 c 0,36,37
 989 551 989 551 757 551 c 2,13,-1
EndSplineSet
EndChar

StartChar: Q
Encoding: 81 81 51
Width: 1612
Flags: W
LayerCount: 2
Fore
SplineSet
1427 1026 m 128,-1,1
 1479 887 1479 887 1479 718.5 c 128,-1,2
 1479 550 1479 550 1442 426.5 c 128,-1,3
 1405 303 1405 303 1340 212 c 0,4,5
 1210 34 1210 34 985 -16 c 1,6,7
 1129 -217 1129 -217 1257 -217 c 0,8,9
 1342 -217 1342 -217 1472 -143 c 0,10,11
 1499 -128 1499 -128 1505 -125 c 1,12,-1
 1554 -205 l 1,13,14
 1432 -309 1432 -309 1300 -345 c 0,15,16
 1260 -356 1260 -356 1200 -356 c 128,-1,17
 1140 -356 1140 -356 1072.5 -336.5 c 128,-1,18
 1005 -317 1005 -317 946 -277 c 0,19,20
 839 -204 839 -204 731 -35 c 1,21,22
 463 -6 463 -6 304 175 c 0,23,24
 133 371 133 371 133 705 c 0,25,26
 133 1056 133 1056 329 1260 c 0,27,28
 512 1450 512 1450 807 1450 c 256,29,30
 1102 1450 1102 1450 1284 1260 c 0,31,0
 1375 1165 1375 1165 1427 1026 c 128,-1,1
393 698 m 0,32,33
 393 558 393 558 418 442.5 c 128,-1,34
 443 327 443 327 494 248 c 0,35,36
 599 84 599 84 807 84 c 0,37,38
 1116 84 1116 84 1194 442 c 0,39,40
 1219 558 1219 558 1219 700 c 128,-1,41
 1219 842 1219 842 1194.5 956 c 128,-1,42
 1170 1070 1170 1070 1119 1152 c 0,43,44
 1011 1325 1011 1325 807 1325 c 256,45,46
 602 1325 602 1325 494 1150 c 0,47,48
 393 986 393 986 393 698 c 0,32,33
EndSplineSet
EndChar

StartChar: R
Encoding: 82 82 52
Width: 1499
Flags: W
LayerCount: 2
Fore
SplineSet
670 1300 m 0,0,1
 564 1300 564 1300 494 1290 c 1,2,-1
 494 702 l 1,3,4
 557 680 557 680 668.5 680 c 128,-1,5
 780 680 780 680 845 705.5 c 128,-1,6
 910 731 910 731 948 773 c 0,7,8
 1013 846 1013 846 1013 981 c 0,9,10
 1013 1133 1013 1133 954 1204 c 0,11,12
 875 1300 875 1300 670 1300 c 0,0,1
1252 981 m 0,13,14
 1252 682 1252 682 986 588 c 1,15,-1
 1275 158 l 1,16,-1
 1437 264 l 1,17,-1
 1486 197 l 1,18,19
 1391 64 1391 64 1268 4 c 0,20,21
 1224 -18 1224 -18 1188 -18 c 0,22,23
 1111 -18 1111 -18 1068 51 c 2,24,-1
 757 551 l 1,25,-1
 718 551 l 2,26,27
 604 551 604 551 494 561 c 1,28,-1
 494 315 l 2,29,30
 494 170 494 170 522 56 c 0,31,32
 528 31 528 31 531 16 c 1,33,34
 467 -18 467 -18 380 -18 c 0,35,36
 259 -18 259 -18 259 82 c 2,37,-1
 259 1280 l 1,38,-1
 66 1268 l 1,39,-1
 66 1356 l 1,40,41
 79 1360 79 1360 98 1367.5 c 128,-1,42
 117 1375 117 1375 148 1383.5 c 128,-1,43
 179 1392 179 1392 224.5 1400.5 c 128,-1,44
 270 1409 270 1409 336 1416 c 0,45,46
 485 1432 485 1432 648 1432 c 128,-1,47
 811 1432 811 1432 911.5 1412.5 c 128,-1,48
 1012 1393 1012 1393 1088 1342 c 0,49,50
 1252 1234 1252 1234 1252 981 c 0,13,14
EndSplineSet
EndChar

StartChar: S
Encoding: 83 83 53
Width: 1267
Flags: W
LayerCount: 2
Fore
SplineSet
384 1106 m 4,0,1
 384 962 384 962 640 854 c 5,2,-1
 762 802 l 5,3,4
 986 702 986 702 1078 592 c 4,5,6
 1158 495 1158 495 1158 385 c 132,-1,7
 1158 275 1158 275 1119 198.5 c 132,-1,8
 1080 122 1080 122 1014 70 c 4,9,10
 878 -39 878 -39 675 -39 c 4,11,12
 383 -39 383 -39 169 104 c 5,13,14
 105 145 105 145 105 190 c 4,15,16
 105 211 105 211 120 227 c 5,17,-1
 222 348 l 5,18,-1
 328 265 l 5,19,20
 554 90 554 90 685 90 c 4,21,22
 779 90 779 90 850 148 c 4,23,24
 924 209 924 209 924 303 c 4,25,26
 924 466 924 466 680 593 c 4,27,28
 610 629 610 629 513 669.5 c 132,-1,29
 416 710 416 710 341 761.5 c 132,-1,30
 266 813 266 813 224 864 c 4,31,32
 154 952 154 952 154 1067 c 4,33,34
 154 1328 154 1328 467 1416 c 4,35,36
 588 1450 588 1450 730 1450 c 4,37,38
 915 1450 915 1450 1028 1406 c 4,39,40
 1098 1378 1098 1378 1098 1337 c 4,41,42
 1098 1320 1098 1320 1086 1298 c 6,43,-1
 1006 1161 l 5,44,-1
 915 1214 l 5,45,46
 742 1317 742 1317 597 1317 c 4,47,48
 454 1317 454 1317 402 1198 c 4,49,50
 384 1159 384 1159 384 1106 c 4,0,1
EndSplineSet
EndChar

StartChar: T
Encoding: 84 84 54
Width: 1353
Flags: W
LayerCount: 2
Fore
SplineSet
688 -18 m 0,0,1
 567 -18 567 -18 567 82 c 2,2,-1
 567 1272 l 1,3,4
 359 1272 359 1272 118 1232 c 0,5,6
 68 1223 68 1223 41 1219 c 1,7,8
 42 1218 42 1218 39 1231 c 128,-1,9
 36 1244 36 1244 32 1263 c 0,10,11
 22 1310 22 1310 22 1342 c 128,-1,12
 22 1374 22 1374 51.5 1389.5 c 128,-1,13
 81 1405 81 1405 132 1410 c 0,14,15
 172 1415 172 1415 223 1415 c 0,16,17
 236 1415 236 1415 251 1414 c 0,18,19
 319 1413 319 1413 397 1413 c 0,20,21
 600 1413 600 1413 834 1413 c 128,-1,22
 1068 1413 1068 1413 1323 1446 c 0,23,24
 1323 1445 1323 1445 1326 1435.5 c 128,-1,25
 1329 1426 1329 1426 1332 1410 c 0,26,27
 1341 1364 1341 1364 1341 1337 c 128,-1,28
 1341 1310 1341 1310 1323.5 1296 c 128,-1,29
 1306 1282 1306 1282 1277 1276 c 0,30,31
 1235 1266 1235 1266 1104.5 1266 c 128,-1,32
 974 1266 974 1266 803 1272 c 1,33,-1
 803 315 l 2,34,35
 803 163 803 163 816 97 c 2,36,-1
 833 16 l 1,37,38
 769 -18 769 -18 688 -18 c 0,0,1
EndSplineSet
EndChar

StartChar: U
Encoding: 85 85 55
Width: 1613
Flags: W
LayerCount: 2
Fore
SplineSet
1324 1432 m 0,0,1
 1426 1432 1426 1432 1426 1333 c 2,2,-1
 1426 545 l 2,3,4
 1426 269 1426 269 1257 110 c 0,5,6
 1099 -39 1099 -39 857 -39 c 0,7,8
 410 -39 410 -39 286 294 c 0,9,10
 245 403 245 403 245 547 c 2,11,-1
 245 1307 l 1,12,-1
 50 1307 l 1,13,-1
 50 1386 l 1,14,15
 165 1432 165 1432 347 1432 c 0,16,17
 433 1432 433 1432 450 1426 c 0,18,19
 478 1418 478 1418 478 1380 c 2,20,-1
 478 543 l 2,21,22
 478 364 478 364 560 237 c 0,23,24
 657 86 657 86 857 86 c 0,25,26
 1121 86 1121 86 1206 334 c 0,27,28
 1238 429 1238 429 1238 547 c 2,29,-1
 1238 1114 l 2,30,31
 1238 1262 1238 1262 1224.5 1325.5 c 128,-1,32
 1211 1389 1211 1389 1209 1403 c 1,33,34
 1250 1432 1250 1432 1324 1432 c 0,0,1
EndSplineSet
EndChar

StartChar: V
Encoding: 86 86 56
Width: 1536
Flags: W
LayerCount: 2
Fore
SplineSet
1170 1076 m 128,-1,1
 1170 1200 1170 1200 1123 1352 c 1,2,-1
 1285 1421 l 1,3,4
 1307 1432 1307 1432 1338 1432 c 128,-1,5
 1369 1432 1369 1432 1390.5 1398 c 128,-1,6
 1412 1364 1412 1364 1412 1307.5 c 128,-1,7
 1412 1251 1412 1251 1395 1168 c 128,-1,8
 1378 1085 1378 1085 1347 981 c 128,-1,9
 1316 877 1316 877 1271 757 c 128,-1,10
 1226 637 1226 637 1170 508 c 0,11,12
 1056 242 1056 242 910 -18 c 1,13,-1
 808 -18 l 2,14,15
 739 -18 739 -18 710 24 c 0,16,17
 699 39 699 39 689 63 c 2,18,-1
 177 1255 l 1,19,-1
 3 1176 l 1,20,-1
 -30 1247 l 1,21,22
 86 1354 86 1354 223 1412 c 0,23,24
 270 1432 270 1432 300 1432 c 0,25,26
 359 1432 359 1432 388 1368 c 1,27,-1
 875 213 l 1,28,-1
 888 213 l 1,29,-1
 996 446 l 1,30,31
 1106 680 1106 680 1138 816 c 128,-1,0
 1170 952 1170 952 1170 1076 c 128,-1,1
EndSplineSet
EndChar

StartChar: W
Encoding: 87 87 57
Width: 2263
Flags: W
LayerCount: 2
Fore
SplineSet
960 1380 m 1,0,1
 1021 1432 1021 1432 1118 1432 c 0,2,3
 1175 1432 1175 1432 1196 1418 c 0,4,5
 1234 1395 1234 1395 1253 1339 c 2,6,-1
 1648 231 l 1,7,-1
 1661 231 l 1,8,9
 1829 753 1829 753 1852 847 c 128,-1,10
 1875 941 1875 941 1882 978 c 0,11,12
 1892 1030 1892 1030 1892 1074 c 128,-1,13
 1892 1118 1892 1118 1886.5 1158.5 c 128,-1,14
 1881 1199 1881 1199 1873 1234.5 c 128,-1,15
 1865 1270 1865 1270 1856 1300 c 2,16,-1
 1841 1352 l 1,17,-1
 2003 1421 l 1,18,19
 2025 1432 2025 1432 2056 1432 c 128,-1,20
 2087 1432 2087 1432 2107 1397.5 c 128,-1,21
 2127 1363 2127 1363 2127 1306.5 c 128,-1,22
 2127 1250 2127 1250 2111.5 1167.5 c 128,-1,23
 2096 1085 2096 1085 2068 983 c 128,-1,24
 2040 881 2040 881 2000.5 763 c 128,-1,25
 1961 645 1961 645 1912 518 c 0,26,27
 1810 250 1810 250 1691 0 c 1,28,-1
 1570 0 l 2,29,30
 1497 0 1497 0 1470 41 c 0,31,32
 1460 57 1460 57 1452 82 c 2,33,-1
 1181 838 l 1,34,35
 1130 611 1130 611 990 278 c 1,36,-1
 927 131 l 1,37,38
 895 60 895 60 864 0 c 1,39,-1
 737 0 l 2,40,41
 666 0 666 0 638 41 c 0,42,43
 627 57 627 57 618 82 c 2,44,-1
 188 1247 l 1,45,-1
 12 1169 l 1,46,-1
 -21 1241 l 1,47,48
 109 1360 109 1360 215 1411 c 0,49,50
 259 1432 259 1432 292 1432 c 0,51,52
 373 1432 373 1432 399 1362 c 2,53,-1
 817 231 l 1,54,-1
 829 231 l 1,55,56
 915 430 915 430 989 706 c 1,57,-1
 1028 857 l 2,58,59
 1046 929 1046 929 1060 990 c 2,60,-1
 1083 1098 l 1,61,-1
 1075 1124 l 1,62,63
 1024 1278 1024 1278 978 1350 c 2,64,-1
 960 1380 l 1,0,1
EndSplineSet
EndChar

StartChar: X
Encoding: 88 88 58
Width: 1519
Flags: W
LayerCount: 2
Fore
SplineSet
1006 1222 m 128,-1,1
 1009 1239 1009 1239 1009 1272.5 c 128,-1,2
 1009 1306 1009 1306 992 1350 c 1,3,-1
 1152 1419 l 2,4,5
 1183 1432 1183 1432 1202 1432 c 128,-1,6
 1221 1432 1221 1432 1234.5 1423 c 128,-1,7
 1248 1414 1248 1414 1257 1399 c 0,8,9
 1275 1369 1275 1369 1275 1326 c 0,10,11
 1275 1247 1275 1247 1191 1141 c 1,12,-1
 1096 1026 l 1,13,14
 893 798 893 798 855 758 c 1,15,-1
 1271 164 l 1,16,-1
 1422 272 l 1,17,-1
 1474 207 l 1,18,19
 1418 126 1418 126 1354 76 c 0,20,21
 1237 -18 1237 -18 1166 -18 c 0,22,23
 1101 -18 1101 -18 1054 51 c 2,24,-1
 685 582 l 1,25,26
 654 537 654 537 611.5 482.5 c 128,-1,27
 569 428 569 428 530 368 c 0,28,29
 437 227 437 227 437 123 c 0,30,31
 437 93 437 93 446 66 c 1,32,-1
 286 -6 l 1,33,34
 254 -18 254 -18 229.5 -17 c 128,-1,35
 205 -16 205 -16 185 4 c 128,-1,36
 165 24 165 24 165 64.5 c 128,-1,37
 165 105 165 105 188 158.5 c 128,-1,38
 211 212 211 212 248.5 269.5 c 128,-1,39
 286 327 286 327 334 385 c 128,-1,40
 382 443 382 443 432 498 c 1,41,-1
 616 688 l 1,42,-1
 241 1253 l 1,43,-1
 93 1149 l 1,44,-1
 42 1212 l 1,45,46
 165 1348 165 1348 276 1414 c 0,47,48
 316 1438 316 1438 344 1438 c 0,49,50
 404 1438 404 1438 458 1360 c 1,51,-1
 788 862 l 1,52,53
 972 1130 972 1130 987.5 1167.5 c 128,-1,0
 1003 1205 1003 1205 1006 1222 c 128,-1,1
EndSplineSet
EndChar

StartChar: Y
Encoding: 89 89 59
Width: 1352
Flags: W
LayerCount: 2
Fore
SplineSet
1171 1432 m 0,0,1
 1247 1432 1247 1432 1247 1317 c 0,2,3
 1247 1136 1247 1136 1010 758 c 1,4,-1
 862 532 l 1,5,6
 862 186 862 186 870 129 c 0,7,8
 881 53 881 53 893 16 c 1,9,10
 829 -18 829 -18 747 -18 c 0,11,12
 627 -18 627 -18 627 82 c 2,13,-1
 627 500 l 1,14,-1
 172 1253 l 1,15,-1
 -4 1176 l 1,16,-1
 -37 1247 l 1,17,18
 81 1356 81 1356 207 1412 c 0,19,20
 253 1432 253 1432 282 1432 c 0,21,22
 337 1432 337 1432 377 1370 c 1,23,-1
 801 672 l 1,24,-1
 805 672 l 1,25,26
 841 735 841 735 877 798 c 128,-1,27
 913 861 913 861 942 924 c 0,28,29
 1007 1067 1007 1067 1007 1161.5 c 128,-1,30
 1007 1256 1007 1256 967 1354 c 1,31,-1
 1124 1421 l 1,32,33
 1146 1432 1146 1432 1171 1432 c 0,0,1
EndSplineSet
EndChar

StartChar: Z
Encoding: 90 90 60
Width: 1287
Flags: W
LayerCount: 2
Fore
SplineSet
124 1331 m 0,0,1
 124 1432 124 1432 657 1432 c 0,2,3
 822 1432 822 1432 954 1424 c 128,-1,4
 1086 1416 1086 1416 1104.5 1413.5 c 128,-1,5
 1123 1411 1123 1411 1138 1404 c 0,6,7
 1173 1386 1173 1386 1173 1348 c 2,8,-1
 1173 1307 l 1,9,-1
 360 141 l 1,10,-1
 507 141 l 2,11,12
 760 141 760 141 1004 184 c 0,13,14
 1088 198 1088 198 1153 219 c 0,15,16
 1152 219 1152 219 1155 209 c 128,-1,17
 1158 199 1158 199 1162 183 c 0,18,19
 1173 139 1173 139 1173 96.5 c 128,-1,20
 1173 54 1173 54 1137.5 28.5 c 128,-1,21
 1102 3 1102 3 1032 -6 c 0,22,23
 969 -15 969 -15 879 -15 c 0,24,25
 869 -15 869 -15 860 -15 c 0,26,27
 757 -14 757 -14 652.5 -14 c 128,-1,28
 548 -14 548 -14 477 -13 c 128,-1,29
 406 -12 406 -12 346 -10 c 0,30,31
 173 -6 173 -6 145 5 c 128,-1,32
 117 16 117 16 108 26 c 0,33,34
 92 42 92 42 92 86 c 2,35,-1
 92 121 l 1,36,-1
 882 1274 l 1,37,-1
 645 1274 l 1,38,39
 465 1272 465 1272 325 1216 c 0,40,41
 272 1194 272 1194 245.5 1176 c 128,-1,42
 219 1158 219 1158 219 1157 c 0,43,44
 213 1163 213 1163 198 1188 c 2,45,-1
 166 1240 l 1,46,47
 124 1312 124 1312 124 1331 c 0,0,1
EndSplineSet
EndChar

StartChar: bracketleft
Encoding: 91 91 61
Width: 642
Flags: W
LayerCount: 2
Fore
SplineSet
568 -143 m 1,0,-1
 568 -158 l 2,1,2
 568 -203 568 -203 548.5 -220.5 c 128,-1,3
 529 -238 529 -238 486 -238 c 2,4,-1
 199 -238 l 1,5,-1
 199 1536 l 1,6,-1
 486 1536 l 2,7,8
 529 1536 529 1536 548.5 1518.5 c 128,-1,9
 568 1501 568 1501 568 1456 c 2,10,-1
 568 1442 l 1,11,-1
 346 1442 l 1,12,-1
 346 -143 l 1,13,-1
 568 -143 l 1,0,-1
EndSplineSet
EndChar

StartChar: backslash
Encoding: 92 92 62
Width: 1072
Flags: W
LayerCount: 2
Fore
SplineSet
1015 0 m 1,0,-1
 880 0 l 2,1,2
 824 0 824 0 800 48 c 2,3,-1
 52 1575 l 1,4,-1
 175 1575 l 2,5,6
 219 1575 219 1575 236 1559 c 0,7,8
 259 1537 259 1537 280 1493 c 2,9,-1
 1015 0 l 1,0,-1
EndSplineSet
EndChar

StartChar: bracketright
Encoding: 93 93 63
Width: 643
Flags: W
LayerCount: 2
Fore
SplineSet
296 -143 m 1,0,-1
 296 1442 l 1,1,-1
 75 1442 l 1,2,-1
 75 1456 l 2,3,4
 75 1501 75 1501 94 1518.5 c 128,-1,5
 113 1536 113 1536 157 1536 c 2,6,-1
 444 1536 l 1,7,-1
 444 -238 l 1,8,-1
 157 -238 l 2,9,10
 113 -238 113 -238 94 -220.5 c 128,-1,11
 75 -203 75 -203 75 -158 c 2,12,-1
 75 -143 l 1,13,-1
 296 -143 l 1,0,-1
EndSplineSet
EndChar

StartChar: asciicircum
Encoding: 94 94 64
Width: 1391
Flags: W
LayerCount: 2
Fore
SplineSet
1182 293 m 2,0,1
 1194 274 1194 274 1194 250 c 128,-1,2
 1194 226 1194 226 1182 212.5 c 128,-1,3
 1170 199 1170 199 1145 186 c 1,4,-1
 1077 154 l 1,5,-1
 676 791 l 1,6,-1
 672 791 l 1,7,-1
 281 158 l 1,8,-1
 215 186 l 2,9,10
 164 208 164 208 164 246 c 0,11,12
 164 270 164 270 178 293 c 2,13,-1
 625 1024 l 1,14,-1
 686 1024 l 2,15,16
 731 1024 731 1024 752 990 c 0,17,18
 756 982 756 982 758 979 c 2,19,-1
 1182 293 l 2,0,1
EndSplineSet
EndChar

StartChar: underscore
Encoding: 95 95 65
Width: 1141
Flags: W
LayerCount: 2
Fore
SplineSet
123 -383 m 1,0,-1
 123 -319 l 2,1,2
 123 -274 123 -274 142 -258 c 128,-1,3
 161 -242 161 -242 205 -242 c 2,4,-1
 1010 -242 l 1,5,-1
 1010 -303 l 2,6,7
 1010 -348 1010 -348 990.5 -365.5 c 128,-1,8
 971 -383 971 -383 928 -383 c 2,9,-1
 123 -383 l 1,0,-1
EndSplineSet
EndChar

StartChar: grave
Encoding: 96 96 66
Width: 985
Flags: W
LayerCount: 2
Fore
SplineSet
537 1243 m 2,0,-1
 465 1243 l 1,1,-1
 240 1473 l 1,2,3
 205 1504 205 1504 205 1534 c 0,4,5
 205 1573 205 1573 268 1573 c 2,6,-1
 416 1573 l 1,7,-1
 555 1327 l 2,8,9
 575 1292 575 1292 575 1267.5 c 128,-1,10
 575 1243 575 1243 537 1243 c 2,0,-1
EndSplineSet
EndChar

StartChar: a
Encoding: 97 97 67
Width: 1216
Flags: W
LayerCount: 2
Fore
SplineSet
919 -18 m 0,0,1
 779 -18 779 -18 776 78 c 1,2,-1
 776 88 l 1,3,4
 587 -31 587 -31 442 -31 c 0,5,6
 222 -31 222 -31 144 134 c 0,7,8
 117 190 117 190 117 272 c 128,-1,9
 117 354 117 354 155.5 414 c 128,-1,10
 194 474 194 474 262 512 c 0,11,12
 391 582 391 582 635 582 c 2,13,-1
 776 582 l 1,14,-1
 776 657 l 2,15,16
 776 800 776 800 755 851 c 128,-1,17
 734 902 734 902 702.5 926 c 128,-1,18
 671 950 671 950 619 950 c 128,-1,19
 567 950 567 950 516 931.5 c 128,-1,20
 465 913 465 913 416 885 c 128,-1,21
 367 857 367 857 322 824 c 1,22,-1
 240 760 l 1,23,-1
 158 870 l 1,24,25
 143 888 143 888 143 914 c 128,-1,26
 143 940 143 940 184.5 967 c 128,-1,27
 226 994 226 994 288 1014 c 0,28,29
 422 1055 422 1055 535.5 1055 c 128,-1,30
 649 1055 649 1055 731 1033 c 128,-1,31
 813 1011 813 1011 874 964 c 0,32,33
 1008 860 1008 860 1008 657 c 2,34,-1
 1008 100 l 1,35,-1
 1182 100 l 1,36,-1
 1182 25 l 1,37,38
 1101 -18 1101 -18 919 -18 c 0,0,1
776 178 m 1,39,-1
 776 459 l 1,40,-1
 608 459 l 2,41,42
 441 459 441 459 373 371 c 0,43,44
 346 336 346 336 346 289.5 c 128,-1,45
 346 243 346 243 357 213.5 c 128,-1,46
 368 184 368 184 389 162 c 0,47,48
 433 117 433 117 521.5 117 c 128,-1,49
 610 117 610 117 776 178 c 1,39,-1
EndSplineSet
EndChar

StartChar: b
Encoding: 98 98 68
Width: 1321
Flags: W
LayerCount: 2
Fore
SplineSet
953 555 m 0,0,1
 953 934 953 934 732 934 c 0,2,3
 591 934 591 934 410 836 c 1,4,-1
 410 113 l 2,5,6
 410 103 410 103 501.5 91.5 c 128,-1,7
 593 80 593 80 653.5 80 c 128,-1,8
 714 80 714 80 774 112.5 c 128,-1,9
 834 145 834 145 874 206 c 0,10,11
 953 330 953 330 953 555 c 0,0,1
179 74 m 1,12,-1
 179 1419 l 1,13,-1
 2 1419 l 1,14,-1
 2 1495 l 1,15,16
 98 1536 98 1536 324 1536 c 0,17,18
 373 1536 373 1536 386 1530 c 0,19,20
 410 1519 410 1519 410 1483 c 2,21,-1
 410 932 l 1,22,23
 600 1055 600 1055 766 1055 c 0,24,25
 984 1055 984 1055 1098 904 c 0,26,27
 1201 768 1201 768 1201 539 c 0,28,29
 1201 292 1201 292 1046 131 c 0,30,31
 889 -31 889 -31 654.5 -31 c 128,-1,32
 420 -31 420 -31 179 74 c 1,12,-1
EndSplineSet
EndChar

StartChar: c
Encoding: 99 99 69
Width: 1138
Flags: W
LayerCount: 2
Fore
SplineSet
1075 74 m 1,0,1
 921 -31 921 -31 682 -31 c 0,2,3
 450 -31 450 -31 288 104 c 0,4,5
 113 251 113 251 113 494 c 0,6,7
 113 750 113 750 288 906 c 0,8,9
 456 1055 456 1055 723 1055 c 0,10,11
 850 1055 850 1055 942 1022 c 0,12,13
 1006 999 1006 999 1006 965 c 0,14,15
 1006 950 1006 950 1001 944 c 1,16,-1
 930 811 l 1,17,-1
 857 852 l 1,18,19
 704 936 704 936 596 936 c 0,20,21
 471 936 471 936 402 816 c 0,22,23
 344 713 344 713 344 592 c 128,-1,24
 344 471 344 471 370 385 c 128,-1,25
 396 299 396 299 450 235 c 0,26,27
 566 98 566 98 780 98 c 0,28,29
 901 98 901 98 1042 141 c 1,30,-1
 1075 74 l 1,0,1
EndSplineSet
EndChar

StartChar: d
Encoding: 100 100 70
Width: 1385
Flags: W
LayerCount: 2
Fore
SplineSet
912 844 m 1,0,1
 851 876 l 2,2,3
 742 932 742 932 648.5 932 c 128,-1,4
 555 932 555 932 506.5 900 c 128,-1,5
 458 868 458 868 428 811 c 0,6,7
 369 702 369 702 369 500 c 0,8,9
 369 205 369 205 522 120 c 0,10,11
 572 92 572 92 641.5 92 c 128,-1,12
 711 92 711 92 784.5 124.5 c 128,-1,13
 858 157 858 157 912 211 c 1,14,-1
 912 844 l 1,0,1
574 1055 m 0,15,16
 768 1055 768 1055 912 950 c 1,17,-1
 912 1419 l 1,18,-1
 736 1419 l 1,19,-1
 736 1495 l 1,20,21
 832 1536 832 1536 1058 1536 c 0,22,23
 1107 1536 1107 1536 1120 1530 c 0,24,25
 1144 1519 1144 1519 1144 1483 c 2,26,-1
 1144 100 l 1,27,-1
 1318 100 l 1,28,-1
 1318 25 l 1,29,30
 1237 -18 1237 -18 1056 -18 c 0,31,32
 951 -18 951 -18 923 28 c 0,33,34
 912 47 912 47 912 78 c 2,35,-1
 912 94 l 1,36,-1
 874 66 l 2,37,38
 741 -31 741 -31 582 -31 c 0,39,40
 376 -31 376 -31 247 128 c 0,41,42
 122 281 122 281 122 508 c 0,43,44
 122 898 122 898 375 1016 c 0,45,46
 460 1055 460 1055 574 1055 c 0,15,16
EndSplineSet
EndChar

StartChar: e
Encoding: 101 101 71
Width: 1221
Flags: W
LayerCount: 2
Fore
SplineSet
867 584 m 1,0,1
 877 617 877 617 877 666 c 128,-1,2
 877 715 877 715 860.5 764.5 c 128,-1,3
 844 814 844 814 812 854 c 0,4,5
 742 944 742 944 628 944 c 0,6,7
 487 944 487 944 416 836 c 0,8,9
 358 748 358 748 349 584 c 1,10,-1
 867 584 l 1,0,1
1080 66 m 1,11,12
 926 -39 926 -39 691 -39 c 0,13,14
 454 -39 454 -39 294 99 c 0,15,16
 116 251 116 251 116 512 c 0,17,18
 116 754 116 754 266 902 c 0,19,20
 420 1055 420 1055 681 1055 c 0,21,22
 874 1055 874 1055 994 937 c 0,23,24
 1107 826 1107 826 1107 664 c 0,25,26
 1107 461 1107 461 949 461 c 2,27,-1
 351 461 l 1,28,29
 370 286 370 286 493 186 c 0,30,31
 610 90 610 90 791 90 c 0,32,33
 914 90 914 90 1047 133 c 1,34,-1
 1080 66 l 1,11,12
EndSplineSet
EndChar

StartChar: f
Encoding: 102 102 72
Width: 846
Flags: W
LayerCount: 2
Fore
SplineSet
520 901 m 1,0,-1
 520 -16 l 2,1,2
 520 -247 520 -247 368 -376 c 0,3,4
 233 -492 233 -492 35 -492 c 0,5,6
 -83 -492 -83 -492 -137 -464 c 0,7,8
 -160 -452 -160 -452 -160 -440 c 0,9,10
 -160 -424 -160 -424 -156 -414 c 2,11,-1
 -90 -262 l 1,12,-1
 -15 -294 l 2,13,14
 123 -352 123 -352 172.5 -352 c 128,-1,15
 222 -352 222 -352 245 -320.5 c 128,-1,16
 268 -289 268 -289 278 -240 c 0,17,18
 291 -177 291 -177 291 -18 c 2,19,-1
 289 901 l 1,20,-1
 51 901 l 1,21,-1
 51 946 l 2,22,23
 51 991 51 991 70.5 1007.5 c 128,-1,24
 90 1024 90 1024 133 1024 c 2,25,-1
 289 1024 l 1,26,-1
 289 1090 l 2,27,28
 289 1315 289 1315 427 1432 c 0,29,30
 549 1536 549 1536 741 1536 c 0,31,32
 873 1536 873 1536 932 1502 c 0,33,34
 958 1486 958 1486 958 1469 c 0,35,36
 958 1448 958 1448 948 1432 c 1,37,-1
 874 1298 l 1,38,-1
 801 1338 l 1,39,40
 677 1409 677 1409 630.5 1409 c 128,-1,41
 584 1409 584 1409 564.5 1392 c 128,-1,42
 545 1375 545 1375 535 1343 c 0,43,44
 520 1295 520 1295 520 1159 c 2,45,-1
 520 1024 l 1,46,-1
 807 1024 l 1,47,-1
 807 981 l 2,48,49
 807 936 807 936 787.5 918.5 c 128,-1,50
 768 901 768 901 725 901 c 2,51,-1
 520 901 l 1,0,-1
EndSplineSet
EndChar

StartChar: g
Encoding: 103 103 73
Width: 1370
Flags: W
LayerCount: 2
Fore
SplineSet
852 672 m 256,0,1
 852 954 852 954 614.5 954 c 128,-1,2
 377 954 377 954 377 672 c 256,3,4
 377 538 377 538 435 462.5 c 128,-1,5
 493 387 493 387 614 387 c 256,6,7
 735 387 735 387 793.5 462.5 c 128,-1,8
 852 538 852 538 852 672 c 256,0,1
418 315 m 1,9,10
 336 272 336 272 336 229.5 c 128,-1,11
 336 187 336 187 371.5 165.5 c 128,-1,12
 407 144 407 144 465.5 132 c 128,-1,13
 524 120 524 120 599 114 c 128,-1,14
 674 108 674 108 751.5 99 c 128,-1,15
 829 90 829 90 904 75 c 128,-1,16
 979 60 979 60 1038 30 c 0,17,18
 1167 -38 1167 -38 1167 -176 c 0,19,20
 1167 -328 1167 -328 1003 -414 c 0,21,22
 855 -492 855 -492 639 -492 c 0,23,24
 423 -492 423 -492 239 -420 c 0,25,26
 122 -373 122 -373 74 -314 c 0,27,28
 49 -284 49 -284 49 -260.5 c 128,-1,29
 49 -237 49 -237 59.5 -224 c 128,-1,30
 70 -211 70 -211 92 -198 c 0,31,32
 138 -170 138 -170 236 -135 c 1,33,34
 391 -369 391 -369 668 -369 c 0,35,36
 849 -369 849 -369 924 -292 c 0,37,38
 954 -262 954 -262 954 -218 c 128,-1,39
 954 -174 954 -174 920.5 -151 c 128,-1,40
 887 -128 887 -128 832.5 -113 c 128,-1,41
 778 -98 778 -98 708 -89 c 128,-1,42
 638 -80 638 -80 565 -69 c 128,-1,43
 492 -58 492 -58 422 -42 c 128,-1,44
 352 -26 352 -26 298 2 c 0,45,46
 176 63 176 63 176 180 c 0,47,48
 176 274 176 274 279 327 c 2,49,-1
 330 354 l 1,50,51
 141 461 141 461 141 672 c 0,52,53
 141 847 141 847 277 952 c 0,54,55
 410 1055 410 1055 614 1055 c 0,56,57
 741 1055 741 1055 844 1012.5 c 128,-1,58
 947 970 947 970 1010 893 c 1,59,-1
 1069 967 l 1,60,61
 1134 1046 1134 1046 1168 1066 c 0,62,63
 1220 1096 1220 1096 1278 1096 c 0,64,65
 1334 1096 1334 1096 1362 1060 c 0,66,67
 1372 1048 1372 1048 1372 1030 c 2,68,-1
 1372 895 l 1,69,70
 1216 895 1216 895 1177 886 c 0,71,72
 1106 871 1106 871 1055 817 c 1,73,74
 1087 744 1087 744 1087 662.5 c 128,-1,75
 1087 581 1087 581 1051 510.5 c 128,-1,76
 1015 440 1015 440 952 390 c 0,77,78
 821 287 821 287 614 287 c 0,79,80
 508 287 508 287 418 315 c 1,9,10
EndSplineSet
EndChar

StartChar: h
Encoding: 104 104 74
Width: 1350
Flags: W
LayerCount: 2
Fore
SplineSet
301 -18 m 0,0,1
 184 -18 184 -18 184 78 c 2,2,-1
 184 1419 l 1,3,-1
 8 1419 l 1,4,-1
 8 1495 l 1,5,6
 104 1536 104 1536 329 1536 c 0,7,8
 378 1536 378 1536 391 1530 c 0,9,10
 415 1519 415 1519 415 1483 c 2,11,-1
 415 940 l 1,12,13
 421 942 421 942 442 951 c 2,14,-1
 492 973 l 2,15,16
 686 1057 686 1057 827 1057 c 0,17,18
 1067 1057 1067 1057 1103 866 c 0,19,20
 1114 808 1114 808 1114 739 c 2,21,-1
 1114 100 l 1,22,-1
 1288 100 l 1,23,-1
 1288 25 l 1,24,25
 1207 -18 1207 -18 1026 -18 c 0,26,27
 921 -18 921 -18 893 28 c 0,28,29
 882 47 882 47 882 78 c 2,30,-1
 882 719 l 2,31,32
 882 826 882 826 861 857 c 128,-1,33
 840 888 840 888 813 898.5 c 128,-1,34
 786 909 786 909 743.5 909 c 128,-1,35
 701 909 701 909 647 900.5 c 128,-1,36
 593 892 593 892 544 881 c 128,-1,37
 495 870 495 870 458.5 860.5 c 128,-1,38
 422 851 422 851 415 850 c 1,39,-1
 415 301 l 2,40,41
 415 150 415 150 428 89 c 2,42,-1
 444 14 l 1,43,44
 388 -18 388 -18 301 -18 c 0,0,1
EndSplineSet
EndChar

StartChar: i
Encoding: 105 105 75
Width: 716
Flags: W
LayerCount: 2
Fore
SplineSet
474 100 m 1,0,-1
 648 100 l 1,1,-1
 648 25 l 1,2,3
 567 -18 567 -18 386 -18 c 0,4,5
 281 -18 281 -18 253 28 c 0,6,7
 242 47 242 47 242 78 c 2,8,-1
 242 926 l 1,9,-1
 66 926 l 1,10,-1
 66 1001 l 1,11,12
 162 1042 162 1042 388 1042 c 0,13,14
 437 1042 437 1042 450 1036 c 0,15,16
 474 1025 474 1025 474 989 c 2,17,-1
 474 100 l 1,0,-1
218 1372 m 256,18,19
 218 1429 218 1429 259 1468 c 128,-1,20
 300 1507 300 1507 359 1507 c 256,21,22
 418 1507 418 1507 459 1468 c 128,-1,23
 500 1429 500 1429 500 1372 c 256,24,25
 500 1317 500 1317 459 1278 c 128,-1,26
 418 1239 418 1239 359 1239 c 256,27,28
 300 1239 300 1239 259 1278 c 128,-1,29
 218 1317 218 1317 218 1372 c 256,18,19
EndSplineSet
EndChar

StartChar: j
Encoding: 106 106 76
Width: 659
Flags: W
LayerCount: 2
Fore
SplineSet
473 -16 m 2,0,1
 473 -247 473 -247 320 -376 c 0,2,3
 184 -492 184 -492 -17 -492 c 0,4,5
 -134 -492 -134 -492 -188 -464 c 0,6,7
 -211 -452 -211 -452 -211 -440 c 0,8,9
 -211 -424 -211 -424 -207 -414 c 2,10,-1
 -142 -262 l 1,11,12
 -99 -277 -99 -277 -60 -293 c 2,13,-1
 12 -322 l 1,14,15
 90 -352 90 -352 119 -352 c 0,16,17
 170 -352 170 -352 189 -333.5 c 128,-1,18
 208 -315 208 -315 216.5 -282 c 128,-1,19
 225 -249 225 -249 230 -208 c 128,-1,20
 235 -167 235 -167 237.5 -123.5 c 128,-1,21
 240 -80 240 -80 240.5 -45.5 c 128,-1,22
 241 -11 241 -11 240.5 9.5 c 128,-1,23
 240 30 240 30 241 25 c 1,24,-1
 241 926 l 1,25,-1
 65 926 l 1,26,-1
 65 1001 l 1,27,28
 161 1042 161 1042 387 1042 c 0,29,30
 436 1042 436 1042 449 1036 c 0,31,32
 473 1025 473 1025 473 989 c 2,33,-1
 473 -16 l 2,0,1
217 1372 m 256,34,35
 217 1429 217 1429 258 1468 c 128,-1,36
 299 1507 299 1507 358 1507 c 256,37,38
 417 1507 417 1507 458 1468 c 128,-1,39
 499 1429 499 1429 499 1372 c 256,40,41
 499 1317 499 1317 458 1278 c 128,-1,42
 417 1239 417 1239 358 1239 c 256,43,44
 299 1239 299 1239 258 1278 c 128,-1,45
 217 1317 217 1317 217 1372 c 256,34,35
EndSplineSet
EndChar

StartChar: k
Encoding: 107 107 77
Width: 1210
Flags: W
LayerCount: 2
Fore
SplineSet
300 -18 m 0,0,1
 184 -18 184 -18 184 78 c 2,2,-1
 184 1417 l 1,3,-1
 7 1417 l 1,4,-1
 7 1493 l 1,5,6
 103 1534 103 1534 329 1534 c 0,7,8
 378 1534 378 1534 391 1528 c 0,9,10
 415 1517 415 1517 415 1481 c 2,11,-1
 415 301 l 2,12,13
 415 130 415 130 444 14 c 1,14,15
 388 -18 388 -18 300 -18 c 0,0,1
1035 1033.5 m 128,-1,17
 1052 1012 1052 1012 1052 980.5 c 128,-1,18
 1052 949 1052 949 1032.5 913 c 128,-1,19
 1013 877 1013 877 980.5 839.5 c 128,-1,20
 948 802 948 802 906.5 764 c 128,-1,21
 865 726 865 726 820 690 c 2,22,-1
 655 563 l 1,23,-1
 972 158 l 1,24,-1
 1120 254 l 1,25,-1
 1160 193 l 1,26,27
 1121 119 1121 119 1034 53 c 0,28,29
 942 -18 942 -18 872 -18 c 0,30,31
 820 -18 820 -18 786 29 c 1,32,-1
 458 449 l 2,33,34
 444 466 444 466 444 482 c 0,35,36
 444 512 444 512 465.5 531.5 c 128,-1,37
 487 551 487 551 520 578 c 2,38,-1
 590 637 l 1,39,40
 796 818 796 818 796 924 c 0,41,42
 796 951 796 951 788 971 c 1,43,44
 839 996 839 996 870 1012 c 2,45,-1
 919 1038 l 2,46,47
 952 1055 952 1055 985 1055 c 128,-1,16
 1018 1055 1018 1055 1035 1033.5 c 128,-1,17
EndSplineSet
EndChar

StartChar: l
Encoding: 108 108 78
Width: 670
Flags: W
LayerCount: 2
Fore
SplineSet
429 100 m 1,0,-1
 603 100 l 1,1,-1
 603 25 l 1,2,3
 522 -18 522 -18 341 -18 c 0,4,5
 271 -18 271 -18 245 -4 c 0,6,7
 198 22 198 22 198 78 c 2,8,-1
 198 1419 l 1,9,-1
 21 1419 l 1,10,-1
 21 1495 l 1,11,12
 117 1536 117 1536 343 1536 c 0,13,14
 392 1536 392 1536 405 1530 c 0,15,16
 429 1519 429 1519 429 1483 c 2,17,-1
 429 100 l 1,0,-1
EndSplineSet
EndChar

StartChar: m
Encoding: 109 109 79
Width: 2036
Flags: W
LayerCount: 2
Fore
SplineSet
885 1055 m 0,0,1
 1062 1055 1062 1055 1107 938 c 0,2,3
 1107 937 1107 937 1125 945.5 c 128,-1,4
 1143 954 1143 954 1174 967 c 128,-1,5
 1205 980 1205 980 1246 995 c 128,-1,6
 1287 1010 1287 1010 1334 1024 c 0,7,8
 1442 1055 1442 1055 1527 1055 c 128,-1,9
 1612 1055 1612 1055 1666 1032.5 c 128,-1,10
 1720 1010 1720 1010 1749 969 c 0,11,12
 1797 901 1797 901 1797 745 c 2,13,-1
 1797 100 l 1,14,-1
 1971 100 l 1,15,-1
 1971 25 l 1,16,17
 1890 -18 1890 -18 1709 -18 c 0,18,19
 1604 -18 1604 -18 1576 28 c 0,20,21
 1565 47 1565 47 1565 78 c 2,22,-1
 1565 731 l 2,23,24
 1565 824 1565 824 1550 853 c 0,25,26
 1524 905 1524 905 1449 905 c 0,27,28
 1352 905 1352 905 1129 852 c 1,29,30
 1135 802 1135 802 1135 745 c 2,31,-1
 1135 301 l 2,32,33
 1135 150 1135 150 1148 89 c 2,34,-1
 1164 14 l 1,35,36
 1108 -18 1108 -18 1021 -18 c 0,37,38
 904 -18 904 -18 904 78 c 2,39,-1
 904 731 l 2,40,41
 904 824 904 824 890 853 c 0,42,43
 863 905 863 905 787 905 c 0,44,45
 700 905 700 905 602 880 c 2,46,-1
 488 852 l 1,47,-1
 474 848 l 1,48,-1
 474 301 l 2,49,50
 474 146 474 146 486 87 c 2,51,-1
 502 14 l 1,52,53
 446 -18 446 -18 359 -18 c 0,54,55
 242 -18 242 -18 242 78 c 2,56,-1
 242 924 l 1,57,-1
 66 924 l 1,58,-1
 66 999 l 1,59,60
 162 1040 162 1040 388 1040 c 0,61,62
 437 1040 437 1040 450 1034 c 0,63,64
 474 1023 474 1023 474 987 c 2,65,-1
 474 938 l 2,66,67
 474 937 474 937 491.5 945.5 c 128,-1,68
 509 954 509 954 539.5 967 c 128,-1,69
 570 980 570 980 610.5 995 c 128,-1,70
 651 1010 651 1010 696 1024 c 0,71,72
 803 1055 803 1055 885 1055 c 0,0,1
EndSplineSet
EndChar

StartChar: n
Encoding: 110 110 80
Width: 1410
Flags: W
LayerCount: 2
Fore
SplineSet
359 -18 m 0,0,1
 242 -18 242 -18 242 78 c 2,2,-1
 242 924 l 1,3,-1
 66 924 l 1,4,-1
 66 999 l 1,5,6
 162 1040 162 1040 388 1040 c 0,7,8
 437 1040 437 1040 450 1034 c 0,9,10
 474 1023 474 1023 474 987 c 2,11,-1
 474 938 l 1,12,13
 489 943 489 943 529.5 962 c 128,-1,14
 570 981 570 981 628 1002 c 0,15,16
 779 1055 779 1055 881 1055 c 128,-1,17
 983 1055 983 1055 1037 1031 c 128,-1,18
 1091 1007 1091 1007 1121 964 c 0,19,20
 1172 892 1172 892 1172 737 c 2,21,-1
 1172 100 l 1,22,-1
 1346 100 l 1,23,-1
 1346 25 l 1,24,25
 1265 -18 1265 -18 1084 -18 c 0,26,27
 1014 -18 1014 -18 988 -4 c 0,28,29
 941 22 941 22 941 78 c 2,30,-1
 941 717 l 2,31,32
 941 824 941 824 920 855 c 128,-1,33
 899 886 899 886 871.5 896.5 c 128,-1,34
 844 907 844 907 808.5 907 c 128,-1,35
 773 907 773 907 739.5 903 c 128,-1,36
 706 899 706 899 670.5 892.5 c 128,-1,37
 635 886 635 886 601.5 879 c 128,-1,38
 568 872 568 872 540 866 c 0,39,40
 492 854 492 854 474 848 c 1,41,-1
 474 301 l 2,42,43
 474 146 474 146 486 87 c 2,44,-1
 502 14 l 1,45,46
 446 -18 446 -18 359 -18 c 0,0,1
EndSplineSet
EndChar

StartChar: o
Encoding: 111 111 81
Width: 1333
Flags: W
LayerCount: 2
Fore
SplineSet
1216 510 m 0,0,1
 1216 388 1216 388 1173.5 288 c 128,-1,2
 1131 188 1131 188 1056 117 c 0,3,4
 901 -31 901 -31 668 -31 c 0,5,6
 432 -31 432 -31 277 118 c 0,7,8
 117 272 117 272 117 510 c 0,9,10
 117 751 117 751 277 906 c 0,11,12
 432 1055 432 1055 668 1055 c 0,13,14
 902 1055 902 1055 1057 906 c 0,15,16
 1216 752 1216 752 1216 510 c 0,0,1
364 512 m 256,17,18
 364 206 364 206 518 112 c 0,19,20
 576 76 576 76 667.5 76 c 128,-1,21
 759 76 759 76 817.5 112 c 128,-1,22
 876 148 876 148 910 208 c 0,23,24
 969 316 969 316 969 512 c 256,25,26
 969 819 969 819 818 912 c 0,27,28
 759 948 759 948 667.5 948 c 128,-1,29
 576 948 576 948 517.5 912 c 128,-1,30
 459 876 459 876 424 816 c 0,31,32
 364 709 364 709 364 512 c 256,17,18
EndSplineSet
EndChar

StartChar: p
Encoding: 112 112 82
Width: 1386
Flags: W
LayerCount: 2
Fore
SplineSet
474 840 m 1,0,-1
 474 188 l 1,1,-1
 534 154 l 2,2,3
 650 90 650 90 732 90 c 128,-1,4
 814 90 814 90 865 124 c 128,-1,5
 916 158 916 158 949 216 c 0,6,7
 1014 332 1014 332 1014 518 c 0,8,9
 1014 727 1014 727 969 824 c 0,10,11
 917 936 917 936 791.5 936 c 128,-1,12
 666 936 666 936 474 840 c 1,0,-1
359 -494 m 0,13,14
 242 -494 242 -494 242 -393 c 2,15,-1
 242 924 l 1,16,-1
 64 924 l 1,17,-1
 64 999 l 1,18,19
 160 1040 160 1040 388 1040 c 0,20,21
 437 1040 437 1040 450 1034 c 0,22,23
 474 1023 474 1023 474 987 c 2,24,-1
 474 940 l 1,25,26
 580 1016 580 1016 725 1045 c 0,27,28
 776 1055 776 1055 830 1055 c 0,29,30
 1056 1055 1056 1055 1170 884 c 0,31,32
 1264 744 1264 744 1264 516 c 0,33,34
 1264 296 1264 296 1150 141 c 0,35,36
 1022 -31 1022 -31 801 -31 c 0,37,38
 681 -31 681 -31 566 18 c 0,39,40
 523 36 523 36 498.5 51.5 c 128,-1,41
 474 67 474 67 474 68 c 2,42,-1
 474 -174 l 2,43,44
 474 -330 474 -330 486 -388 c 2,45,-1
 502 -461 l 1,46,47
 444 -494 444 -494 359 -494 c 0,13,14
EndSplineSet
EndChar

StartChar: q
Encoding: 113 113 83
Width: 1322
Flags: W
LayerCount: 2
Fore
SplineSet
521 120.5 m 128,-1,1
 570 90 570 90 621 90 c 128,-1,2
 672 90 672 90 707 97.5 c 128,-1,3
 742 105 742 105 775 119 c 0,4,5
 832 143 832 143 910 193 c 1,6,-1
 910 911 l 2,7,8
 910 921 910 921 818.5 932.5 c 128,-1,9
 727 944 727 944 687 944 c 0,10,11
 532 944 532 944 449.5 831 c 128,-1,12
 367 718 367 718 367 504 c 0,13,14
 367 319 367 319 438 206 c 0,15,0
 472 151 472 151 521 120.5 c 128,-1,1
1142 950 m 1,16,-1
 1142 -373 l 1,17,-1
 1316 -373 l 1,18,-1
 1316 -449 l 1,19,20
 1235 -492 1235 -492 1054 -492 c 0,21,22
 948 -492 948 -492 921 -445 c 0,23,24
 910 -426 910 -426 910 -395 c 2,25,-1
 910 76 l 1,26,27
 738 -31 738 -31 568 -31 c 0,28,29
 343 -31 343 -31 224 128 c 0,30,31
 120 267 120 267 120 483 c 0,32,33
 120 744 120 744 276 902 c 0,34,35
 428 1055 428 1055 664.5 1055 c 128,-1,36
 901 1055 901 1055 1142 950 c 1,16,-1
EndSplineSet
EndChar

StartChar: r
Encoding: 114 114 84
Width: 992
Flags: W
LayerCount: 2
Fore
SplineSet
359 -18 m 0,0,1
 242 -18 242 -18 242 78 c 2,2,-1
 242 922 l 1,3,-1
 66 922 l 1,4,-1
 66 997 l 1,5,6
 162 1038 162 1038 388 1038 c 0,7,8
 437 1038 437 1038 450 1032 c 0,9,10
 474 1021 474 1021 474 985 c 2,11,-1
 474 745 l 1,12,-1
 601 926 l 1,13,14
 695 1055 695 1055 828 1055 c 128,-1,15
 961 1055 961 1055 961 999 c 2,16,-1
 961 991 l 2,17,18
 961 988 961 988 959 983 c 2,19,-1
 916 842 l 1,20,21
 846 864 846 864 791.5 864 c 128,-1,22
 737 864 737 864 688 833.5 c 128,-1,23
 639 803 639 803 598 761.5 c 128,-1,24
 557 720 557 720 525.5 677.5 c 128,-1,25
 494 635 494 635 474 612 c 1,26,-1
 474 301 l 2,27,28
 474 146 474 146 486 87 c 2,29,-1
 502 14 l 1,30,31
 446 -18 446 -18 359 -18 c 0,0,1
EndSplineSet
EndChar

StartChar: s
Encoding: 115 115 85
Width: 1022
Flags: W
LayerCount: 2
Fore
SplineSet
258 194 m 2,0,1
 297 166 297 166 343 140 c 0,2,3
 456 78 456 78 545 78 c 0,4,5
 615 78 615 78 651 106 c 0,6,7
 715 157 715 157 715 225 c 0,8,9
 715 321 715 321 541 394 c 1,10,11
 417 448 417 448 352 479 c 128,-1,12
 287 510 287 510 240 548 c 0,13,14
 135 636 135 636 135 770 c 256,15,16
 135 912 135 912 274 990 c 0,17,18
 390 1055 390 1055 561 1055 c 0,19,20
 746 1055 746 1055 826 1013 c 0,21,22
 854 998 854 998 854 983.5 c 128,-1,23
 854 969 854 969 848 956 c 2,24,-1
 780 825 l 1,25,-1
 728 856 l 1,26,27
 593 938 593 938 473 938 c 0,28,29
 404 938 404 938 360 906 c 128,-1,30
 316 874 316 874 316 821.5 c 128,-1,31
 316 769 316 769 342 735 c 128,-1,32
 368 701 368 701 410.5 674.5 c 128,-1,33
 453 648 453 648 508 626 c 2,34,-1
 619 582 l 2,35,36
 765 523 765 523 818 480 c 0,37,38
 922 396 922 396 922 296.5 c 128,-1,39
 922 197 922 197 884 137 c 128,-1,40
 846 77 846 77 786 40 c 0,41,42
 672 -31 672 -31 504 -31 c 0,43,44
 380 -31 380 -31 243 16 c 0,45,46
 107 64 107 64 107 106 c 0,47,48
 107 119 107 119 113 131 c 1,49,-1
 193 242 l 1,50,-1
 258 194 l 2,0,1
EndSplineSet
EndChar

StartChar: t
Encoding: 116 116 86
Width: 934
Flags: W
LayerCount: 2
Fore
SplineSet
250 1262 m 2,0,1
 250 1356 250 1356 367 1356 c 0,2,3
 456 1356 456 1356 510 1325 c 1,4,-1
 502 1288 l 2,5,6
 482 1194 482 1194 482 1024 c 1,7,-1
 830 1024 l 1,8,-1
 830 981 l 2,9,10
 830 936 830 936 810.5 918.5 c 128,-1,11
 791 901 791 901 748 901 c 2,12,-1
 482 901 l 1,13,-1
 482 315 l 2,14,15
 482 88 482 88 648 88 c 0,16,17
 726 88 726 88 844 134 c 0,18,19
 864 141 864 141 863 139 c 1,20,-1
 895 70 l 1,21,22
 734 -31 734 -31 566 -31 c 0,23,24
 420 -31 420 -31 335 56 c 128,-1,25
 250 143 250 143 250 297 c 2,26,-1
 250 901 l 1,27,-1
 43 901 l 1,28,-1
 43 946 l 2,29,30
 43 991 43 991 62.5 1007.5 c 128,-1,31
 82 1024 82 1024 125 1024 c 2,32,-1
 250 1024 l 1,33,-1
 250 1262 l 2,0,1
EndSplineSet
EndChar

StartChar: u
Encoding: 117 117 87
Width: 1409
Flags: W
LayerCount: 2
Fore
SplineSet
759 928 m 1,0,-1
 759 1004 l 1,1,2
 852 1044 852 1044 1081 1044 c 0,3,4
 1130 1044 1130 1044 1143 1038 c 0,5,6
 1167 1027 1167 1027 1167 991 c 2,7,-1
 1167 100 l 1,8,-1
 1341 100 l 1,9,-1
 1341 25 l 1,10,11
 1260 -18 1260 -18 1079 -18 c 0,12,13
 974 -18 974 -18 946 28 c 0,14,15
 935 47 935 47 935 78 c 2,16,-1
 935 86 l 2,17,18
 935 87 935 87 917.5 78.5 c 128,-1,19
 900 70 900 70 869.5 57 c 128,-1,20
 839 44 839 44 798.5 29 c 128,-1,21
 758 14 758 14 712 0 c 0,22,23
 600 -32 600 -32 512 -32 c 0,24,25
 435 -32 435 -32 376 -8 c 0,26,27
 271 37 271 37 248 160 c 0,28,29
 237 218 237 218 237 287 c 2,30,-1
 237 928 l 1,31,-1
 61 928 l 1,32,-1
 61 1004 l 1,33,34
 154 1044 154 1044 382 1044 c 0,35,36
 431 1044 431 1044 444 1038 c 0,37,38
 468 1027 468 1027 468 991 c 2,39,-1
 468 307 l 2,40,41
 468 200 468 200 489 169 c 128,-1,42
 510 138 510 138 537.5 127.5 c 128,-1,43
 565 117 565 117 599 117 c 128,-1,44
 633 117 633 117 667.5 121.5 c 128,-1,45
 702 126 702 126 738.5 132.5 c 128,-1,46
 775 139 775 139 810 146 c 0,47,48
 883 162 883 162 908.5 169 c 128,-1,49
 934 176 934 176 935 176 c 1,50,-1
 935 928 l 1,51,-1
 759 928 l 1,0,-1
EndSplineSet
EndChar

StartChar: v
Encoding: 118 118 88
Width: 1244
Flags: W
LayerCount: 2
Fore
SplineSet
290 1021 m 128,-1,1
 336 1042 336 1042 371 1042 c 128,-1,2
 406 1042 406 1042 424 995 c 0,3,4
 425 993 425 993 438 957 c 0,5,6
 651 404 651 404 682 326 c 2,7,-1
 730 212 l 2,8,9
 746 175 746 175 751 172 c 1,10,11
 879 373 879 373 938 612 c 0,12,13
 958 692 958 692 958 742.5 c 128,-1,14
 958 793 958 793 952.5 823 c 128,-1,15
 947 853 947 853 939 877.5 c 128,-1,16
 931 902 931 902 922 923 c 2,17,18
 907 961 l 1,19,-1
 1038 1026 l 1,20,21
 1073 1042 1073 1042 1093 1042 c 128,-1,22
 1113 1042 1113 1042 1125.5 1032.5 c 128,-1,23
 1138 1023 1138 1023 1146 1009 c 0,24,25
 1159 984 1159 984 1159 938 c 128,-1,26
 1159 892 1159 892 1140 819 c 128,-1,27
 1121 746 1121 746 1089.5 662 c 128,-1,28
 1058 578 1058 578 1018 488 c 1,29,30
 911 261 911 261 859 162 c 2,31,-1
 774 0 l 1,32,-1
 669 0 l 2,33,34
 587 0 587 0 555 78 c 1,35,-1
 223 858 l 1,36,-1
 65 788 l 1,37,-1
 34 858 l 1,38,39
 91 908 91 908 167.5 954 c 128,-1,0
 244 1000 244 1000 290 1021 c 128,-1,1
EndSplineSet
EndChar

StartChar: w
Encoding: 119 119 89
Width: 1847
Flags: W
LayerCount: 2
Fore
SplineSet
1687 1042 m 0,0,1
 1747 1042 1747 1042 1747 940 c 0,2,3
 1747 798 1747 798 1622 480 c 0,4,5
 1511 199 1511 199 1392 -2 c 1,6,-1
 1288 -2 l 2,7,8
 1209 -2 1209 -2 1177 74 c 1,9,-1
 991 567 l 1,10,11
 961 474 961 474 931 400 c 0,12,13
 815 108 815 108 751 -2 c 1,14,-1
 647 -2 l 2,15,16
 568 -2 568 -2 534 74 c 1,17,-1
 219 862 l 1,18,-1
 71 797 l 1,19,-1
 34 862 l 1,20,-1
 94 914 l 2,21,22
 240 1042 240 1042 348 1042 c 0,23,24
 400 1042 400 1042 422 983 c 0,25,26
 423 981 423 981 436 946 c 2,27,-1
 671 300 l 1,28,29
 720 171 720 171 729 166 c 1,30,31
 731 170 731 170 743 202 c 2,32,-1
 810 396 l 1,33,34
 893 661 893 661 913 760 c 1,35,-1
 831 963 l 1,36,37
 883 1010 883 1010 929.5 1026 c 128,-1,38
 976 1042 976 1042 999 1042 c 256,39,40
 1052 1042 1052 1042 1075 987 c 1,41,42
 1313 297 1313 297 1339 233 c 128,-1,43
 1365 169 1365 169 1370 166 c 1,44,45
 1475 383 1475 383 1524 629 c 0,46,47
 1540 712 1540 712 1540 778 c 256,48,49
 1540 874 1540 874 1495 961 c 1,50,-1
 1593 1010 l 1,51,-1
 1614 1020 l 2,52,53
 1660 1042 1660 1042 1687 1042 c 0,0,1
EndSplineSet
EndChar

StartChar: x
Encoding: 120 120 90
Width: 1213
Flags: W
LayerCount: 2
Fore
SplineSet
772 969 m 1,0,1
 919 1044 919 1044 967 1044 c 0,2,3
 1024 1044 1024 1044 1024 977 c 0,4,5
 1024 874 1024 874 826 670 c 1,6,-1
 719 563 l 1,7,-1
 981 152 l 1,8,-1
 1127 250 l 1,9,-1
 1166 188 l 1,10,11
 1135 117 1135 117 1048 50 c 0,12,13
 958 -20 958 -20 879 -20 c 0,14,15
 828 -20 828 -20 797 27 c 2,16,-1
 539 414 l 1,17,-1
 496 354 l 1,18,19
 389 209 389 209 389 119 c 0,20,21
 389 86 389 86 402 59 c 1,22,-1
 352 30 l 2,23,24
 264 -20 264 -20 211 -20 c 0,25,26
 150 -20 150 -20 150 43 c 0,27,28
 150 142 150 142 362 372 c 1,29,-1
 481 500 l 1,30,-1
 248 854 l 1,31,-1
 101 760 l 1,32,-1
 62 823 l 1,33,34
 81 869 81 869 181 952 c 0,35,36
 291 1044 291 1044 363 1044 c 0,37,38
 395 1044 395 1044 416 1016 c 1,39,-1
 662 651 l 1,40,41
 791 818 791 818 791 895 c 0,42,43
 791 920 791 920 784 938 c 2,44,-1
 772 969 l 1,0,1
EndSplineSet
EndChar

StartChar: y
Encoding: 121 121 91
Width: 1265
Flags: W
LayerCount: 2
Fore
SplineSet
967 764 m 0,0,1
 967 873 967 873 915 961 c 1,2,-1
 1047 1026 l 1,3,4
 1082 1042 1082 1042 1104 1042 c 0,5,6
 1167 1042 1167 1042 1167 936 c 0,7,8
 1167 824 1167 824 1122 693 c 128,-1,9
 1077 562 1077 562 1040.5 474 c 128,-1,10
 1004 386 1004 386 964.5 301.5 c 128,-1,11
 925 217 925 217 884 140 c 1,12,13
 741 -126 741 -126 682 -204 c 128,-1,14
 623 -282 623 -282 574.5 -330.5 c 128,-1,15
 526 -379 526 -379 470 -416 c 0,16,17
 348 -494 348 -494 201 -494 c 0,18,19
 107 -494 107 -494 62 -466 c 0,20,21
 43 -455 43 -455 43 -443 c 0,22,23
 43 -430 43 -430 47 -420 c 2,24,-1
 102 -272 l 1,25,-1
 232 -311 l 2,26,27
 288 -328 288 -328 333 -328 c 128,-1,28
 378 -328 378 -328 421 -301.5 c 128,-1,29
 464 -275 464 -275 502 -236 c 0,30,31
 571 -166 571 -166 623 -68 c 1,32,-1
 219 858 l 1,33,-1
 68 791 l 1,34,-1
 31 858 l 1,35,-1
 91 912 l 1,36,37
 237 1042 237 1042 344 1042 c 0,38,39
 406 1042 406 1042 420 995 c 0,40,41
 420 993 420 993 434 960 c 2,42,-1
 732 234 l 2,43,44
 750 193 750 193 756 180 c 1,45,46
 967 571 967 571 967 764 c 0,0,1
EndSplineSet
EndChar

StartChar: z
Encoding: 122 122 92
Width: 1112
Flags: W
LayerCount: 2
Fore
SplineSet
189 0 m 2,0,1
 109 0 109 0 109 82 c 2,2,-1
 109 135 l 1,3,-1
 737 913 l 1,4,5
 376 904 376 904 220 856 c 1,6,-1
 184 844 l 2,7,8
 171 840 171 840 156 840 c 1,9,-1
 129 958 l 2,10,11
 127 963 127 963 127 966 c 2,12,-1
 127 973 l 2,13,14
 127 1032 127 1032 217 1032 c 0,15,16
 255 1032 255 1032 304 1031.5 c 128,-1,17
 353 1031 353 1031 407 1030 c 2,18,-1
 518 1030 l 2,19,20
 575 1029 575 1029 664 1027.5 c 128,-1,21
 753 1026 753 1026 887 1024 c 1,22,23
 929 1022 929 1022 951 1003.5 c 128,-1,24
 973 985 973 985 973 942 c 2,25,-1
 973 891 l 1,26,-1
 340 121 l 1,27,-1
 541 121 l 2,28,29
 771 121 771 121 993 174 c 1,30,-1
 1010 66 l 1,31,-1
 1010 55 l 2,32,33
 1010 -8 1010 -8 912 -8 c 1,34,-1
 189 0 l 2,0,1
EndSplineSet
EndChar

StartChar: braceleft
Encoding: 123 123 93
Width: 646
Flags: W
LayerCount: 2
Fore
SplineSet
355 866 m 2,0,1
 355 760 355 760 296 695 c 0,2,3
 259 653 259 653 228 647 c 1,4,5
 293 625 293 625 332 534 c 0,6,7
 350 492 350 492 351 428 c 2,8,-1
 355 -29 l 2,9,10
 355 -106 355 -106 373 -123.5 c 128,-1,11
 391 -141 391 -141 410.5 -144 c 128,-1,12
 430 -147 430 -147 459 -147 c 2,13,-1
 572 -147 l 1,14,-1
 572 -162 l 2,15,16
 572 -207 572 -207 552.5 -224.5 c 128,-1,17
 533 -242 533 -242 490 -242 c 2,18,-1
 420 -242 l 2,19,20
 269 -242 269 -242 225 -136 c 0,21,22
 208 -95 208 -95 207 -31 c 2,23,-1
 203 430 l 1,24,25
 200 571 200 571 103 612 c 1,26,-1
 103 647 l 2,27,28
 103 673 103 673 122 691 c 2,29,-1
 155 722 l 1,30,31
 207 772 207 772 207 864 c 2,32,-1
 203 1325 l 1,33,34
 203 1328 203 1328 203 1331 c 0,35,36
 203 1536 203 1536 420 1536 c 2,37,-1
 490 1536 l 2,38,39
 533 1536 533 1536 552.5 1518.5 c 128,-1,40
 572 1501 572 1501 572 1456 c 2,41,-1
 572 1442 l 1,42,-1
 459 1442 l 2,43,44
 397 1442 397 1442 380 1427 c 0,45,46
 351 1401 351 1401 351 1331 c 0,47,48
 351 1327 351 1327 351 1323 c 1,49,-1
 355 866 l 2,0,1
EndSplineSet
EndChar

StartChar: bar
Encoding: 124 124 94
Width: 552
Flags: W
LayerCount: 2
Fore
SplineSet
350 -18 m 1,0,-1
 281 -18 l 2,1,2
 236 -18 236 -18 219.5 1 c 128,-1,3
 203 20 203 20 203 63 c 2,4,-1
 203 1536 l 1,5,-1
 270 1536 l 2,6,7
 315 1536 315 1536 332.5 1516.5 c 128,-1,8
 350 1497 350 1497 350 1454 c 2,9,-1
 350 -18 l 1,0,-1
EndSplineSet
EndChar

StartChar: braceright
Encoding: 125 125 95
Width: 647
Flags: W
LayerCount: 2
Fore
SplineSet
225 1536 m 2,0,1
 443 1536 443 1536 443 1331 c 0,2,3
 443 1328 443 1328 443 1325 c 1,4,-1
 438 864 l 1,5,6
 438 770 438 770 490 722 c 2,7,-1
 516 698 l 2,8,9
 543 672 543 672 543 647 c 2,10,-1
 543 612 l 1,11,12
 446 571 446 571 443 430 c 1,13,-1
 438 -31 l 2,14,15
 435 -203 435 -203 308 -233 c 0,16,17
 269 -242 269 -242 225 -242 c 2,18,-1
 156 -242 l 2,19,20
 112 -242 112 -242 93 -224.5 c 128,-1,21
 74 -207 74 -207 74 -162 c 2,22,-1
 74 -147 l 1,23,-1
 187 -147 l 2,24,25
 249 -147 249 -147 264 -132 c 0,26,27
 291 -106 291 -106 291 -29 c 2,28,-1
 295 428 l 2,29,30
 297 536 297 536 354 601 c 0,31,32
 385 636 385 636 418 647 c 1,33,34
 387 653 387 653 357 687 c 0,35,36
 291 760 291 760 291 866 c 2,37,-1
 295 1323 l 1,38,39
 295 1327 295 1327 295 1331 c 0,40,41
 295 1430 295 1430 235 1439 c 0,42,43
 214 1442 214 1442 187 1442 c 2,44,-1
 74 1442 l 1,45,-1
 74 1456 l 2,46,47
 74 1501 74 1501 93 1518.5 c 128,-1,48
 112 1536 112 1536 156 1536 c 2,49,-1
 225 1536 l 2,0,1
EndSplineSet
EndChar

StartChar: asciitilde
Encoding: 126 126 96
Width: 1273
Flags: W
LayerCount: 2
Fore
SplineSet
1049 588 m 0,0,1
 1102 525 1102 525 1102 494.5 c 128,-1,2
 1102 464 1102 464 1082 443 c 128,-1,3
 1062 422 1062 422 1030 407 c 0,4,5
 962 375 962 375 886.5 375 c 128,-1,6
 811 375 811 375 754.5 395 c 128,-1,7
 698 415 698 415 642.5 439.5 c 128,-1,8
 587 464 587 464 532 484 c 128,-1,9
 477 504 477 504 420 504 c 0,10,11
 320 504 320 504 238 389 c 1,12,13
 164 457 164 457 164 475 c 0,14,15
 164 500 164 500 194.5 533.5 c 128,-1,16
 225 567 225 567 256 588 c 0,17,18
 336 641 336 641 407 641 c 128,-1,19
 478 641 478 641 532 622 c 128,-1,20
 586 603 586 603 639 580 c 0,21,22
 778 518 778 518 839.5 518 c 128,-1,23
 901 518 901 518 936.5 528.5 c 128,-1,24
 972 539 972 539 997 552 c 128,-1,25
 1022 565 1022 565 1035.5 576 c 128,-1,26
 1049 587 1049 587 1049 588 c 0,0,1
EndSplineSet
EndChar

StartChar: exclamdown
Encoding: 161 161 98
Width: 633
Flags: W
LayerCount: 2
Fore
SplineSet
222 770 m 1,0,1
 253 793 253 793 298 793 c 128,-1,2
 343 793 343 793 366 773 c 128,-1,3
 389 753 389 753 392 705 c 2,4,-1
 431 66 l 2,5,6
 444 -141 444 -141 466 -231 c 1,7,8
 404 -268 404 -268 308 -268 c 0,9,10
 221 -268 221 -268 196 -215 c 0,11,12
 187 -196 187 -196 189 -168 c 2,13,-1
 226 516 l 2,14,15
 230 580 230 580 230 649.5 c 128,-1,16
 230 719 230 719 222 770 c 1,0,1
371 961 m 128,-1,18
 344 950 344 950 311.5 950 c 128,-1,19
 279 950 279 950 251.5 961 c 128,-1,20
 224 972 224 972 204 990 c 0,21,22
 163 1030 163 1030 163 1073.5 c 128,-1,23
 163 1117 163 1117 174 1143 c 128,-1,24
 185 1169 185 1169 204 1188 c 0,25,26
 247 1229 247 1229 295.5 1229 c 128,-1,27
 344 1229 344 1229 371 1218 c 128,-1,28
 398 1207 398 1207 417 1188 c 0,29,30
 457 1148 457 1148 457 1103.5 c 128,-1,31
 457 1059 457 1059 446.5 1034 c 128,-1,32
 436 1009 436 1009 417 990.5 c 128,-1,17
 398 972 398 972 371 961 c 128,-1,18
EndSplineSet
EndChar

StartChar: sterling
Encoding: 163 163 99
Width: 1231
Flags: W
LayerCount: 2
Fore
SplineSet
365 478 m 0,0,1
 365 560 365 560 338 690 c 1,2,-1
 123 690 l 1,3,-1
 123 735 l 2,4,5
 123 767 123 767 136 779 c 128,-1,6
 149 791 149 791 180 791 c 2,7,-1
 313 791 l 1,8,9
 293 869 293 869 275.5 945.5 c 128,-1,10
 258 1022 258 1022 258 1096.5 c 128,-1,11
 258 1171 258 1171 277 1227.5 c 128,-1,12
 296 1284 296 1284 329 1323.5 c 128,-1,13
 362 1363 362 1363 406 1388 c 128,-1,14
 450 1413 450 1413 501 1426 c 0,15,16
 590 1450 590 1450 660.5 1450 c 128,-1,17
 731 1450 731 1450 770.5 1447 c 128,-1,18
 810 1444 810 1444 857.5 1436.5 c 128,-1,19
 905 1429 905 1429 953.5 1416.5 c 128,-1,20
 1002 1404 1002 1404 1038 1385 c 0,21,22
 1094 1355 1094 1355 1094 1316 c 0,23,24
 1094 1299 1094 1299 1083 1280 c 2,25,-1
 999 1139 l 1,26,27
 908 1261 908 1261 770 1302 c 0,28,29
 721 1317 721 1317 677.5 1317 c 128,-1,30
 634 1317 634 1317 601 1303.5 c 128,-1,31
 568 1290 568 1290 542 1262 c 0,32,33
 483 1202 483 1202 483 1109 c 128,-1,34
 483 1016 483 1016 499 941 c 2,35,-1
 530 791 l 1,36,-1
 911 791 l 1,37,-1
 911 748 l 2,38,39
 911 716 911 716 898 703 c 128,-1,40
 885 690 885 690 854 690 c 2,41,-1
 551 690 l 1,42,43
 566 592 566 592 566 522 c 0,44,45
 566 468 566 468 557 431 c 0,46,47
 537 345 537 345 491.5 271 c 128,-1,48
 446 197 446 197 356 119 c 1,49,-1
 524 119 l 2,50,51
 776 119 776 119 1104 225 c 1,52,53
 1128 159 1128 159 1128 112 c 0,54,55
 1128 46 1128 46 1081 16 c 0,56,57
 1036 -12 1036 -12 668 -12 c 0,58,59
 560 -12 560 -12 426 -10 c 0,60,61
 245 -6 245 -6 189.5 -0.5 c 128,-1,62
 134 5 134 5 118 24 c 128,-1,63
 102 43 102 43 102 86 c 1,64,65
 365 231 365 231 365 478 c 0,0,1
EndSplineSet
EndChar

StartChar: brokenbar
Encoding: 166 166 100
Width: 530
Flags: W
LayerCount: 2
Fore
SplineSet
327 737 m 1,0,-1
 282 737 l 2,1,2
 237 737 237 737 220.5 756.5 c 128,-1,3
 204 776 204 776 204 819 c 2,4,-1
 204 1554 l 1,5,-1
 247 1554 l 2,6,7
 292 1554 292 1554 309.5 1535 c 128,-1,8
 327 1516 327 1516 327 1473 c 2,9,-1
 327 737 l 1,0,-1
327 -489 m 1,10,-1
 282 -489 l 2,11,12
 237 -489 237 -489 220.5 -470 c 128,-1,13
 204 -451 204 -451 204 -408 c 2,14,-1
 204 328 l 1,15,-1
 247 328 l 2,16,17
 292 328 292 328 309.5 308.5 c 128,-1,18
 327 289 327 289 327 246 c 2,19,-1
 327 -489 l 1,10,-1
EndSplineSet
EndChar

StartChar: dieresis
Encoding: 168 168 101
Width: 1026
Flags: W
LayerCount: 2
Fore
SplineSet
235.5 1485 m 128,-1,1
 266 1516 266 1516 303 1516 c 128,-1,2
 340 1516 340 1516 361.5 1507.5 c 128,-1,3
 383 1499 383 1499 398 1485 c 0,4,5
 430 1455 430 1455 430 1410 c 128,-1,6
 430 1365 430 1365 398 1334 c 128,-1,7
 366 1303 366 1303 316 1303 c 128,-1,8
 266 1303 266 1303 235.5 1334 c 128,-1,9
 205 1365 205 1365 205 1409.5 c 128,-1,0
 205 1454 205 1454 235.5 1485 c 128,-1,1
626.5 1485 m 128,-1,11
 657 1516 657 1516 694.5 1516 c 128,-1,12
 732 1516 732 1516 753 1507.5 c 128,-1,13
 774 1499 774 1499 789 1485 c 0,14,15
 821 1455 821 1455 821 1410 c 128,-1,16
 821 1365 821 1365 789.5 1334 c 128,-1,17
 758 1303 758 1303 707.5 1303 c 128,-1,18
 657 1303 657 1303 626.5 1334 c 128,-1,19
 596 1365 596 1365 596 1409.5 c 128,-1,10
 596 1454 596 1454 626.5 1485 c 128,-1,11
EndSplineSet
EndChar

StartChar: copyright
Encoding: 169 169 102
Width: 1818
Flags: W
LayerCount: 2
Fore
SplineSet
1233 346 m 1,0,1
 1109 264 1109 264 928 264 c 0,2,3
 740 264 740 264 611 378 c 0,4,5
 476 496 476 496 476 686 c 0,6,7
 476 883 476 883 617 1004 c 0,8,9
 751 1118 751 1118 959 1118 c 0,10,11
 1088 1118 1088 1118 1158 1079 c 0,12,13
 1182 1066 1182 1066 1182 1049 c 0,14,15
 1182 1042 1182 1042 1175 1028 c 2,16,-1
 1121 926 l 1,17,-1
 1062 957 l 1,18,19
 937 1024 937 1024 871.5 1024 c 128,-1,20
 806 1024 806 1024 767.5 999 c 128,-1,21
 729 974 729 974 704 934 c 0,22,23
 656 857 656 857 656 754 c 128,-1,24
 656 651 656 651 682 580 c 128,-1,25
 708 509 708 509 754 461 c 0,26,27
 844 365 844 365 981 365 c 128,-1,28
 1118 365 1118 365 1209 399 c 1,29,-1
 1233 346 l 1,0,1
265 403.5 m 128,-1,31
 316 274 316 274 408 186 c 0,32,33
 595 6 595 6 910 6 c 0,34,35
 1223 6 1223 6 1410 186 c 0,36,37
 1604 372 1604 372 1604 700 c 0,38,39
 1604 1030 1604 1030 1410 1216 c 0,40,41
 1222 1397 1222 1397 910 1397 c 0,42,43
 596 1397 596 1397 408 1216 c 0,44,45
 214 1030 214 1030 214 702 c 0,46,30
 214 533 214 533 265 403.5 c 128,-1,31
1646 371 m 0,47,48
 1585 224 1585 224 1478 120 c 0,49,50
 1254 -96 1254 -96 908 -96 c 256,51,52
 562 -96 562 -96 340 120 c 0,53,54
 111 343 111 343 111 700 c 0,55,56
 111 1059 111 1059 340 1282 c 0,57,58
 562 1499 562 1499 908 1499 c 256,59,60
 1255 1499 1255 1499 1478 1282 c 0,61,62
 1707 1060 1707 1060 1707 702 c 0,63,64
 1707 518 1707 518 1646 371 c 0,47,48
EndSplineSet
EndChar

StartChar: ordfeminine
Encoding: 170 170 103
Width: 826
Flags: W
LayerCount: 2
Fore
SplineSet
754 815 m 1,0,1
 701 786 701 786 599 786 c 128,-1,2
 497 786 497 786 494 848 c 1,3,-1
 494 856 l 1,4,5
 381 778 381 778 281 778 c 0,6,7
 139 778 139 778 89 884 c 0,8,9
 72 921 72 921 72 971 c 0,10,11
 72 1171 72 1171 404 1171 c 2,12,-1
 494 1171 l 1,13,-1
 494 1221 l 2,14,15
 494 1310 494 1310 480 1343 c 0,16,17
 454 1407 454 1407 394 1407 c 0,18,19
 311 1407 311 1407 204 1326 c 1,20,-1
 152 1286 l 1,21,-1
 99 1356 l 2,22,23
 91 1367 91 1367 91 1384.5 c 128,-1,24
 91 1402 91 1402 117.5 1419.5 c 128,-1,25
 144 1437 144 1437 184 1450 c 0,26,27
 264 1475 264 1475 339 1475 c 128,-1,28
 414 1475 414 1475 466.5 1461 c 128,-1,29
 519 1447 519 1447 558 1416 c 0,30,31
 644 1350 644 1350 644 1221 c 2,32,-1
 644 862 l 1,33,-1
 754 862 l 1,34,-1
 754 815 l 1,0,1
247.5 903 m 128,-1,36
 275 874 275 874 328 874 c 128,-1,37
 381 874 381 874 494 913 c 1,38,-1
 494 1094 l 1,39,-1
 388 1094 l 2,40,41
 280 1094 280 1094 237 1036 c 0,42,43
 220 1014 220 1014 220 973 c 128,-1,35
 220 932 220 932 247.5 903 c 128,-1,36
EndSplineSet
EndChar

StartChar: guillemotleft
Encoding: 171 171 104
Width: 981
Flags: W
LayerCount: 2
Fore
SplineSet
453 526 m 1,0,1
 453 574 453 574 489 618 c 2,2,-1
 692 870 l 2,3,4
 710 891 710 891 721.5 891 c 128,-1,5
 733 891 733 891 740.5 888 c 128,-1,6
 748 885 748 885 760 876.5 c 128,-1,7
 772 868 772 868 790 854 c 2,8,-1
 834 817 l 1,9,-1
 627 555 l 1,10,-1
 834 297 l 1,11,12
 809 274 809 274 793 258 c 128,-1,13
 777 242 777 242 766 232 c 0,14,15
 744 213 744 213 729 213 c 128,-1,16
 714 213 714 213 698 233 c 2,17,-1
 453 526 l 1,0,1
115 526 m 1,18,19
 115 572 115 572 152 618 c 2,20,-1
 403 930 l 1,21,22
 422 950 422 950 433 950 c 128,-1,23
 444 950 444 950 452 947 c 128,-1,24
 460 944 460 944 472 935.5 c 128,-1,25
 484 927 484 927 502 913 c 2,26,-1
 545 877 l 1,27,-1
 289 555 l 1,28,-1
 543 240 l 1,29,30
 518 217 518 217 502 201 c 128,-1,31
 486 185 486 185 474 175 c 0,32,33
 453 156 453 156 439 156 c 128,-1,34
 425 156 425 156 408 176 c 2,35,-1
 115 526 l 1,18,19
EndSplineSet
EndChar

StartChar: logicalnot
Encoding: 172 172 105
Width: 1222
Flags: W
LayerCount: 2
Fore
SplineSet
895 662 m 1,0,-1
 150 662 l 1,1,-1
 150 725 l 2,2,3
 150 770 150 770 169.5 786.5 c 128,-1,4
 189 803 189 803 232 803 c 2,5,-1
 1037 803 l 1,6,-1
 1037 244 l 1,7,-1
 975 244 l 2,8,9
 930 244 930 244 912.5 263 c 128,-1,10
 895 282 895 282 895 326 c 2,11,-1
 895 662 l 1,0,-1
EndSplineSet
EndChar

StartChar: uni00AD
Encoding: 173 173 106
Width: 867
Flags: W
LayerCount: 2
Fore
SplineSet
159 471 m 1,0,-1
 159 565 l 2,1,2
 159 610 159 610 178.5 626.5 c 128,-1,3
 198 643 198 643 241 643 c 2,4,-1
 710 643 l 1,5,-1
 710 551 l 2,6,7
 710 506 710 506 690.5 488.5 c 128,-1,8
 671 471 671 471 628 471 c 2,9,-1
 159 471 l 1,0,-1
EndSplineSet
EndChar

StartChar: registered
Encoding: 174 174 107
Width: 1818
Flags: W
LayerCount: 2
Fore
SplineSet
1235 862 m 0,0,1
 1235 677 1235 677 1070 621 c 1,2,-1
 1244 367 l 1,3,-1
 1338 436 l 1,4,-1
 1367 397 l 1,5,6
 1302 310 1302 310 1235 274 c 0,7,8
 1209 260 1209 260 1189 260 c 0,9,10
 1146 260 1146 260 1121 301 c 2,11,-1
 934 600 l 1,12,-1
 777 600 l 1,13,-1
 777 274 l 1,14,-1
 678 274 l 2,15,16
 652 274 652 274 642.5 285.5 c 128,-1,17
 633 297 633 297 633 322 c 2,18,-1
 633 1038 l 1,19,-1
 519 1038 l 1,20,-1
 519 1085 l 1,21,22
 571 1114 571 1114 695 1114 c 2,23,-1
 918 1114 l 2,24,25
 1145 1114 1145 1114 1212 970 c 0,26,27
 1235 923 1235 923 1235 862 c 0,0,1
777 682 m 1,28,-1
 918 682 l 2,29,30
 1004 682 1004 682 1050 740 c 0,31,32
 1090 789 1090 789 1090 858 c 0,33,34
 1090 926 1090 926 1062 963 c 0,35,36
 1009 1034 1009 1034 934 1034 c 2,37,-1
 777 1034 l 1,38,-1
 777 682 l 1,28,-1
265 403.5 m 128,-1,40
 316 274 316 274 408 186 c 0,41,42
 595 6 595 6 910 6 c 0,43,44
 1223 6 1223 6 1410 186 c 0,45,46
 1604 372 1604 372 1604 700 c 0,47,48
 1604 1030 1604 1030 1410 1216 c 0,49,50
 1222 1397 1222 1397 910 1397 c 0,51,52
 596 1397 596 1397 408 1216 c 0,53,54
 214 1030 214 1030 214 702 c 0,55,39
 214 533 214 533 265 403.5 c 128,-1,40
1646 371 m 0,56,57
 1585 224 1585 224 1478 120 c 0,58,59
 1254 -96 1254 -96 908 -96 c 256,60,61
 562 -96 562 -96 340 120 c 0,62,63
 111 343 111 343 111 700 c 0,64,65
 111 1059 111 1059 340 1282 c 0,66,67
 562 1499 562 1499 908 1499 c 256,68,69
 1255 1499 1255 1499 1478 1282 c 0,70,71
 1707 1060 1707 1060 1707 702 c 0,72,73
 1707 518 1707 518 1646 371 c 0,56,57
EndSplineSet
EndChar

StartChar: macron
Encoding: 175 175 108
Width: 1051
Flags: W
LayerCount: 2
Fore
SplineSet
82 1161 m 1,0,-1
 82 1225 l 2,1,2
 82 1270 82 1270 101 1286.5 c 128,-1,3
 120 1303 120 1303 164 1303 c 2,4,-1
 969 1303 l 1,5,-1
 969 1241 l 2,6,7
 969 1196 969 1196 949.5 1178.5 c 128,-1,8
 930 1161 930 1161 887 1161 c 2,9,-1
 82 1161 l 1,0,-1
EndSplineSet
EndChar

StartChar: degree
Encoding: 176 176 109
Width: 895
Flags: W
LayerCount: 2
Fore
SplineSet
126 1092 m 256,0,1
 126 1226 126 1226 219.5 1319.5 c 128,-1,2
 313 1413 313 1413 447 1413 c 256,3,4
 582 1413 582 1413 675.5 1319.5 c 128,-1,5
 769 1226 769 1226 769 1092 c 256,6,7
 769 957 769 957 675.5 863.5 c 128,-1,8
 582 770 582 770 447 770 c 256,9,10
 313 770 313 770 219.5 863.5 c 128,-1,11
 126 957 126 957 126 1092 c 256,0,1
232 1092 m 0,12,13
 232 1047 232 1047 249 1008 c 128,-1,14
 266 969 266 969 295 940 c 0,15,16
 358 877 358 877 447 877 c 128,-1,17
 536 877 536 877 599 940 c 128,-1,18
 662 1003 662 1003 662 1092 c 0,19,20
 662 1179 662 1179 599 1244 c 0,21,22
 537 1307 537 1307 447 1307 c 128,-1,23
 357 1307 357 1307 295 1244 c 0,24,25
 232 1179 232 1179 232 1092 c 0,12,13
EndSplineSet
EndChar

StartChar: plusminus
Encoding: 177 177 110
Width: 1196
Flags: W
LayerCount: 2
Fore
SplineSet
667 721 m 1,0,-1
 667 348 l 1,1,-1
 604 348 l 2,2,3
 559 348 559 348 542.5 367.5 c 128,-1,4
 526 387 526 387 526 430 c 2,5,-1
 526 721 l 1,6,-1
 153 721 l 1,7,-1
 153 784 l 2,8,9
 153 829 153 829 172.5 845.5 c 128,-1,10
 192 862 192 862 235 862 c 2,11,-1
 526 862 l 1,12,-1
 526 1235 l 1,13,-1
 588 1235 l 2,14,15
 633 1235 633 1235 650 1215.5 c 128,-1,16
 667 1196 667 1196 667 1153 c 2,17,-1
 667 862 l 1,18,-1
 1040 862 l 1,19,-1
 1040 801 l 2,20,21
 1040 756 1040 756 1021 738.5 c 128,-1,22
 1002 721 1002 721 958 721 c 2,23,-1
 667 721 l 1,0,-1
153 61 m 1,24,-1
 153 125 l 2,25,26
 153 170 153 170 172.5 186.5 c 128,-1,27
 192 203 192 203 235 203 c 2,28,-1
 1040 203 l 1,29,-1
 1040 141 l 2,30,31
 1040 96 1040 96 1021 78.5 c 128,-1,32
 1002 61 1002 61 958 61 c 2,33,-1
 153 61 l 1,24,-1
EndSplineSet
EndChar

StartChar: acute
Encoding: 180 180 111
Width: 555
Flags: W
LayerCount: 2
Fore
SplineSet
129 1243 m 2,0,1
 90 1243 90 1243 90 1270 c 0,2,3
 90 1290 90 1290 111 1327 c 2,4,-1
 250 1573 l 1,5,-1
 397 1573 l 2,6,7
 461 1573 461 1573 461 1528 c 0,8,9
 461 1503 461 1503 426 1473 c 1,10,-1
 201 1243 l 1,11,-1
 129 1243 l 2,0,1
EndSplineSet
EndChar

StartChar: paragraph
Encoding: 182 182 112
Width: 1331
Flags: W
LayerCount: 2
Fore
SplineSet
558 -248 m 0,0,1
 444 -248 444 -248 355 -201 c 1,2,-1
 355 -125 l 1,3,-1
 543 -125 l 1,4,-1
 543 772 l 1,5,6
 326 772 326 772 213 845 c 0,7,8
 72 936 72 936 72 1153 c 256,9,10
 72 1369 72 1369 213 1462 c 0,11,12
 327 1536 327 1536 543 1536 c 2,13,-1
 1029 1536 l 2,14,15
 1140 1536 1140 1536 1231 1489 c 1,16,-1
 1231 1413 l 1,17,-1
 1043 1413 l 1,18,-1
 1043 -125 l 1,19,-1
 1231 -125 l 1,20,-1
 1231 -201 l 1,21,22
 1140 -248 1140 -248 1029 -248 c 0,23,24
 926 -248 926 -248 900 -200 c 0,25,26
 889 -182 889 -182 889 -152 c 2,27,-1
 889 1413 l 1,28,-1
 697 1413 l 1,29,-1
 697 -152 l 2,30,31
 697 -231 697 -231 613 -244 c 0,32,33
 588 -248 588 -248 558 -248 c 0,0,1
EndSplineSet
EndChar

StartChar: periodcentered
Encoding: 183 183 113
Width: 630
Flags: W
LayerCount: 2
Fore
SplineSet
254 751 m 128,-1,1
 281 762 281 762 313.5 762 c 128,-1,2
 346 762 346 762 373.5 751 c 128,-1,3
 401 740 401 740 421 722 c 0,4,5
 463 683 463 683 463 639 c 128,-1,6
 463 595 463 595 452 569 c 128,-1,7
 441 543 441 543 421 524 c 0,8,9
 378 483 378 483 329.5 483 c 128,-1,10
 281 483 281 483 254 494 c 128,-1,11
 227 505 227 505 208 524 c 0,12,13
 168 564 168 564 168 608.5 c 128,-1,14
 168 653 168 653 178.5 678 c 128,-1,15
 189 703 189 703 208 721.5 c 128,-1,0
 227 740 227 740 254 751 c 128,-1,1
EndSplineSet
EndChar

StartChar: cedilla
Encoding: 184 184 114
Width: 1063
Flags: W
LayerCount: 2
Fore
SplineSet
307 -365 m 1,0,1
 381 -381 381 -381 443.5 -381 c 128,-1,2
 506 -381 506 -381 538.5 -350.5 c 128,-1,3
 571 -320 571 -320 571 -278 c 128,-1,4
 571 -236 571 -236 559.5 -213.5 c 128,-1,5
 548 -191 548 -191 528 -176 c 0,6,7
 487 -145 487 -145 418 -141 c 1,8,-1
 461 18 l 1,9,-1
 557 18 l 1,10,-1
 537 -70 l 1,11,12
 637 -78 637 -78 686 -127.5 c 128,-1,13
 735 -177 735 -177 735 -251 c 128,-1,14
 735 -325 735 -325 712 -370 c 128,-1,15
 689 -415 689 -415 652 -442 c 0,16,17
 582 -492 582 -492 471 -492 c 0,18,19
 388 -492 388 -492 359 -474 c 0,20,21
 307 -439 307 -439 307 -365 c 1,0,1
EndSplineSet
EndChar

StartChar: guillemotright
Encoding: 187 187 115
Width: 980
Flags: W
LayerCount: 2
Fore
SplineSet
527 526 m 1,0,-1
 281 233 l 1,1,2
 266 213 266 213 249 213 c 256,3,4
 232 213 232 213 202 244 c 2,5,-1
 146 297 l 1,6,-1
 353 555 l 1,7,-1
 146 817 l 1,8,-1
 190 854 l 2,9,10
 235 891 235 891 252.5 891 c 128,-1,11
 270 891 270 891 288 870 c 2,12,-1
 490 618 l 2,13,14
 527 572 527 572 527 526 c 1,0,-1
865 526 m 1,15,-1
 572 176 l 2,16,17
 555 156 555 156 543 156 c 128,-1,18
 531 156 531 156 523.5 160.5 c 128,-1,19
 516 165 516 165 505 175 c 128,-1,20
 494 185 494 185 478 201 c 128,-1,21
 462 217 462 217 437 240 c 1,22,-1
 691 555 l 1,23,-1
 435 877 l 1,24,-1
 478 913 l 2,25,26
 525 950 525 950 542 950 c 128,-1,27
 559 950 559 950 576 930 c 2,28,-1
 828 618 l 2,29,30
 865 572 865 572 865 526 c 1,15,-1
EndSplineSet
EndChar

StartChar: onehalf
Encoding: 189 189 116
Width: 1710
Flags: W
LayerCount: 2
Fore
SplineSet
1446 371 m 1,0,-1
 1305 229 l 1,1,-1
 1155 92 l 1,2,-1
 1243 92 l 1,3,4
 1404 96 1404 96 1583 180 c 0,5,6
 1582 180 1582 180 1584.5 169.5 c 128,-1,7
 1587 159 1587 159 1590 143 c 2,8,-1
 1596 110 l 2,9,10
 1599 92 1599 92 1599 67.5 c 128,-1,11
 1599 43 1599 43 1584 25 c 128,-1,12
 1569 7 1569 7 1535 -0.5 c 128,-1,13
 1501 -8 1501 -8 1444 -8 c 2,14,-1
 1306 -8 l 258,15,16
 1224 -8 1224 -8 1161 -9 c 0,17,18
 1148 -9 1148 -9 1137 -9 c 0,19,20
 1090 -9 1090 -9 1056 -6 c 0,21,22
 1013 -2 1013 -2 991 11 c 128,-1,23
 969 24 969 24 969 53 c 1,24,25
 1011 101 1011 101 1060 152 c 0,26,27
 1202 300 1202 300 1249 353 c 128,-1,28
 1296 406 1296 406 1330 456 c 0,29,30
 1407 567 1407 567 1407 636 c 0,31,32
 1407 786 1407 786 1268 786 c 0,33,34
 1176 786 1176 786 1098 698 c 2,35,-1
 1069 664 l 1,36,-1
 1005 754 l 2,37,38
 997 765 997 765 997 781 c 128,-1,39
 997 797 997 797 1025 816 c 128,-1,40
 1053 835 1053 835 1094 850 c 0,41,42
 1185 881 1185 881 1268 881 c 128,-1,43
 1351 881 1351 881 1409.5 860 c 128,-1,44
 1468 839 1468 839 1506 804 c 0,45,46
 1579 735 1579 735 1579 639.5 c 128,-1,47
 1579 544 1579 544 1536 483 c 128,-1,48
 1493 422 1493 422 1446 371 c 1,0,-1
319 557 m 0,49,50
 248 557 248 557 248 618 c 2,51,-1
 248 1337 l 1,52,-1
 88 1280 l 1,53,-1
 67 1354 l 1,54,55
 152 1412 152 1412 266 1440 c 0,56,57
 303 1450 303 1450 335.5 1450 c 128,-1,58
 368 1450 368 1450 377.5 1440 c 128,-1,59
 387 1430 387 1430 387 1405 c 2,60,-1
 387 762 l 2,61,62
 387 683 387 683 394 640 c 2,63,-1
 405 578 l 1,64,65
 371 557 371 557 319 557 c 0,49,50
1069 1413 m 2,66,67
 1134 1413 1134 1413 1134 1380 c 0,68,69
 1134 1360 1134 1360 1120 1331 c 2,70,-1
 506 0 l 1,71,-1
 440 0 l 2,72,73
 389 0 389 0 389 27 c 0,74,75
 389 44 389 44 407 82 c 2,76,-1
 1022 1413 l 1,77,-1
 1069 1413 l 2,66,67
EndSplineSet
EndChar

StartChar: questiondown
Encoding: 191 191 117
Width: 964
Flags: W
LayerCount: 2
Fore
SplineSet
579 840 m 128,-1,1
 552 829 552 829 519.5 829 c 128,-1,2
 487 829 487 829 459.5 840 c 128,-1,3
 432 851 432 851 412 870 c 0,4,5
 370 908 370 908 370 952.5 c 128,-1,6
 370 997 370 997 381 1023 c 128,-1,7
 392 1049 392 1049 412 1068 c 0,8,9
 456 1108 456 1108 504 1108 c 128,-1,10
 552 1108 552 1108 579 1097 c 128,-1,11
 606 1086 606 1086 625 1068 c 0,12,13
 665 1029 665 1029 665 983.5 c 128,-1,14
 665 938 665 938 654.5 913 c 128,-1,15
 644 888 644 888 625 869.5 c 128,-1,0
 606 851 606 851 579 840 c 128,-1,1
408 669 m 0,16,17
 422 680 422 680 444.5 680 c 128,-1,18
 467 680 467 680 497 670 c 1,19,20
 673 620 673 620 673 471 c 0,21,22
 673 392 673 392 579 304 c 0,23,24
 539 266 539 266 492 229 c 128,-1,25
 445 192 445 192 405 150 c 0,26,27
 311 51 311 51 311 -53 c 0,28,29
 311 -128 311 -128 358 -178 c 0,30,31
 407 -231 407 -231 491 -231 c 0,32,33
 572 -231 572 -231 762 -141 c 0,34,35
 827 -110 827 -110 827 -106 c 1,36,-1
 889 -246 l 1,37,38
 897 -271 897 -271 897 -286.5 c 128,-1,39
 897 -302 897 -302 878.5 -318.5 c 128,-1,40
 860 -335 860 -335 830.5 -346.5 c 128,-1,41
 801 -358 801 -358 763.5 -365.5 c 128,-1,42
 726 -373 726 -373 688 -378 c 0,43,44
 626 -385 626 -385 541.5 -385 c 128,-1,45
 457 -385 457 -385 369 -362.5 c 128,-1,46
 281 -340 281 -340 217 -295 c 0,47,48
 80 -199 80 -199 80 -25 c 0,49,50
 80 100 80 100 200 206 c 0,51,52
 252 252 252 252 313.5 292.5 c 128,-1,53
 375 333 375 333 416 366 c 0,54,55
 489 424 489 424 489 473 c 0,56,57
 489 527 489 527 387 559 c 0,58,59
 368 565 368 565 368 571 c 0,60,61
 368 638 368 638 408 669 c 0,16,17
EndSplineSet
EndChar

StartChar: multiply
Encoding: 215 215 118
Width: 1103
Flags: W
LayerCount: 2
Fore
SplineSet
547 821 m 1,0,-1
 879 1153 l 1,1,-1
 918 1116 l 2,2,3
 945 1090 945 1090 945 1066.5 c 128,-1,4
 945 1043 945 1043 916 1016 c 1,5,-1
 636 735 l 1,6,-1
 967 403 l 1,7,-1
 928 365 l 1,8,9
 902 338 902 338 879.5 338 c 128,-1,10
 857 338 857 338 830 367 c 1,11,-1
 547 647 l 1,12,-1
 218 317 l 1,13,-1
 179 356 l 2,14,15
 150 385 150 385 150 400 c 0,16,17
 150 424 150 424 181 455 c 2,18,-1
 461 735 l 1,19,-1
 132 1065 l 1,20,-1
 169 1102 l 2,21,22
 197 1130 197 1130 214 1130 c 0,23,24
 241 1130 241 1130 269 1102 c 2,25,-1
 547 821 l 1,0,-1
EndSplineSet
EndChar

StartChar: Thorn
Encoding: 222 222 119
Width: 1335
Flags: W
LayerCount: 2
Fore
SplineSet
531 16 m 1,0,1
 467 -18 467 -18 397 -18 c 128,-1,2
 327 -18 327 -18 293 3.5 c 128,-1,3
 259 25 259 25 257 82 c 1,4,-1
 257 1307 l 1,5,-1
 64 1307 l 1,6,-1
 64 1386 l 1,7,8
 150 1432 150 1432 361 1432 c 0,9,10
 443 1432 443 1432 462 1426 c 0,11,12
 492 1417 492 1417 492 1380 c 2,13,-1
 492 1174 l 1,14,15
 624 1180 624 1180 715.5 1180 c 128,-1,16
 807 1180 807 1180 908 1160.5 c 128,-1,17
 1009 1141 1009 1141 1084 1090 c 0,18,19
 1248 981 1248 981 1248 729 c 0,20,21
 1248 526 1248 526 1117 412.5 c 128,-1,22
 986 299 986 299 752 299 c 2,23,-1
 714 299 l 2,24,25
 599 299 599 299 494 309 c 1,26,27
 494 133 494 133 522 49 c 0,28,29
 528 31 528 31 531 16 c 1,0,1
494 449 m 1,30,31
 552 428 552 428 662.5 428 c 128,-1,32
 773 428 773 428 839 453 c 128,-1,33
 905 478 905 478 942 520 c 0,34,35
 1008 593 1008 593 1008 729 c 0,36,37
 1008 904 1008 904 922 978 c 0,38,39
 840 1049 840 1049 654 1049 c 0,40,41
 558 1049 558 1049 492 1038 c 1,42,-1
 492 449 l 1,43,-1
 494 449 l 1,30,31
EndSplineSet
EndChar

StartChar: germandbls
Encoding: 223 223 120
Width: 1440
Flags: W
LayerCount: 2
Fore
SplineSet
484 301 m 2,0,1
 484 130 484 130 513 14 c 1,2,3
 469 -11 469 -11 417 -14 c 0,4,5
 386 -17 386 -17 363 -17 c 0,6,7
 347 -17 347 -17 335 -16 c 0,8,9
 305 -13 305 -13 278.5 7.5 c 128,-1,10
 252 28 252 28 252 78 c 2,11,-1
 252 924 l 1,12,-1
 250 922 l 1,13,-1
 58 922 l 1,14,-1
 58 969 l 2,15,16
 58 1000 58 1000 72 1012 c 128,-1,17
 86 1024 86 1024 117 1024 c 2,18,-1
 250 1024 l 1,19,-1
 250 1055 l 2,20,21
 250 1271 250 1271 404 1408 c 0,22,23
 547 1536 547 1536 746 1536 c 0,24,25
 982 1536 982 1536 1104 1410 c 0,26,27
 1219 1291 1219 1291 1219 1076 c 0,28,29
 1219 1073 1219 1073 1219 1069 c 1,30,-1
 1217 950 l 1,31,-1
 1168 957 l 2,32,33
 1102 967 1102 967 1047 967 c 0,34,35
 908 967 908 967 851 903 c 0,36,37
 826 875 826 875 826 834 c 128,-1,38
 826 793 826 793 844 763.5 c 128,-1,39
 862 734 862 734 890 709 c 0,40,41
 935 669 935 669 1006 633 c 2,42,-1
 1136 569 l 1,43,44
 1267 506 1267 506 1320 418 c 0,45,46
 1350 368 1350 368 1350 303 c 128,-1,47
 1350 238 1350 238 1334 192 c 128,-1,48
 1318 146 1318 146 1290.5 111 c 128,-1,49
 1263 76 1263 76 1226 51.5 c 128,-1,50
 1189 27 1189 27 1147 12 c 0,51,52
 1065 -19 1065 -19 977 -19 c 0,53,54
 867 -19 867 -19 750 28 c 0,55,56
 716 42 716 42 695 53.5 c 128,-1,57
 674 65 674 65 658 72.5 c 128,-1,58
 642 80 642 80 632 90 c 0,59,60
 608 113 608 113 623 143 c 1,61,-1
 703 254 l 1,62,-1
 761 207 l 1,63,64
 903 90 903 90 1014 90 c 0,65,66
 1067 90 1067 90 1094 118 c 0,67,68
 1143 169 1143 169 1143 238 c 1,69,70
 1145 332 1145 332 996 414 c 1,71,-1
 830 501 l 1,72,73
 646 598 646 598 646 782 c 0,74,75
 646 992 646 992 881 1046 c 0,76,77
 951 1062 951 1062 1029 1067 c 1,78,79
 1029 1444 1029 1444 760 1444 c 0,80,81
 571 1444 571 1444 508 1241 c 0,82,83
 484 1166 484 1166 484 1055 c 2,84,-1
 484 301 l 2,0,1
EndSplineSet
EndChar

StartChar: divide
Encoding: 247 247 121
Width: 1172
Flags: W
LayerCount: 2
Fore
SplineSet
121 563 m 1,0,-1
 121 627 l 2,1,2
 121 672 121 672 140.5 688.5 c 128,-1,3
 160 705 160 705 203 705 c 2,4,-1
 1049 705 l 1,5,-1
 1049 643 l 2,6,7
 1049 598 1049 598 1029.5 580.5 c 128,-1,8
 1010 563 1010 563 967 563 c 2,9,-1
 121 563 l 1,0,-1
721 361.5 m 128,-1,11
 721 318 721 318 710 292 c 128,-1,12
 699 266 699 266 680 248 c 0,13,14
 637 207 637 207 588.5 207 c 128,-1,15
 540 207 540 207 513 218 c 128,-1,16
 486 229 486 229 466 248 c 0,17,18
 426 286 426 286 426 348 c 0,19,20
 426 406 426 406 466 445 c 0,21,22
 508 485 508 485 556 485 c 0,23,24
 638 485 638 485 679.5 445 c 128,-1,10
 721 405 721 405 721 361.5 c 128,-1,11
721 945.5 m 128,-1,26
 721 902 721 902 710 876 c 128,-1,27
 699 850 699 850 680 832 c 0,28,29
 637 791 637 791 588.5 791 c 128,-1,30
 540 791 540 791 513 802 c 128,-1,31
 486 813 486 813 466 832 c 0,32,33
 426 870 426 870 426 932 c 0,34,35
 426 990 426 990 466 1029 c 0,36,37
 508 1069 508 1069 556 1069 c 0,38,39
 638 1069 638 1069 679.5 1029 c 128,-1,25
 721 989 721 989 721 945.5 c 128,-1,26
EndSplineSet
EndChar

StartChar: dotlessi
Encoding: 305 305 122
Width: 715
Flags: W
LayerCount: 2
Fore
SplineSet
473 100 m 1,0,-1
 647 100 l 1,1,-1
 647 25 l 1,2,3
 566 -18 566 -18 385 -18 c 0,4,5
 315 -18 315 -18 289 -4 c 0,6,7
 242 22 242 22 242 78 c 2,8,-1
 242 922 l 1,9,-1
 66 922 l 1,10,-1
 66 997 l 1,11,12
 162 1038 162 1038 387 1038 c 0,13,14
 435 1038 435 1038 448 1033 c 0,15,16
 473 1023 473 1023 473 985 c 2,17,-1
 473 100 l 1,0,-1
EndSplineSet
EndChar

StartChar: OE
Encoding: 338 338 123
Width: 2239
Flags: W
LayerCount: 2
Fore
SplineSet
2113 219 m 1,0,1
 2131 172 2131 172 2131 124.5 c 128,-1,2
 2131 77 2131 77 2113 47.5 c 128,-1,3
 2095 18 2095 18 2047 5 c 0,4,5
 1981 -13 1981 -13 1736 -13 c 0,6,7
 1615 -13 1615 -13 1450 -8 c 0,8,9
 1352 -6 1352 -6 1293.5 -0.5 c 128,-1,10
 1235 5 1235 5 1219 24 c 128,-1,11
 1203 43 1203 43 1203 86 c 2,12,-1
 1203 104 l 1,13,14
 1037 -39 1037 -39 787 -39 c 0,15,16
 484 -39 484 -39 306 168 c 0,17,18
 132 371 132 371 132 705 c 256,19,20
 132 1039 132 1039 306 1242 c 0,21,22
 485 1450 485 1450 787 1450 c 0,23,24
 1035 1450 1035 1450 1203 1307 c 1,25,-1
 1203 1399 l 1,26,27
 1402 1423 1402 1423 1648 1423 c 0,28,29
 2137 1423 2137 1423 2137 1325 c 0,30,31
 2137 1296 2137 1296 2093.5 1226.5 c 128,-1,32
 2050 1157 2050 1157 2045 1151 c 1,33,34
 1965 1216 1965 1216 1817 1252 c 0,35,36
 1741 1270 1741 1270 1639 1270 c 2,37,-1
 1439 1270 l 1,38,-1
 1439 801 l 1,39,-1
 1926 801 l 1,40,-1
 1926 752 l 2,41,42
 1926 699 1926 699 1903.5 679 c 128,-1,43
 1881 659 1881 659 1832 659 c 2,44,-1
 1439 659 l 1,45,-1
 1439 141 l 1,46,-1
 1598 141 l 2,47,48
 1881 141 1881 141 2113 219 c 1,0,1
392 699 m 0,49,50
 392 570 392 570 413 456.5 c 128,-1,51
 434 343 434 343 481 261 c 0,52,53
 580 88 580 88 787 88 c 0,54,55
 994 88 994 88 1102 262 c 0,56,57
 1201 424 1201 424 1201 705 c 0,58,59
 1201 976 1201 976 1103 1141 c 0,60,61
 995 1323 995 1323 787 1323 c 256,62,63
 584 1323 584 1323 481 1137 c 0,64,65
 392 976 392 976 392 699 c 0,49,50
EndSplineSet
EndChar

StartChar: oe
Encoding: 339 339 124
Width: 1928
Flags: W
LayerCount: 2
Fore
SplineSet
1813 66 m 1,0,1
 1657 -39 1657 -39 1412 -39 c 0,2,3
 1296 -39 1296 -39 1190.5 5 c 128,-1,4
 1085 49 1085 49 1011 139 c 1,5,6
 882 -39 882 -39 628 -39 c 0,7,8
 412 -39 412 -39 267 114 c 0,9,10
 118 272 118 272 118 510 c 0,11,12
 118 751 118 751 267 906 c 0,13,14
 411 1055 411 1055 628 1055 c 0,15,16
 887 1055 887 1055 1013 872 c 1,17,18
 1166 1055 1166 1055 1414 1055 c 0,19,20
 1589 1055 1589 1055 1698 937 c 0,21,22
 1799 826 1799 826 1799 664 c 0,23,24
 1799 461 1799 461 1641 461 c 2,25,-1
 1125 463 l 1,26,27
 1143 288 1143 288 1258 186 c 0,28,29
 1369 90 1369 90 1541 90 c 0,30,31
 1658 90 1658 90 1781 133 c 1,32,-1
 1813 66 l 1,0,1
888 512 m 0,33,34
 888 948 888 948 626.5 948 c 128,-1,35
 365 948 365 948 365 512 c 256,36,37
 365 68 365 68 628 68 c 0,38,39
 843 68 843 68 878 347 c 0,40,41
 888 427 888 427 888 512 c 0,33,34
1559 584 m 1,42,43
 1568 620 1568 620 1568 667.5 c 128,-1,44
 1568 715 1568 715 1554.5 764.5 c 128,-1,45
 1541 814 1541 814 1514 854 c 0,46,47
 1455 944 1455 944 1361 944 c 0,48,49
 1184 944 1184 944 1140 720 c 0,50,51
 1127 655 1127 655 1123 584 c 1,52,-1
 1559 584 l 1,42,43
EndSplineSet
EndChar

StartChar: circumflex
Encoding: 710 710 125
Width: 774
Flags: W
LayerCount: 2
Fore
SplineSet
713 1274 m 0,0,1
 713 1243 713 1243 664 1243 c 2,2,-1
 614 1243 l 1,3,-1
 389 1427 l 1,4,-1
 160 1243 l 1,5,-1
 111 1243 l 2,6,7
 61 1243 61 1243 61 1274 c 0,8,9
 61 1289 61 1289 74 1307 c 1,10,-1
 291 1573 l 1,11,-1
 483 1573 l 1,12,-1
 700 1307 l 2,13,14
 713 1291 713 1291 713 1274 c 0,0,1
EndSplineSet
EndChar

StartChar: ring
Encoding: 730 730 126
Width: 596
Flags: W
LayerCount: 2
Fore
SplineSet
535 1444 m 0,0,1
 535 1389 535 1389 517 1347.5 c 128,-1,2
 499 1306 499 1306 467 1278 c 0,3,4
 402 1221 402 1221 299 1221 c 256,5,6
 196 1221 196 1221 131 1278 c 0,7,8
 63 1338 63 1338 63 1444 c 0,9,10
 63 1549 63 1549 131 1610 c 0,11,12
 196 1667 196 1667 299 1667 c 256,13,14
 402 1667 402 1667 467 1610 c 0,15,16
 535 1549 535 1549 535 1444 c 0,0,1
424 1444 m 256,17,18
 424 1567 424 1567 299 1567 c 256,19,20
 210 1567 210 1567 184 1500 c 0,21,22
 174 1477 174 1477 174 1444 c 256,23,24
 174 1321 174 1321 299 1321 c 256,25,26
 388 1321 388 1321 414 1388 c 0,27,28
 424 1411 424 1411 424 1444 c 256,17,18
EndSplineSet
EndChar

StartChar: tilde
Encoding: 732 732 127
Width: 1198
Flags: W
LayerCount: 2
Fore
SplineSet
708 1399 m 2,0,1
 742 1380 742 1380 769 1380 c 128,-1,2
 796 1380 796 1380 811.5 1393 c 128,-1,3
 827 1406 827 1406 841 1422 c 0,4,5
 878 1464 878 1464 901 1464 c 0,6,7
 948 1464 948 1464 993 1415 c 1,8,9
 915 1324 915 1324 858.5 1282.5 c 128,-1,10
 802 1241 802 1241 749.5 1241 c 128,-1,11
 697 1241 697 1241 654 1260.5 c 128,-1,12
 611 1280 611 1280 573.5 1303.5 c 128,-1,13
 536 1327 536 1327 500 1346.5 c 128,-1,14
 464 1366 464 1366 432.5 1366 c 128,-1,15
 401 1366 401 1366 385.5 1353 c 128,-1,16
 370 1340 370 1340 356 1324 c 0,17,18
 321 1282 321 1282 298 1282 c 0,19,20
 247 1282 247 1282 205 1331 c 1,21,22
 285 1424 285 1424 328 1453 c 0,23,24
 399 1503 399 1503 454 1503 c 128,-1,25
 509 1503 509 1503 553.5 1484 c 128,-1,26
 598 1465 598 1465 636 1442 c 2,27,-1
 708 1399 l 2,0,1
EndSplineSet
EndChar

StartChar: endash
Encoding: 8211 8211 128
Width: 1263
Flags: W
LayerCount: 2
Fore
SplineSet
168 551 m 1,0,-1
 168 614 l 2,1,2
 168 659 168 659 187.5 675.5 c 128,-1,3
 207 692 207 692 250 692 c 2,4,-1
 1096 692 l 1,5,-1
 1096 631 l 2,6,7
 1096 586 1096 586 1077 568.5 c 128,-1,8
 1058 551 1058 551 1014 551 c 2,9,-1
 168 551 l 1,0,-1
EndSplineSet
EndChar

StartChar: emdash
Encoding: 8212 8212 129
Width: 1771
Flags: W
LayerCount: 2
Fore
SplineSet
168 551 m 1,0,-1
 168 614 l 2,1,2
 168 659 168 659 187.5 675.5 c 128,-1,3
 207 692 207 692 250 692 c 2,4,-1
 1604 692 l 1,5,-1
 1604 631 l 2,6,7
 1604 586 1604 586 1585 568.5 c 128,-1,8
 1566 551 1566 551 1522 551 c 2,9,-1
 168 551 l 1,0,-1
EndSplineSet
EndChar

StartChar: quoteleft
Encoding: 8216 8216 130
Width: 574
Flags: W
LayerCount: 2
Fore
SplineSet
385 1536 m 0,0,1
 410 1536 410 1536 410 1505 c 2,2,-1
 410 1450 l 1,3,4
 326 1398 326 1398 296 1306 c 0,5,6
 285 1274 285 1274 285 1241 c 1,7,8
 287 1243 287 1243 290 1243 c 2,9,-1
 297 1243 l 2,10,11
 360 1243 360 1243 402 1202 c 0,12,13
 442 1164 442 1164 442 1118.5 c 128,-1,14
 442 1073 442 1073 431.5 1048.5 c 128,-1,15
 421 1024 421 1024 402 1005 c 0,16,17
 362 965 362 965 313 965 c 128,-1,18
 264 965 264 965 238 975.5 c 128,-1,19
 212 986 212 986 194 1005 c 0,20,21
 139 1061 139 1061 139 1167 c 0,22,23
 139 1352 139 1352 262 1469 c 0,24,25
 305 1510 305 1510 367 1532 c 1,26,27
 375 1536 375 1536 385 1536 c 0,0,1
EndSplineSet
EndChar

StartChar: quoteright
Encoding: 8217 8217 131
Width: 566
Flags: W
LayerCount: 2
Fore
SplineSet
301 1260 m 1,0,1
 298 1257 298 1257 277.5 1257 c 128,-1,2
 257 1257 257 1257 230 1268 c 128,-1,3
 203 1279 203 1279 184 1298 c 0,4,5
 143 1337 143 1337 143 1399 c 0,6,7
 143 1457 143 1457 184 1496 c 0,8,9
 225 1536 225 1536 273.5 1536 c 128,-1,10
 322 1536 322 1536 347.5 1525.5 c 128,-1,11
 373 1515 373 1515 392 1496 c 0,12,13
 446 1442 446 1442 446 1333 c 0,14,15
 446 1147 446 1147 324 1032 c 0,16,17
 280 991 280 991 219 969 c 1,18,19
 211 965 211 965 201 965 c 256,20,21
 176 965 176 965 176 995 c 2,22,-1
 176 1051 l 1,23,24
 260 1103 260 1103 290 1196 c 0,25,26
 301 1227 301 1227 301 1260 c 1,0,1
EndSplineSet
EndChar

StartChar: quotesinglbase
Encoding: 8218 8218 132
Width: 599
Flags: W
LayerCount: 2
Fore
SplineSet
208 -332 m 256,0,1
 183 -332 183 -332 183 -301 c 2,2,-1
 183 -246 l 1,3,4
 267 -194 267 -194 298 -102 c 0,5,6
 308 -70 308 -70 308 -37 c 1,7,8
 306 -39 306 -39 302 -39 c 2,9,-1
 296 -39 l 2,10,11
 233 -39 233 -39 190 2 c 0,12,13
 150 41 150 41 150 85.5 c 128,-1,14
 150 130 150 130 160.5 155.5 c 128,-1,15
 171 181 171 181 190 200 c 0,16,17
 233 240 233 240 281 240 c 128,-1,18
 329 240 329 240 354.5 229 c 128,-1,19
 380 218 380 218 399 200 c 0,20,21
 453 147 453 147 453 37 c 0,22,23
 453 -148 453 -148 330 -264 c 0,24,25
 287 -306 287 -306 226 -328 c 1,26,27
 218 -332 218 -332 208 -332 c 256,0,1
EndSplineSet
EndChar

StartChar: quotedblleft
Encoding: 8220 8220 133
Width: 990
Flags: W
LayerCount: 2
Fore
SplineSet
385 1536 m 0,0,1
 410 1536 410 1536 410 1505 c 2,2,-1
 410 1450 l 1,3,4
 326 1398 326 1398 296 1306 c 0,5,6
 285 1274 285 1274 285 1241 c 1,7,8
 287 1243 287 1243 290 1243 c 2,9,-1
 297 1243 l 2,10,11
 360 1243 360 1243 402 1202 c 0,12,13
 442 1164 442 1164 442 1118.5 c 128,-1,14
 442 1073 442 1073 431.5 1048.5 c 128,-1,15
 421 1024 421 1024 402 1005 c 0,16,17
 362 965 362 965 313 965 c 128,-1,18
 264 965 264 965 238 975.5 c 128,-1,19
 212 986 212 986 194 1005 c 0,20,21
 139 1061 139 1061 139 1167 c 0,22,23
 139 1352 139 1352 262 1469 c 0,24,25
 305 1510 305 1510 367 1532 c 1,26,27
 375 1536 375 1536 385 1536 c 0,0,1
803 1536 m 0,28,29
 827 1536 827 1536 827 1505 c 2,30,-1
 827 1450 l 1,31,32
 744 1398 744 1398 714 1306 c 0,33,34
 703 1274 703 1274 703 1241 c 1,35,36
 705 1243 705 1243 708 1243 c 2,37,-1
 715 1243 l 2,38,39
 778 1243 778 1243 820 1202 c 0,40,41
 860 1164 860 1164 860 1118.5 c 128,-1,42
 860 1073 860 1073 849.5 1048.5 c 128,-1,43
 839 1024 839 1024 820 1005 c 0,44,45
 780 965 780 965 731 965 c 128,-1,46
 682 965 682 965 656 975.5 c 128,-1,47
 630 986 630 986 612 1005 c 0,48,49
 557 1061 557 1061 557 1167 c 0,50,51
 557 1352 557 1352 680 1469 c 0,52,53
 723 1510 723 1510 784 1532 c 1,54,55
 792 1536 792 1536 803 1536 c 0,28,29
EndSplineSet
EndChar

StartChar: quotedblright
Encoding: 8221 8221 134
Width: 984
Flags: W
LayerCount: 2
Fore
SplineSet
719 1260 m 1,0,1
 716 1257 716 1257 695.5 1257 c 128,-1,2
 675 1257 675 1257 648 1268 c 128,-1,3
 621 1279 621 1279 602 1298 c 0,4,5
 561 1337 561 1337 561 1399 c 0,6,7
 561 1457 561 1457 602 1496 c 0,8,9
 643 1536 643 1536 691.5 1536 c 128,-1,10
 740 1536 740 1536 765.5 1525.5 c 128,-1,11
 791 1515 791 1515 810 1496 c 0,12,13
 864 1442 864 1442 864 1333 c 0,14,15
 864 1147 864 1147 742 1032 c 0,16,17
 698 991 698 991 637 969 c 1,18,19
 629 965 629 965 618 965 c 0,20,21
 594 965 594 965 594 995 c 2,22,-1
 594 1051 l 1,23,24
 678 1103 678 1103 708 1196 c 0,25,26
 719 1227 719 1227 719 1260 c 1,0,1
301 1260 m 1,27,28
 298 1257 298 1257 277.5 1257 c 128,-1,29
 257 1257 257 1257 230 1268 c 128,-1,30
 203 1279 203 1279 184 1298 c 0,31,32
 143 1337 143 1337 143 1399 c 0,33,34
 143 1457 143 1457 184 1496 c 0,35,36
 225 1536 225 1536 273.5 1536 c 128,-1,37
 322 1536 322 1536 347.5 1525.5 c 128,-1,38
 373 1515 373 1515 392 1496 c 0,39,40
 446 1442 446 1442 446 1333 c 0,41,42
 446 1147 446 1147 324 1032 c 0,43,44
 280 991 280 991 219 969 c 1,45,46
 211 965 211 965 201 965 c 256,47,48
 176 965 176 965 176 995 c 2,49,-1
 176 1051 l 1,50,51
 260 1103 260 1103 290 1196 c 0,52,53
 301 1227 301 1227 301 1260 c 1,27,28
EndSplineSet
EndChar

StartChar: quotedblbase
Encoding: 8222 8222 135
Width: 1018
Flags: W
LayerCount: 2
Fore
SplineSet
208 -332 m 256,0,1
 183 -332 183 -332 183 -301 c 2,2,-1
 183 -246 l 1,3,4
 267 -194 267 -194 298 -102 c 0,5,6
 308 -70 308 -70 308 -37 c 1,7,8
 306 -39 306 -39 302 -39 c 2,9,-1
 296 -39 l 2,10,11
 233 -39 233 -39 190 2 c 0,12,13
 150 41 150 41 150 85.5 c 128,-1,14
 150 130 150 130 160.5 155.5 c 128,-1,15
 171 181 171 181 190 200 c 0,16,17
 233 240 233 240 281 240 c 128,-1,18
 329 240 329 240 354.5 229 c 128,-1,19
 380 218 380 218 399 200 c 0,20,21
 453 147 453 147 453 37 c 0,22,23
 453 -148 453 -148 330 -264 c 0,24,25
 287 -306 287 -306 226 -328 c 1,26,27
 218 -332 218 -332 208 -332 c 256,0,1
627 -332 m 0,28,29
 603 -332 603 -332 603 -301 c 2,30,-1
 603 -246 l 1,31,32
 687 -194 687 -194 718 -102 c 0,33,34
 728 -70 728 -70 728 -37 c 1,35,36
 726 -39 726 -39 722 -39 c 2,37,-1
 715 -39 l 2,38,39
 616 -39 616 -39 580 46 c 0,40,41
 570 72 570 72 570 101 c 128,-1,42
 570 130 570 130 580.5 155.5 c 128,-1,43
 591 181 591 181 610 200 c 0,44,45
 652 240 652 240 700 240 c 128,-1,46
 748 240 748 240 774 229 c 128,-1,47
 800 218 800 218 819 200 c 0,48,49
 873 147 873 147 873 37 c 0,50,51
 873 -148 873 -148 750 -264 c 0,52,53
 707 -306 707 -306 646 -328 c 1,54,55
 638 -332 638 -332 627 -332 c 0,28,29
EndSplineSet
EndChar

StartChar: bullet
Encoding: 8226 8226 136
Width: 717
Flags: W
LayerCount: 2
Fore
SplineSet
151 571 m 256,0,1
 151 657 151 657 211 718 c 0,2,3
 271 780 271 780 358 780 c 256,4,5
 444 780 444 780 505.5 718.5 c 128,-1,6
 567 657 567 657 567 571 c 256,7,8
 567 485 567 485 506 425 c 0,9,10
 444 365 444 365 358 365 c 256,11,12
 271 365 271 365 211 425 c 128,-1,13
 151 485 151 485 151 571 c 256,0,1
EndSplineSet
EndChar

StartChar: guilsinglleft
Encoding: 8249 8249 137
Width: 656
Flags: W
LayerCount: 2
Fore
SplineSet
460 973 m 1,0,1
 493 947 493 947 493 911 c 0,2,3
 493 890 493 890 476 860 c 1,4,-1
 319 559 l 1,5,-1
 319 549 l 1,6,-1
 476 248 l 2,7,8
 493 214 493 214 493 198 c 0,9,10
 493 161 493 161 460 135 c 1,11,-1
 112 496 l 1,12,-1
 112 612 l 1,13,-1
 460 973 l 1,0,1
EndSplineSet
EndChar

StartChar: guilsinglright
Encoding: 8250 8250 138
Width: 656
Flags: W
LayerCount: 2
Fore
SplineSet
196 135 m 1,0,1
 163 158 163 158 163 197 c 0,2,3
 163 221 163 221 180 248 c 1,4,-1
 337 549 l 1,5,-1
 337 559 l 1,6,-1
 180 860 l 2,7,8
 163 892 163 892 163 909 c 0,9,10
 163 950 163 950 196 973 c 1,11,-1
 544 612 l 1,12,-1
 544 496 l 1,13,-1
 196 135 l 1,0,1
EndSplineSet
EndChar

StartChar: fraction
Encoding: 8260 8260 139
Width: 820
Flags: W
LayerCount: 2
Fore
SplineSet
729 1511 m 2,0,1
 809 1511 809 1511 809 1470 c 0,2,3
 809 1464 809 1464 801 1440 c 1,4,-1
 150 -68 l 1,5,-1
 88 -68 l 2,6,7
 12 -68 12 -68 12 -23 c 0,8,9
 12 -10 12 -10 21 6 c 1,10,-1
 672 1511 l 1,11,-1
 729 1511 l 2,0,1
EndSplineSet
EndChar

StartChar: uni2074
Encoding: 8308 8308 140
Width: 887
Flags: W
LayerCount: 2
Fore
SplineSet
642 604 m 1,0,1
 609 582 609 582 545.5 582 c 128,-1,2
 482 582 482 582 482 643 c 2,3,-1
 482 821 l 1,4,-1
 120 821 l 2,5,6
 77 821 77 821 77 850 c 0,7,8
 77 866 77 866 85 879 c 2,9,-1
 432 1382 l 1,10,-1
 486 1454 l 2,11,12
 508 1483 508 1483 515 1487 c 1,13,14
 525 1489 525 1489 542 1489 c 2,15,-1
 573 1489 l 2,16,17
 624 1489 624 1489 624 1446 c 2,18,-1
 624 918 l 1,19,-1
 788 918 l 1,20,-1
 788 870 l 2,21,22
 788 821 788 821 736 821 c 2,23,-1
 624 821 l 1,24,-1
 624 784 l 2,25,26
 624 685 624 685 642 604 c 1,0,1
480 918 m 1,27,-1
 480 1294 l 1,28,-1
 231 918 l 1,29,-1
 480 918 l 1,27,-1
EndSplineSet
EndChar

StartChar: Euro
Encoding: 8364 8364 141
Width: 1527
Flags: W
LayerCount: 2
Fore
SplineSet
1433 121 m 1,0,1
 1255 -39 1255 -39 966 -39 c 0,2,3
 712 -39 712 -39 540 96 c 0,4,5
 372 228 372 228 315 471 c 1,6,-1
 73 471 l 1,7,-1
 88 551 l 2,8,9
 95 586 95 586 116 592 c 0,10,11
 127 595 127 595 141.5 594.5 c 128,-1,12
 156 594 156 594 174 594 c 2,13,-1
 295 594 l 1,14,15
 291 644 291 644 291 698 c 2,16,-1
 291 748 l 1,17,-1
 114 748 l 1,18,-1
 129 827 l 2,19,20
 136 863 136 863 158 869 c 0,21,22
 168 872 168 872 182.5 871 c 128,-1,23
 197 870 197 870 215 870 c 2,24,-1
 305 870 l 1,25,26
 350 1141 350 1141 529 1298 c 0,27,28
 703 1450 703 1450 954 1450 c 0,29,30
 1124 1450 1124 1450 1253 1407 c 0,31,32
 1394 1360 1394 1360 1394 1282 c 0,33,34
 1394 1250 1394 1250 1364 1210 c 2,35,-1
 1286 1110 l 1,36,37
 1102 1300 1102 1300 913 1300 c 0,38,39
 760 1300 760 1300 666 1170 c 0,40,41
 588 1059 588 1059 561 870 c 1,42,-1
 1120 870 l 1,43,-1
 1106 791 l 1,44,45
 1097 747 1097 747 1044 747 c 0,46,47
 1040 747 1040 747 1036 747 c 0,48,49
 1018 748 1018 748 999 748 c 2,50,-1
 551 748 l 1,51,-1
 551 698 l 2,52,53
 551 634 551 634 559 594 c 1,54,-1
 1079 594 l 1,55,-1
 1065 514 l 1,56,57
 1056 470 1056 470 999 470 c 0,58,59
 997 470 997 470 994 470 c 0,60,61
 977 471 977 471 958 471 c 2,62,-1
 585 471 l 1,63,64
 666 218 666 218 878 142 c 0,65,66
 951 115 951 115 1040 115 c 0,67,68
 1203 115 1203 115 1392 199 c 1,69,-1
 1433 121 l 1,0,1
EndSplineSet
EndChar

StartChar: uniEFFD
Encoding: 61437 61437 144
Width: 1236
Flags: W
LayerCount: 2
Fore
SplineSet
194 1024 m 1,0,-1
 1042 1024 l 1,1,-1
 1042 0 l 1,2,-1
 194 0 l 1,3,-1
 194 1024 l 1,0,-1
321 127 m 1,4,-1
 915 127 l 1,5,-1
 915 897 l 1,6,-1
 321 897 l 1,7,-1
 321 127 l 1,4,-1
EndSplineSet
EndChar

StartChar: currency
Encoding: 164 164 146
Width: 1220
Flags: W
LayerCount: 2
Fore
SplineSet
916 952 m 1,0,1
 987 857 987 857 987 731 c 128,-1,2
 987 605 987 605 916 514 c 1,3,-1
 1051 377 l 1,4,-1
 1002 330 l 2,5,6
 983 311 983 311 962 311 c 128,-1,7
 941 311 941 311 922 332 c 2,8,-1
 830 428 l 1,9,10
 725 358 725 358 605.5 358 c 128,-1,11
 486 358 486 358 391 428 c 1,12,-1
 254 291 l 1,13,-1
 207 340 l 2,14,15
 189 358 189 358 189 374 c 0,16,17
 189 400 189 400 209 420 c 2,18,-1
 303 514 l 1,19,20
 236 608 236 608 236 733 c 256,21,22
 236 858 236 858 303 950 c 1,23,-1
 166 1087 l 1,24,-1
 215 1135 l 2,25,26
 233 1153 233 1153 254 1153 c 128,-1,27
 275 1153 275 1153 295 1133 c 2,28,-1
 389 1038 l 1,29,30
 497 1110 497 1110 608 1110 c 128,-1,31
 719 1110 719 1110 827 1038 c 1,32,-1
 965 1176 l 1,33,-1
 1012 1126 l 2,34,35
 1030 1108 1030 1108 1030 1087.5 c 128,-1,36
 1030 1067 1030 1067 1010 1047 c 2,37,-1
 916 952 l 1,0,1
350 734 m 0,38,39
 350 679 350 679 370.5 631.5 c 128,-1,40
 391 584 391 584 426 548 c 0,41,42
 504 471 504 471 610 471 c 0,43,44
 721 471 721 471 797 548 c 0,45,46
 873 626 873 626 873 733 c 0,47,48
 873 843 873 843 797 920 c 0,49,50
 722 997 722 997 610 997 c 0,51,52
 503 997 503 997 426.5 920.5 c 128,-1,53
 350 844 350 844 350 734 c 0,38,39
EndSplineSet
EndChar

StartChar: twosuperior
Encoding: 178 178 147
Width: 917
Flags: W
LayerCount: 2
Fore
SplineSet
319 662 m 1,0,-1
 407 664 l 2,1,2
 573 668 573 668 747 750 c 0,3,4
 746 750 746 750 748 739 c 2,5,-1
 754 712 l 2,6,7
 764 670 764 670 764 641 c 128,-1,8
 764 612 764 612 749 594 c 128,-1,9
 734 576 734 576 699.5 568.5 c 128,-1,10
 665 561 665 561 609 561 c 2,11,-1
 471 561 l 258,12,13
 389 561 389 561 326 560 c 0,14,15
 315 560 315 560 304 560 c 0,16,17
 255 560 255 560 220 564 c 0,18,19
 177 568 177 568 155 581 c 128,-1,20
 133 594 133 594 133 623 c 1,21,22
 327 820 327 820 384 885 c 128,-1,23
 441 950 441 950 481 1006 c 0,24,25
 571 1134 571 1134 571 1204 c 128,-1,26
 571 1274 571 1274 536.5 1315 c 128,-1,27
 502 1356 502 1356 432 1356 c 0,28,29
 388 1356 388 1356 333 1318 c 0,30,31
 236 1251 236 1251 233 1233 c 1,32,-1
 170 1323 l 2,33,34
 162 1334 162 1334 162 1350.5 c 128,-1,35
 162 1367 162 1367 190 1385.5 c 128,-1,36
 218 1404 218 1404 260 1418 c 0,37,38
 350 1450 350 1450 432.5 1450 c 128,-1,39
 515 1450 515 1450 573.5 1429 c 128,-1,40
 632 1408 632 1408 670 1373 c 0,41,42
 743 1304 743 1304 743 1208.5 c 128,-1,43
 743 1113 743 1113 690 1038 c 0,44,45
 598 906 598 906 319 662 c 1,0,-1
EndSplineSet
EndChar

StartChar: threesuperior
Encoding: 179 179 148
Width: 891
Flags: W
LayerCount: 2
Fore
SplineSet
602 809 m 0,0,1
 602 973 602 973 405 973 c 2,2,-1
 315 973 l 1,3,-1
 315 1038 l 2,4,5
 315 1058 315 1058 322 1063 c 0,6,7
 508 1205 508 1205 534 1352 c 1,8,-1
 432 1352 l 2,9,10
 322 1352 322 1352 253 1307 c 0,11,12
 223 1287 223 1287 207 1262 c 1,13,14
 203 1267 203 1267 192 1286 c 2,15,-1
 171 1325 l 2,16,17
 143 1378 143 1378 143 1386 c 0,18,19
 143 1450 143 1450 426 1450 c 2,20,-1
 476 1450 l 2,21,22
 710 1450 710 1450 710 1397 c 2,23,-1
 710 1372 l 1,24,25
 680 1269 680 1269 572 1158 c 0,26,27
 530 1115 530 1115 497.5 1089 c 128,-1,28
 465 1063 465 1063 461 1061 c 1,29,30
 681 1045 681 1045 743 906 c 0,31,32
 764 858 764 858 764 797 c 256,33,34
 764 679 764 679 663 607 c 0,35,36
 568 539 568 539 430 539 c 0,37,38
 334 539 334 539 265 561.5 c 128,-1,39
 196 584 196 584 166.5 603.5 c 128,-1,40
 137 623 137 623 137 647 c 0,41,42
 137 661 137 661 145 674 c 1,43,-1
 192 764 l 1,44,-1
 250 722 l 1,45,46
 358 641 358 641 435 641 c 128,-1,47
 512 641 512 641 557 686.5 c 128,-1,48
 602 732 602 732 602 809 c 0,0,1
EndSplineSet
EndChar

StartChar: onesuperior
Encoding: 185 185 149
Width: 586
Flags: W
LayerCount: 2
Fore
SplineSet
329 557 m 0,0,1
 257 557 257 557 257 618 c 2,2,-1
 257 1337 l 1,3,-1
 97 1280 l 1,4,-1
 77 1354 l 1,5,6
 156 1411 156 1411 274 1440 c 0,7,8
 312 1450 312 1450 344.5 1450 c 128,-1,9
 377 1450 377 1450 386.5 1440 c 128,-1,10
 396 1430 396 1430 396 1405 c 2,11,-1
 396 762 l 2,12,13
 396 683 396 683 404 639.5 c 128,-1,14
 412 596 412 596 415 578 c 1,15,16
 379 557 379 557 329 557 c 0,0,1
EndSplineSet
EndChar

StartChar: minus
Encoding: 8722 8722 150
Width: 1234
Flags: W
LayerCount: 2
Fore
SplineSet
174 489 m 1,0,-1
 174 553 l 2,1,2
 174 598 174 598 193.5 614.5 c 128,-1,3
 213 631 213 631 256 631 c 2,4,-1
 1061 631 l 1,5,-1
 1061 569 l 2,6,7
 1061 524 1061 524 1042 506.5 c 128,-1,8
 1023 489 1023 489 979 489 c 2,9,-1
 174 489 l 1,0,-1
EndSplineSet
EndChar

StartChar: breve
Encoding: 728 728 151
Width: 1044
Flags: W
LayerCount: 2
Fore
SplineSet
522 1241 m 256,0,1
 382 1241 382 1241 288 1340 c 0,2,3
 205 1427 205 1427 205 1526 c 0,4,5
 205 1561 205 1561 223 1575 c 128,-1,6
 241 1589 241 1589 283 1591 c 1,7,8
 298 1514 298 1514 324 1477 c 0,9,10
 386 1386 386 1386 522 1386 c 0,11,12
 719 1386 719 1386 756 1562 c 2,13,-1
 762 1591 l 1,14,15
 804 1589 804 1589 822 1575 c 128,-1,16
 840 1561 840 1561 840 1521.5 c 128,-1,17
 840 1482 840 1482 818.5 1432 c 128,-1,18
 797 1382 797 1382 756 1340 c 0,19,20
 663 1241 663 1241 522 1241 c 256,0,1
EndSplineSet
EndChar

StartChar: dotaccent
Encoding: 729 729 152
Width: 909
Flags: W
LayerCount: 2
Fore
SplineSet
602 1506.5 m 128,-1,1
 602 1463 602 1463 591 1437 c 128,-1,2
 580 1411 580 1411 560 1392 c 0,3,4
 518 1352 518 1352 469.5 1352 c 128,-1,5
 421 1352 421 1352 394 1363 c 128,-1,6
 367 1374 367 1374 348 1392 c 0,7,8
 307 1431 307 1431 307 1493 c 0,9,10
 307 1551 307 1551 348 1590 c 0,11,12
 389 1630 389 1630 437 1630 c 0,13,14
 519 1630 519 1630 560.5 1590 c 128,-1,0
 602 1550 602 1550 602 1506.5 c 128,-1,1
EndSplineSet
EndChar

StartChar: hungarumlaut
Encoding: 733 733 153
Width: 1087
Flags: W
LayerCount: 2
Fore
SplineSet
311 1243 m 2,0,1
 272 1243 272 1243 272 1270 c 0,2,3
 272 1290 272 1290 293 1327 c 2,4,-1
 432 1573 l 1,5,-1
 580 1573 l 2,6,7
 643 1573 643 1573 643 1532 c 0,8,9
 643 1504 643 1504 608 1473 c 1,10,-1
 383 1243 l 1,11,-1
 311 1243 l 2,0,1
700 1243 m 2,12,13
 662 1243 662 1243 662 1270 c 0,14,15
 662 1292 662 1292 682 1327 c 2,16,-1
 821 1573 l 1,17,-1
 969 1573 l 2,18,19
 1032 1573 1032 1573 1032 1532 c 0,20,21
 1032 1504 1032 1504 997 1473 c 1,22,-1
 772 1243 l 1,23,-1
 700 1243 l 2,12,13
EndSplineSet
EndChar

StartChar: ogonek
Encoding: 731 731 154
Width: 1104
Flags: W
LayerCount: 2
Fore
SplineSet
659 2 m 1,0,1
 537 -120 537 -120 537 -193 c 0,2,3
 537 -239 537 -239 557 -260 c 128,-1,4
 577 -281 577 -281 599 -281 c 128,-1,5
 621 -281 621 -281 634 -276 c 2,6,-1
 662 -266 l 2,7,8
 700 -250 700 -250 714 -250 c 0,9,10
 748 -250 748 -250 756 -299 c 1,11,12
 640 -389 640 -389 510 -389 c 0,13,14
 408 -389 408 -389 380 -312 c 0,15,16
 373 -291 373 -291 373 -260 c 128,-1,17
 373 -229 373 -229 388 -193 c 128,-1,18
 403 -157 403 -157 426.5 -126 c 128,-1,19
 450 -95 450 -95 480 -69.5 c 128,-1,20
 510 -44 510 -44 539.5 -23 c 128,-1,21
 569 -2 569 -2 596 14.5 c 128,-1,22
 623 31 623 31 641 43 c 1,23,-1
 659 2 l 1,0,1
EndSplineSet
EndChar

StartChar: caron
Encoding: 711 711 155
Width: 1159
Flags: W
LayerCount: 2
Fore
SplineSet
205 1577 m 1,0,1
 244 1602 244 1602 277.5 1602 c 128,-1,2
 311 1602 311 1602 332 1585 c 2,3,-1
 580 1374 l 1,4,-1
 827 1585 l 2,5,6
 848 1602 848 1602 868 1602 c 0,7,8
 911 1602 911 1602 954 1577 c 1,9,-1
 662 1251 l 1,10,11
 619 1206 619 1206 578 1206 c 128,-1,12
 537 1206 537 1206 498 1251 c 1,13,-1
 205 1577 l 1,0,1
EndSplineSet
EndChar

StartChar: foundryicon
Encoding: 65542 -1 160
Width: 2163
Flags: W
LayerCount: 2
Fore
SplineSet
2001 561 m 1,0,1
 2020 582 2020 582 2035 582 c 128,-1,2
 2050 582 2050 582 2062 578 c 1,3,-1
 2062 514 l 1,4,-1
 2030 514 l 1,5,6
 2032 511 2032 511 2032 508 c 2,7,-1
 2032 504 l 2,8,9
 2032 476 2032 476 2009.5 454 c 128,-1,10
 1987 432 1987 432 1959 432 c 2,11,-1
 1926 432 l 2,12,13
 1920 432 1920 432 1915 434 c 1,14,-1
 1915 403 l 1,15,-1
 1952 403 l 2,16,17
 2032 403 2032 403 2032 330 c 0,18,19
 2032 318 2032 318 2019 283 c 1,20,-1
 1964 283 l 1,21,-1
 1964 342 l 1,22,-1
 1870 342 l 1,23,24
 1849 357 1849 357 1849 389.5 c 128,-1,25
 1849 422 1849 422 1878 449 c 1,26,27
 1849 466 1849 466 1849 502 c 128,-1,28
 1849 538 1849 538 1872 560 c 128,-1,29
 1895 582 1895 582 1934 582 c 128,-1,30
 1973 582 1973 582 2001 561 c 1,0,1
465.5 298.5 m 128,-1,32
 443 283 443 283 409.5 283 c 128,-1,33
 376 283 376 283 360 297 c 1,34,-1
 360 350 l 1,35,-1
 395 350 l 2,36,37
 428 350 428 350 438 373 c 1,38,-1
 410 373 l 1,39,-1
 360 514 l 1,40,-1
 340 514 l 1,41,-1
 340 578 l 1,42,-1
 418 578 l 1,43,-1
 446 477 l 1,44,-1
 457 428 l 1,45,-1
 479 514 l 1,46,-1
 461 514 l 1,47,-1
 461 578 l 1,48,-1
 549 578 l 1,49,-1
 549 514 l 1,50,-1
 502 358 l 2,51,31
 488 314 488 314 465.5 298.5 c 128,-1,32
139.5 607.5 m 128,-1,53
 175 647 175 647 226 647 c 128,-1,54
 277 647 277 647 324 633 c 1,55,-1
 324 551 l 1,56,-1
 260 551 l 1,57,-1
 260 582 l 1,58,59
 255 584 255 584 251 584 c 2,60,-1
 242 584 l 2,61,62
 213 584 213 584 197.5 563 c 128,-1,63
 182 542 182 542 182 510 c 0,64,65
 182 434 182 434 258 434 c 2,66,-1
 324 434 l 1,67,-1
 324 383 l 1,68,69
 287 367 287 367 232 367 c 128,-1,70
 177 367 177 367 140.5 403 c 128,-1,71
 104 439 104 439 104 503.5 c 128,-1,52
 104 568 104 568 139.5 607.5 c 128,-1,53
1608.5 395.5 m 128,-1,73
 1581 367 1581 367 1532 367 c 0,74,75
 1432 367 1432 367 1432 473 c 256,76,77
 1432 524 1432 524 1459 553 c 128,-1,78
 1486 582 1486 582 1534 582 c 256,79,80
 1582 582 1582 582 1609 554 c 128,-1,81
 1636 526 1636 526 1636 475 c 256,82,72
 1636 424 1636 424 1608.5 395.5 c 128,-1,73
1087 494 m 1,83,84
 1087 514 1087 514 1042 514 c 2,85,-1
 991 514 l 1,86,-1
 991 567 l 1,87,88
 1038 582 1038 582 1065 582 c 0,89,90
 1159 582 1159 582 1159 504 c 2,91,-1
 1159 434 l 1,92,-1
 1182 434 l 1,93,-1
 1182 379 l 1,94,95
 1165 369 1165 369 1136 369 c 128,-1,96
 1107 369 1107 369 1096 383 c 1,97,98
 1076 367 1076 367 1045.5 367 c 128,-1,99
 1015 367 1015 367 995 383 c 128,-1,100
 975 399 975 399 975 429 c 128,-1,101
 975 459 975 459 993 473.5 c 128,-1,102
 1011 488 1011 488 1055 492 c 1,103,-1
 1087 494 l 1,83,84
834 459 m 1,104,105
 843 434 843 434 885 434 c 2,106,-1
 944 434 l 1,107,-1
 944 381 l 1,108,109
 914 367 914 367 868 367 c 0,110,111
 760 367 760 367 760 471 c 0,112,113
 760 582 760 582 860 582 c 0,114,115
 902 582 902 582 926 557.5 c 128,-1,116
 950 533 950 533 950 507 c 128,-1,117
 950 481 950 481 946 459 c 1,118,-1
 834 459 l 1,104,105
1751 545 m 1,119,120
 1771 583 1771 583 1803 583 c 0,121,122
 1814 583 1814 583 1827 578 c 1,123,-1
 1827 514 l 1,124,-1
 1757 514 l 1,125,-1
 1757 434 l 1,126,-1
 1792 434 l 1,127,-1
 1792 373 l 1,128,-1
 1665 373 l 1,129,-1
 1665 434 l 1,130,-1
 1683 434 l 1,131,-1
 1683 514 l 1,132,-1
 1661 514 l 1,133,-1
 1661 578 l 1,134,-1
 1731 578 l 1,135,-1
 1751 545 l 1,119,120
668 545 m 1,136,137
 688 582 688 582 710.5 582 c 128,-1,138
 733 582 733 582 743 578 c 1,139,-1
 743 514 l 1,140,-1
 674 514 l 1,141,-1
 674 434 l 1,142,-1
 709 434 l 1,143,-1
 709 373 l 1,144,-1
 582 373 l 1,145,-1
 582 434 l 1,146,-1
 602 434 l 1,147,-1
 602 514 l 1,148,-1
 578 514 l 1,149,-1
 647 578 l 1,150,-1
 668 545 l 1,136,137
1206 584 m 1,151,-1
 1182 584 l 1,152,-1
 1182 647 l 1,153,-1
 1278 647 l 1,154,-1
 1278 434 l 1,155,-1
 1307 434 l 1,156,-1
 1307 377 l 1,157,158
 1287 369 1287 369 1262 369 c 0,159,160
 1206 369 1206 369 1206 426 c 2,161,-1
 1206 584 l 1,151,-1
1333 408 m 0,162,163
 1333 449 1333 449 1374 449 c 0,164,165
 1396 449 1396 449 1407.5 437 c 128,-1,166
 1419 425 1419 425 1419 408.5 c 128,-1,167
 1419 392 1419 392 1407.5 380.5 c 128,-1,168
 1396 369 1396 369 1375 369 c 128,-1,169
 1354 369 1354 369 1343.5 380.5 c 128,-1,170
 1333 392 1333 392 1333 408 c 0,162,163
1534 524 m 256,171,172
 1505 524 1505 524 1505 473 c 128,-1,173
 1505 422 1505 422 1534 422 c 256,174,175
 1563 422 1563 422 1563 473 c 128,-1,176
 1563 524 1563 524 1534 524 c 256,171,172
1917 506 m 256,177,178
 1917 475 1917 475 1942 475 c 0,179,180
 1962 475 1962 475 1962 506 c 256,181,182
 1962 537 1962 537 1942 537 c 0,183,184
 1917 537 1917 537 1917 506 c 256,177,178
1071 455 m 2,185,186
 1044 455 1044 455 1044 436.5 c 128,-1,187
 1044 418 1044 418 1065 418 c 0,188,189
 1080 418 1080 418 1087 424 c 1,190,-1
 1087 455 l 1,191,-1
 1071 455 l 2,185,186
883 496 m 1,192,193
 883 528 883 528 858 528 c 0,194,195
 838 528 838 528 831 496 c 1,196,-1
 883 496 l 1,192,193
EndSplineSet
EndChar

StartChar: oslash
Encoding: 248 248 205
Width: 1333
Flags: W
LayerCount: 2
Fore
SplineSet
983 1246 m 2,0,1
 1056 1246 1056 1246 1056 1207 c 0,2,3
 1056 1195 1056 1195 1049 1178 c 2,4,-1
 962 977 l 1,5,6
 1144 871 1144 871 1198 659 c 0,7,8
 1216 589 1216 589 1216 488.5 c 128,-1,9
 1216 388 1216 388 1173.5 288 c 128,-1,10
 1131 188 1131 188 1056 117 c 0,11,12
 901 -31 901 -31 668 -31 c 0,13,14
 598 -31 598 -31 534 -16 c 1,15,-1
 442 -231 l 1,16,-1
 384 -231 l 2,17,18
 312 -231 312 -231 312 -189 c 0,19,20
 312 -177 312 -177 319 -163 c 2,21,-1
 402 30 l 1,22,23
 199 131 199 131 138 354 c 0,24,25
 117 427 117 427 117 530 c 128,-1,26
 117 633 117 633 160 733.5 c 128,-1,27
 203 834 203 834 277 906 c 0,28,29
 432 1055 432 1055 668 1055 c 0,30,31
 754 1055 754 1055 834 1032 c 1,32,-1
 926 1246 l 1,33,-1
 983 1246 l 2,0,1
458 161 m 1,34,-1
 788 926 l 1,35,36
 735 948 735 948 655.5 948 c 128,-1,37
 576 948 576 948 517.5 912 c 128,-1,38
 459 876 459 876 424 816 c 0,39,40
 364 709 364 709 364 489 c 128,-1,41
 364 269 364 269 458 161 c 1,34,-1
899 831 m 1,42,-1
 579 87 l 1,43,44
 620 76 620 76 689.5 76 c 128,-1,45
 759 76 759 76 817.5 112 c 128,-1,46
 876 148 876 148 910 208 c 0,47,48
 969 316 969 316 969 519 c 128,-1,49
 969 722 969 722 899 831 c 1,42,-1
EndSplineSet
EndChar

StartChar: Oslash
Encoding: 216 216 206
Width: 1610
Flags: W
LayerCount: 2
Fore
SplineSet
1145 1536 m 2,0,1
 1228 1536 1228 1536 1228 1492 c 0,2,3
 1228 1479 1228 1479 1221 1459 c 1,4,-1
 1174 1350 l 1,5,6
 1322 1256 1322 1256 1401 1090 c 128,-1,7
 1480 924 1480 924 1480 732 c 128,-1,8
 1480 540 1480 540 1434 403 c 128,-1,9
 1388 266 1388 266 1301 168 c 0,10,11
 1119 -39 1119 -39 806 -39 c 0,12,13
 693 -39 693 -39 588 -8 c 1,14,-1
 533 -137 l 1,15,-1
 467 -137 l 2,16,17
 386 -137 386 -137 386 -89 c 0,18,19
 386 -75 386 -75 394 -60 c 1,20,-1
 444 55 l 1,21,22
 292 148 292 148 211 315 c 128,-1,23
 130 482 130 482 130 676 c 128,-1,24
 130 870 130 870 176.5 1007 c 128,-1,25
 223 1144 223 1144 310 1242 c 0,26,27
 493 1450 493 1450 806 1450 c 0,28,29
 924 1450 924 1450 1031 1417 c 1,30,-1
 1082 1536 l 1,31,-1
 1145 1536 l 2,0,1
975 1287 m 1,32,33
 899 1323 899 1323 795.5 1323 c 128,-1,34
 692 1323 692 1323 612.5 1272.5 c 128,-1,35
 533 1222 533 1222 484 1137 c 0,36,37
 390 976 390 976 390 705 c 0,38,39
 390 373 390 373 514 217 c 1,40,-1
 975 1287 l 1,32,33
1101 1181 m 1,41,-1
 643 118 l 1,42,43
 712 88 712 88 815.5 88 c 128,-1,44
 919 88 919 88 997.5 134 c 128,-1,45
 1076 180 1076 180 1126 262 c 0,46,47
 1220 419 1220 419 1220 719 c 128,-1,48
 1220 1019 1220 1019 1101 1181 c 1,41,-1
EndSplineSet
EndChar

StartChar: thorn
Encoding: 254 254 212
Width: 1328
Flags: W
LayerCount: 2
Fore
SplineSet
418 -174 m 2,0,1
 418 -345 418 -345 446 -457 c 1,2,-1
 446 -461 l 1,3,4
 388 -494 388 -494 303 -494 c 0,5,6
 186 -494 186 -494 186 -393 c 2,7,-1
 186 1419 l 1,8,-1
 10 1419 l 1,9,-1
 10 1495 l 1,10,11
 106 1536 106 1536 332 1536 c 0,12,13
 381 1536 381 1536 394 1530 c 0,14,15
 418 1519 418 1519 418 1483 c 2,16,-1
 418 932 l 1,17,18
 608 1055 608 1055 774 1055 c 0,19,20
 992 1055 992 1055 1106 901 c 0,21,22
 1208 762 1208 762 1208 532 c 0,23,24
 1208 285 1208 285 1053 128 c 0,25,26
 896 -31 896 -31 649 -31 c 0,27,28
 544 -31 544 -31 418 -2 c 1,29,-1
 418 -174 l 2,0,1
960 549 m 0,30,31
 960 934 960 934 739 934 c 0,32,33
 599 934 599 934 418 836 c 1,34,-1
 418 113 l 2,35,36
 418 103 418 103 509.5 91.5 c 128,-1,37
 601 80 601 80 661.5 80 c 128,-1,38
 722 80 722 80 781.5 112 c 128,-1,39
 841 144 841 144 881 204 c 0,40,41
 960 322 960 322 960 549 c 0,30,31
EndSplineSet
EndChar

StartChar: Eth
Encoding: 208 208 213
Width: 1643
Flags: W
LayerCount: 2
Fore
SplineSet
75 1350 m 1,0,1
 249 1408 249 1408 598 1426 c 0,2,3
 703 1432 703 1432 840 1432 c 128,-1,4
 977 1432 977 1432 1109 1391 c 128,-1,5
 1241 1350 1241 1350 1329 1262 c 0,6,7
 1506 1085 1506 1085 1506 702 c 0,8,9
 1506 352 1506 352 1311 170 c 0,10,11
 1129 0 1129 0 818 0 c 2,12,-1
 345 0 l 2,13,14
 300 0 300 0 283.5 19.5 c 128,-1,15
 267 39 267 39 267 82 c 2,16,-1
 267 668 l 1,17,-1
 77 668 l 1,18,-1
 77 717 l 2,19,20
 77 752 77 752 92 765 c 128,-1,21
 107 778 107 778 142 778 c 2,22,-1
 267 778 l 1,23,-1
 269 1274 l 1,24,25
 215 1271 215 1271 185 1269.5 c 128,-1,26
 155 1268 155 1268 137.5 1267 c 128,-1,27
 120 1266 120 1266 106.5 1265.5 c 128,-1,28
 93 1265 93 1265 84.5 1264.5 c 128,-1,29
 76 1264 76 1264 75 1264 c 1,30,-1
 75 1350 l 1,0,1
501 668 m 1,31,-1
 503 141 l 1,32,33
 626 127 626 127 742 127 c 128,-1,34
 858 127 858 127 954 159 c 128,-1,35
 1050 191 1050 191 1116 260 c 0,36,37
 1248 400 1248 400 1248 702 c 0,38,39
 1248 1007 1248 1007 1150 1146 c 0,40,41
 1041 1303 1041 1303 781 1303 c 0,42,43
 689 1303 689 1303 619 1298 c 2,44,-1
 525 1292 l 2,45,46
 501 1291 501 1291 501 1292 c 2,47,-1
 501 778 l 1,48,-1
 816 778 l 1,49,-1
 816 729 l 2,50,51
 816 695 816 695 801 681.5 c 128,-1,52
 786 668 786 668 750 668 c 2,53,-1
 501 668 l 1,31,-1
EndSplineSet
EndChar

StartChar: ae
Encoding: 230 230 216
Width: 1845
Flags: W
LayerCount: 2
Fore
SplineSet
565 1055 m 0,0,1
 809 1055 809 1055 924 924 c 1,2,3
 1082 1055 1082 1055 1304 1055 c 0,4,5
 1497 1055 1497 1055 1617 937 c 0,6,7
 1730 826 1730 826 1730 664 c 0,8,9
 1730 457 1730 457 1573 457 c 2,10,-1
 1016 459 l 1,11,-1
 1016 322 l 1,12,13
 1068 210 1068 210 1172.5 154 c 128,-1,14
 1277 98 1277 98 1404.5 98 c 128,-1,15
 1532 98 1532 98 1671 141 c 1,16,-1
 1704 74 l 1,17,18
 1550 -31 1550 -31 1296.5 -31 c 128,-1,19
 1043 -31 1043 -31 881 137 c 1,20,21
 648 -31 648 -31 448 -31 c 0,22,23
 222 -31 222 -31 144 132 c 0,24,25
 117 189 117 189 117 271.5 c 128,-1,26
 117 354 117 354 155.5 414 c 128,-1,27
 194 474 194 474 262 512 c 0,28,29
 391 582 391 582 635 582 c 2,30,-1
 776 582 l 1,31,-1
 776 657 l 2,32,33
 776 801 776 801 755 853 c 128,-1,34
 734 905 734 905 702.5 929.5 c 128,-1,35
 671 954 671 954 628.5 954 c 128,-1,36
 586 954 586 954 546 940.5 c 128,-1,37
 506 927 506 927 464 906 c 128,-1,38
 422 885 422 885 381.5 861 c 128,-1,39
 341 837 341 837 310 816 c 0,40,41
 240 770 240 770 240 764 c 1,42,-1
 158 874 l 1,43,44
 143 892 143 892 143 914.5 c 128,-1,45
 143 937 143 937 165 957.5 c 128,-1,46
 187 978 187 978 222.5 994 c 128,-1,47
 258 1010 258 1010 303.5 1021.5 c 128,-1,48
 349 1033 349 1033 396 1040 c 0,49,50
 485 1055 485 1055 565 1055 c 0,0,1
1251 944 m 0,51,52
 1081 944 1081 944 1012 799 c 1,53,-1
 1012 580 l 1,54,-1
 1491 580 l 1,55,56
 1501 613 1501 613 1501 662.5 c 128,-1,57
 1501 712 1501 712 1484.5 762 c 128,-1,58
 1468 812 1468 812 1436 852 c 0,59,60
 1365 944 1365 944 1251 944 c 0,51,52
390 162 m 0,61,62
 434 118 434 118 513 118 c 0,63,64
 516 118 516 118 518 118 c 0,65,66
 601 120 601 120 776 178 c 1,67,-1
 776 459 l 1,68,-1
 608 459 l 2,69,70
 441 459 441 459 372 372 c 0,71,72
 346 339 346 339 346 273 c 128,-1,73
 346 207 346 207 390 162 c 0,61,62
EndSplineSet
EndChar

StartChar: section
Encoding: 167 167 218
Width: 998
Flags: W
LayerCount: 2
Fore
SplineSet
540 1536 m 0,0,1
 813 1536 813 1536 813 1446 c 0,2,3
 813 1426 813 1426 803 1411 c 1,4,-1
 749 1317 l 1,5,-1
 686 1352 l 1,6,7
 564 1423 564 1423 469 1423 c 0,8,9
 370 1423 370 1423 335 1350 c 0,10,11
 323 1324 323 1324 323 1286.5 c 128,-1,12
 323 1249 323 1249 346 1217.5 c 128,-1,13
 369 1186 369 1186 407 1160 c 128,-1,14
 445 1134 445 1134 493 1110 c 2,15,-1
 592 1062 l 2,16,17
 720 998 720 998 767 953 c 0,18,19
 860 862 860 862 860 755 c 0,20,21
 860 551 860 551 688 469 c 1,22,23
 850 374 850 374 850 221 c 0,24,25
 850 84 850 84 752 3 c 0,26,27
 661 -72 661 -72 522 -72 c 0,28,29
 326 -72 326 -72 176 29 c 0,30,31
 133 59 133 59 133 84 c 0,32,33
 133 95 133 95 143 111 c 2,34,-1
 213 217 l 1,35,36
 387 47 387 47 528 47 c 0,37,38
 633 47 633 47 676 114 c 0,39,40
 692 137 692 137 692 172.5 c 128,-1,41
 692 208 692 208 667 235.5 c 128,-1,42
 642 263 642 263 603.5 287 c 128,-1,43
 565 311 565 311 518.5 334 c 128,-1,44
 472 357 472 357 404.5 396.5 c 128,-1,45
 337 436 337 436 283 482 c 128,-1,46
 229 528 229 528 200 571 c 0,47,48
 155 640 155 640 155 737 c 0,49,50
 155 912 155 912 323 987 c 1,51,52
 166 1092 166 1092 166 1253 c 0,53,54
 166 1395 166 1395 289 1472 c 0,55,56
 391 1536 391 1536 540 1536 c 0,0,1
553 537 m 1,57,58
 702 590 702 590 702 705 c 0,59,60
 702 798 702 798 536 881 c 0,61,62
 490 904 490 904 444 924 c 1,63,64
 313 878 313 878 313 766 c 0,65,66
 313 654 313 654 468 580 c 0,67,68
 511 560 511 560 553 537 c 1,57,58
EndSplineSet
EndChar

StartChar: eth
Encoding: 240 240 219
Width: 1314
Flags: W
LayerCount: 2
Fore
SplineSet
335 1518 m 1,0,1
 610 1499 610 1499 804 1380 c 1,2,-1
 1081 1536 l 1,3,-1
 1099 1497 l 1,4,5
 1115 1466 1115 1466 1109 1450.5 c 128,-1,6
 1103 1435 1103 1435 1079 1421 c 2,7,-1
 894 1315 l 1,8,9
 1102 1124 1102 1124 1152 806 c 0,10,11
 1167 711 1167 711 1167 631.5 c 128,-1,12
 1167 552 1167 552 1156.5 478.5 c 128,-1,13
 1146 405 1146 405 1121.5 333 c 128,-1,14
 1097 261 1097 261 1057 195 c 128,-1,15
 1017 129 1017 129 958 79 c 0,16,17
 827 -31 827 -31 632 -31 c 0,18,19
 408 -31 408 -31 266 112 c 0,20,21
 122 258 122 258 122 489 c 0,22,23
 122 703 122 703 271 840 c 0,24,25
 415 973 415 973 632 973 c 0,26,27
 802 973 802 973 921 887 c 1,28,29
 870 1117 870 1117 741 1227 c 1,30,-1
 456 1065 l 1,31,-1
 433 1104 l 2,32,33
 416 1133 416 1133 423 1150.5 c 128,-1,34
 430 1168 430 1168 456 1184 c 1,35,-1
 655 1296 l 1,36,37
 508 1394 508 1394 321 1423 c 1,38,-1
 335 1518 l 1,0,1
521 110 m 0,39,40
 573 76 573 76 651.5 76 c 128,-1,41
 730 76 730 76 788.5 124.5 c 128,-1,42
 847 173 847 173 882 254 c 0,43,44
 937 382 937 382 937 563 c 0,45,46
 937 612 937 612 933 666 c 1,47,48
 891 753 891 753 841 792 c 0,49,50
 746 866 746 866 632 866 c 0,51,52
 497 866 497 866 428 745 c 0,53,54
 370 644 370 644 370 492 c 0,55,56
 370 209 370 209 521 110 c 0,39,40
EndSplineSet
EndChar

StartChar: yen
Encoding: 165 165 220
Width: 1448
Flags: W
LayerCount: 2
Fore
SplineSet
1270 1432 m 0,0,1
 1346 1432 1346 1432 1346 1321 c 0,2,3
 1346 1165 1346 1165 1124 848 c 2,4,-1
 986 651 l 1,5,-1
 1219 651 l 1,6,-1
 1219 623 l 2,7,8
 1219 589 1219 589 1204.5 576 c 128,-1,9
 1190 563 1190 563 1158 563 c 2,10,-1
 961 563 l 1,11,-1
 961 467 l 1,12,-1
 1219 467 l 1,13,-1
 1219 440 l 2,14,15
 1219 405 1219 405 1204.5 392 c 128,-1,16
 1190 379 1190 379 1158 379 c 2,17,-1
 961 379 l 1,18,-1
 961 315 l 2,19,20
 961 168 961 168 975 100 c 2,21,-1
 992 16 l 1,22,23
 928 -18 928 -18 855.5 -18 c 128,-1,24
 783 -18 783 -18 752 3.5 c 128,-1,25
 721 25 721 25 721 82 c 2,26,-1
 721 379 l 1,27,-1
 470 379 l 1,28,-1
 470 408 l 2,29,30
 470 442 470 442 484.5 454.5 c 128,-1,31
 499 467 499 467 533 467 c 2,32,-1
 719 467 l 1,33,-1
 719 563 l 1,34,-1
 470 563 l 1,35,-1
 470 592 l 2,36,37
 470 626 470 626 484.5 638.5 c 128,-1,38
 499 651 499 651 533 651 c 2,39,-1
 695 651 l 1,40,-1
 271 1247 l 1,41,-1
 95 1169 l 1,42,-1
 62 1241 l 1,43,44
 178 1348 178 1348 306 1404 c 0,45,46
 352 1425 352 1425 381 1425 c 0,47,48
 435 1425 435 1425 476 1364 c 2,49,-1
 900 754 l 1,50,-1
 904 754 l 1,51,52
 1013 908 1013 908 1046 978 c 0,53,54
 1102 1094 1102 1094 1102 1170 c 128,-1,55
 1102 1246 1102 1246 1066 1354 c 1,56,57
 1222 1432 1222 1432 1270 1432 c 0,0,1
EndSplineSet
EndChar

StartChar: mu
Encoding: 181 181 221
Width: 1359
Flags: W
LayerCount: 2
Fore
SplineSet
554 -31 m 0,0,1
 379 -31 379 -31 317 47 c 1,2,3
 317 -122 317 -122 341 -181 c 128,-1,4
 365 -240 365 -240 389.5 -262.5 c 128,-1,5
 414 -285 414 -285 448 -296 c 0,6,7
 497 -311 497 -311 616 -311 c 1,8,-1
 618 -395 l 1,9,10
 469 -492 469 -492 354 -492 c 0,11,12
 190 -492 190 -492 186 -283 c 1,13,-1
 186 1036 l 1,14,15
 287 1044 287 1044 320.5 1044 c 128,-1,16
 354 1044 354 1044 370 1043 c 128,-1,17
 386 1042 386 1042 397 1037 c 0,18,19
 419 1027 419 1027 419 991 c 2,20,-1
 419 369 l 2,21,22
 419 231 419 231 456 176 c 0,23,24
 497 115 497 115 628.5 115 c 128,-1,25
 760 115 760 115 884 176 c 1,26,-1
 884 1036 l 1,27,28
 983 1044 983 1044 1017.5 1044 c 128,-1,29
 1052 1044 1052 1044 1068 1043 c 128,-1,30
 1084 1042 1084 1042 1095 1037 c 0,31,32
 1117 1027 1117 1027 1117 991 c 2,33,-1
 1117 96 l 1,34,-1
 1292 96 l 1,35,-1
 1292 20 l 1,36,37
 1211 -23 1211 -23 1029 -23 c 0,38,39
 959 -23 959 -23 933 -9 c 0,40,41
 886 17 886 17 886 74 c 2,42,-1
 886 86 l 2,43,44
 886 87 886 87 872 78.5 c 128,-1,45
 858 70 858 70 833.5 57 c 128,-1,46
 809 44 809 44 777 29 c 128,-1,47
 745 14 745 14 708 0 c 0,48,49
 622 -31 622 -31 554 -31 c 0,0,1
EndSplineSet
EndChar

StartChar: onequarter
Encoding: 188 188 222
Width: 1572
Flags: W
LayerCount: 2
Fore
SplineSet
1347 23 m 1,0,1
 1315 0 1315 0 1251.5 0 c 128,-1,2
 1188 0 1188 0 1188 61 c 2,3,-1
 1188 242 l 1,4,-1
 825 242 l 2,5,6
 782 242 782 242 782 270 c 0,7,8
 782 286 782 286 790 299 c 2,9,-1
 1138 804 l 1,10,-1
 1191 875 l 2,11,12
 1213 903 1213 903 1220 907 c 1,13,14
 1230 909 1230 909 1247 909 c 2,15,-1
 1278 909 l 2,16,17
 1329 909 1329 909 1329 866 c 2,18,-1
 1329 338 l 1,19,-1
 1493 338 l 1,20,-1
 1493 291 l 2,21,22
 1493 242 1493 242 1442 242 c 2,23,-1
 1329 242 l 1,24,-1
 1329 205 l 2,25,26
 1329 125 1329 125 1336 83 c 2,27,-1
 1347 23 l 1,0,1
1186 338 m 1,28,-1
 1186 715 l 1,29,-1
 938 340 l 1,30,-1
 942 338 l 1,31,-1
 1186 338 l 1,28,-1
319 557 m 0,32,33
 248 557 248 557 248 618 c 2,34,-1
 248 1337 l 1,35,-1
 88 1280 l 1,36,-1
 67 1354 l 1,37,38
 152 1412 152 1412 266 1440 c 0,39,40
 303 1450 303 1450 335.5 1450 c 128,-1,41
 368 1450 368 1450 377.5 1440 c 128,-1,42
 387 1430 387 1430 387 1405 c 2,43,-1
 387 762 l 2,44,45
 387 683 387 683 394 640 c 2,46,-1
 405 578 l 1,47,48
 371 557 371 557 319 557 c 0,32,33
1044 1413 m 2,49,50
 1110 1413 1110 1413 1110 1380 c 0,51,52
 1110 1360 1110 1360 1096 1331 c 2,53,-1
 481 0 l 1,54,-1
 416 0 l 2,55,56
 364 0 364 0 364 27 c 0,57,58
 364 42 364 42 383 82 c 2,59,-1
 997 1413 l 1,60,-1
 1044 1413 l 2,49,50
EndSplineSet
EndChar

StartChar: threequarters
Encoding: 190 190 223
Width: 1781
Flags: W
LayerCount: 2
Fore
SplineSet
1564 4 m 1,0,1
 1529 -18 1529 -18 1478 -18 c 2,2,-1
 1467 -18 l 1,3,4
 1404 -11 1404 -11 1404 43 c 2,5,-1
 1404 221 l 1,6,-1
 1041 221 l 2,7,8
 998 221 998 221 998 250 c 0,9,10
 998 264 998 264 1007 279 c 1,11,12
 1354 782 l 1,13,-1
 1408 854 l 2,14,15
 1430 883 1430 883 1437 887 c 1,16,17
 1445 889 1445 889 1463 889 c 2,18,-1
 1494 889 l 2,19,20
 1545 889 1545 889 1545 846 c 2,21,-1
 1545 317 l 1,22,-1
 1709 317 l 1,23,-1
 1709 270 l 2,24,25
 1709 221 1709 221 1658 221 c 2,26,-1
 1545 221 l 1,27,-1
 1545 184 l 2,28,29
 1545 90 1545 90 1564 4 c 1,0,1
110 1386 m 0,30,31
 110 1450 110 1450 392 1450 c 0,32,33
 448 1450 448 1450 499.5 1446.5 c 128,-1,34
 551 1443 551 1443 593.5 1440.5 c 128,-1,35
 636 1438 636 1438 649.5 1433.5 c 128,-1,36
 663 1429 663 1429 669 1423 c 0,37,38
 677 1415 677 1415 677 1397 c 2,39,-1
 677 1372 l 1,40,41
 639 1242 639 1242 486 1108 c 0,42,43
 439 1067 439 1067 427 1061 c 1,44,45
 647 1045 647 1045 709 906 c 0,46,47
 730 858 730 858 730 797 c 256,48,49
 730 679 730 679 629 607 c 0,50,51
 534 539 534 539 396 539 c 0,52,53
 300 539 300 539 231 561.5 c 128,-1,54
 162 584 162 584 132.5 603.5 c 128,-1,55
 103 623 103 623 103 647 c 0,56,57
 103 660 103 660 112 674 c 1,58,-1
 159 764 l 1,59,-1
 216 722 l 1,60,61
 325 641 325 641 402 641 c 128,-1,62
 479 641 479 641 523.5 686.5 c 128,-1,63
 568 732 568 732 568 793.5 c 128,-1,64
 568 855 568 855 551.5 887 c 128,-1,65
 535 919 535 919 504 938 c 0,66,67
 446 975 446 975 327 975 c 1,68,-1
 282 973 l 1,69,-1
 282 1038 l 2,70,71
 282 1058 282 1058 288 1063 c 0,72,73
 475 1206 475 1206 501 1352 c 1,74,-1
 398 1352 l 2,75,76
 291 1352 291 1352 223 1310 c 0,77,78
 197 1294 197 1294 185.5 1279.5 c 128,-1,79
 174 1265 174 1265 173 1262 c 1,80,-1
 138 1326 l 2,81,82
 110 1377 110 1377 110 1386 c 0,30,31
1261 1413 m 2,83,84
 1326 1413 1326 1413 1326 1380 c 0,85,86
 1326 1360 1326 1360 1312 1331 c 2,87,-1
 697 0 l 1,88,-1
 632 0 l 2,89,90
 581 0 581 0 581 27 c 0,91,92
 581 44 581 44 599 82 c 2,93,-1
 1213 1413 l 1,94,-1
 1261 1413 l 2,83,84
1402 317 m 1,95,-1
 1402 694 l 1,96,-1
 1154 319 l 1,97,-1
 1158 317 l 1,98,-1
 1402 317 l 1,95,-1
EndSplineSet
EndChar

StartChar: ordmasculine
Encoding: 186 186 224
Width: 861
Flags: W
LayerCount: 2
Fore
SplineSet
779 1125 m 256,0,1
 779 971 779 971 677 872 c 0,2,3
 579 778 579 778 431 778 c 0,4,5
 282 778 282 778 184 872 c 0,6,7
 82 970 82 970 82 1125 c 256,8,9
 82 1281 82 1281 184 1379 c 0,10,11
 283 1475 283 1475 431 1475 c 256,12,13
 580 1475 580 1475 678 1379 c 0,14,15
 779 1280 779 1280 779 1125 c 256,0,1
432 1404 m 256,16,17
 264 1404 264 1404 264 1127 c 0,18,19
 264 986 264 986 309 919.5 c 128,-1,20
 354 853 354 853 432 853 c 0,21,22
 598 853 598 853 598 1128.5 c 128,-1,23
 598 1404 598 1404 432 1404 c 256,16,17
EndSplineSet
EndChar

StartChar: cent
Encoding: 162 162 225
Width: 1155
Flags: W
LayerCount: 2
Fore
SplineSet
541 1133 m 1,0,1
 378 1069 378 1069 339 846 c 0,2,3
 328 783 328 783 328 720.5 c 128,-1,4
 328 658 328 658 341 599.5 c 128,-1,5
 354 541 354 541 380 492 c 0,6,7
 434 389 434 389 541 342 c 1,8,-1
 541 1133 l 1,0,1
1020 283 m 1,9,10
 873 190 873 190 658 178 c 1,11,-1
 658 0 l 1,12,-1
 619 0 l 2,13,14
 574 0 574 0 557.5 19.5 c 128,-1,15
 541 39 541 39 541 82 c 2,16,-1
 541 182 l 1,17,18
 348 205 348 205 225 328 c 0,19,20
 93 458 93 458 93 662 c 0,21,22
 93 879 93 879 221 1035 c 0,23,24
 341 1181 341 1181 541 1235 c 1,25,-1
 541 1450 l 1,26,-1
 578 1450 l 2,27,28
 623 1450 623 1450 640.5 1430.5 c 128,-1,29
 658 1411 658 1411 658 1368 c 2,30,-1
 658 1257 l 1,31,32
 698 1264 698 1264 731 1264 c 128,-1,33
 764 1264 764 1264 788.5 1262.5 c 128,-1,34
 813 1261 813 1261 843.5 1257.5 c 128,-1,35
 874 1254 874 1254 907 1247.5 c 128,-1,36
 940 1241 940 1241 967 1231 c 0,37,38
 1029 1208 1029 1208 1029 1176 c 0,39,40
 1029 1167 1029 1167 1022 1153 c 1,41,-1
 938 1020 l 1,42,-1
 878 1056 l 1,43,44
 758 1125 758 1125 658 1141 c 1,45,-1
 658 311 l 1,46,47
 692 307 692 307 727 307 c 0,48,49
 845 307 845 307 994 350 c 1,50,-1
 1020 283 l 1,9,10
EndSplineSet
EndChar

StartChar: AE
Encoding: 198 198 226
Width: 1945
Flags: W
LayerCount: 2
Fore
SplineSet
1283 141 m 2,0,1
 1577 141 1577 141 1818 219 c 1,2,3
 1824 219 1824 219 1831 172.5 c 128,-1,4
 1838 126 1838 126 1838 93.5 c 128,-1,5
 1838 61 1838 61 1816.5 37 c 128,-1,6
 1795 13 1795 13 1745 2 c 0,7,8
 1677 -13 1677 -13 1451 -13 c 0,9,10
 1326 -13 1326 -13 1154 -8 c 0,11,12
 1057 -6 1057 -6 998.5 -0.5 c 128,-1,13
 940 5 940 5 924 24 c 128,-1,14
 908 43 908 43 908 86 c 2,15,-1
 908 381 l 1,16,-1
 388 381 l 1,17,18
 290 185 290 185 290 45 c 2,19,-1
 290 24 l 2,20,21
 290 13 290 13 292 4 c 1,22,-1
 93 -14 l 1,23,24
 85 -16 85 -16 78 -16 c 2,25,-1
 62 -16 l 2,26,27
 -3 -16 -3 -16 -3 29 c 0,28,29
 -3 39 -3 39 9.5 77 c 128,-1,30
 22 115 22 115 61 190 c 128,-1,31
 100 265 100 265 150 349 c 1,32,33
 296 579 296 579 370 685 c 2,34,-1
 508 876 l 1,35,-1
 739 1182 l 1,36,-1
 886 1368 l 2,37,38
 907 1394 907 1394 908 1395 c 1,39,-1
 908 1397 l 1,40,41
 1128 1423 1128 1423 1355 1423 c 0,42,43
 1842 1423 1842 1423 1842 1325 c 0,44,45
 1842 1296 1842 1296 1798.5 1226.5 c 128,-1,46
 1755 1157 1755 1157 1750 1151 c 0,47,48
 1750 1152 1750 1152 1723.5 1169.5 c 128,-1,49
 1697 1187 1697 1187 1644 1208 c 0,50,51
 1506 1265 1506 1265 1324 1268 c 1,52,-1
 1144 1270 l 1,53,-1
 1144 801 l 1,54,-1
 1631 801 l 1,55,-1
 1631 752 l 2,56,57
 1631 699 1631 699 1609 679 c 128,-1,58
 1587 659 1587 659 1537 659 c 2,59,-1
 1144 659 l 1,60,-1
 1144 141 l 1,61,-1
 1283 141 l 2,0,1
904 1182 m 1,62,63
 624 779 624 779 565 686.5 c 128,-1,64
 506 594 506 594 462 518 c 1,65,-1
 908 518 l 1,66,-1
 908 1180 l 1,67,68
 904 1180 904 1180 904 1182 c 1,62,63
EndSplineSet
EndChar

StartChar: A.alt
Encoding: 65543 -1 228
Width: 2074
Flags: W
LayerCount: 2
Fore
SplineSet
2094 158 m 1,0,1
 1895 -25 1895 -25 1766 -25 c 0,2,3
 1705 -25 1705 -25 1680 33 c 2,4,-1
 1531 381 l 1,5,-1
 949 381 l 1,6,7
 930 330 930 330 907.5 261.5 c 128,-1,8
 885 193 885 193 854 117 c 0,9,10
 738 -173 738 -173 582 -280 c 0,11,12
 409 -399 409 -399 181 -399 c 0,13,14
 87 -399 87 -399 4 -373 c 128,-1,15
 -79 -347 -79 -347 -113 -330 c 0,16,17
 -190 -290 -190 -290 -190 -240 c 0,18,19
 -190 -214 -190 -214 -165 -180 c 2,20,-1
 -73 -53 l 1,21,-1
 7 -112 l 2,22,23
 84 -170 84 -170 147.5 -184.5 c 128,-1,24
 211 -199 211 -199 271 -199 c 128,-1,25
 331 -199 331 -199 379.5 -182.5 c 128,-1,26
 428 -166 428 -166 468 -140 c 0,27,28
 541 -92 541 -92 591 -12.5 c 128,-1,29
 641 67 641 67 688.5 169 c 128,-1,30
 736 271 736 271 779 382.5 c 128,-1,31
 822 494 822 494 863 612 c 0,32,33
 984 956 984 956 1027.5 1071 c 128,-1,34
 1071 1186 1071 1186 1119 1286 c 1,35,-1
 886 1286 l 2,36,37
 757 1286 757 1286 642.5 1281 c 128,-1,38
 528 1276 528 1276 442 1250 c 0,39,40
 255 1196 255 1196 255 1024 c 0,41,42
 255 864 255 864 444 761 c 1,43,-1
 544 709 l 1,44,-1
 486 580 l 2,45,46
 465 535 465 535 423 535 c 0,47,48
 398 535 398 535 350 555 c 128,-1,49
 302 575 302 575 251 615.5 c 128,-1,50
 200 656 200 656 162 709 c 0,51,52
 81 822 81 822 81 942 c 128,-1,53
 81 1062 81 1062 109.5 1133.5 c 128,-1,54
 138 1205 138 1205 189.5 1254.5 c 128,-1,55
 241 1304 241 1304 311.5 1335 c 128,-1,56
 382 1366 382 1366 466 1382 c 0,57,58
 612 1411 612 1411 839 1411 c 2,59,-1
 1306 1411 l 2,60,61
 1356 1411 1356 1411 1374 1398 c 0,62,63
 1404 1379 1404 1379 1424 1329 c 2,64,-1
 1885 160 l 1,65,-1
 2061 229 l 1,66,-1
 2094 158 l 1,0,1
1228 1182 m 1,67,68
 1101 892 1101 892 996 518 c 1,69,-1
 1480 518 l 1,70,-1
 1238 1182 l 1,71,-1
 1228 1182 l 1,67,68
EndSplineSet
EndChar

StartChar: B.alt
Encoding: 65544 -1 229
Width: 2056
Flags: W
LayerCount: 2
Fore
SplineSet
1347 109 m 0,0,1
 1683 109 1683 109 1683 362 c 0,2,3
 1683 621 1683 621 1388 639 c 0,4,5
 1357 641 1357 641 1328 641 c 2,6,-1
 1272 641 l 2,7,8
 1192 641 1192 641 1108 637 c 1,9,-1
 1108 141 l 1,10,11
 1204 109 1204 109 1347 109 c 0,0,1
1108 776 m 1,12,13
 1172 764 1172 764 1272.5 764 c 128,-1,14
 1373 764 1373 764 1447 785.5 c 128,-1,15
 1521 807 1521 807 1568 844 c 0,16,17
 1655 914 1655 914 1655 1034 c 0,18,19
 1655 1210 1655 1210 1522 1264 c 0,20,21
 1448 1293 1448 1293 1361.5 1295.5 c 128,-1,22
 1275 1298 1275 1298 1218 1298 c 2,23,-1
 1139 1297 l 2,24,25
 1121 1296 1121 1296 1108 1296 c 1,26,-1
 1108 776 l 1,12,13
1614 715 m 1,27,28
 1921 682 1921 682 1921 379 c 0,29,30
 1921 156 1921 156 1746 60 c 0,31,32
 1602 -20 1602 -20 1317 -20 c 0,33,34
 925 -20 925 -20 880 24 c 0,35,36
 860 43 860 43 860 86 c 2,37,-1
 860 1280 l 1,38,39
 407 1280 407 1280 289 1110 c 0,40,41
 256 1063 256 1063 256 999 c 128,-1,42
 256 935 256 935 281.5 888.5 c 128,-1,43
 307 842 307 842 348 806 c 0,44,45
 408 753 408 753 534 692 c 1,46,-1
 477 563 l 2,47,48
 456 518 456 518 413 518 c 0,49,50
 386 518 386 518 337 540 c 128,-1,51
 288 562 288 562 236.5 604.5 c 128,-1,52
 185 647 185 647 148 703 c 0,53,54
 73 819 73 819 73 975 c 1,55,56
 79 1179 79 1179 270 1290 c 0,57,58
 491 1418 491 1418 972 1429 c 0,59,60
 1103 1432 1103 1432 1205.5 1432 c 128,-1,61
 1308 1432 1308 1432 1390.5 1428.5 c 128,-1,62
 1473 1425 1473 1425 1546.5 1411.5 c 128,-1,63
 1620 1398 1620 1398 1682 1372 c 128,-1,64
 1744 1346 1744 1346 1789 1301 c 0,65,66
 1884 1206 1884 1206 1884 1030 c 0,67,68
 1884 884 1884 884 1776 787 c 0,69,70
 1710 728 1710 728 1614 715 c 1,27,28
EndSplineSet
EndChar

StartChar: C.alt
Encoding: 65545 -1 230
Width: 1515
Flags: W
LayerCount: 2
Fore
SplineSet
987 -145 m 0,0,1
 1180 -145 1180 -145 1443 -49 c 1,2,-1
 1484 -127 l 1,3,4
 1328 -248 1328 -248 1078 -288 c 0,5,6
 997 -301 997 -301 913 -301 c 0,7,8
 526 -301 526 -301 316 -24 c 0,9,10
 116 238 116 238 116 702 c 1,11,12
 119 1067 119 1067 309 1304 c 0,13,14
 525 1575 525 1575 950 1575 c 0,15,16
 1172 1575 1172 1575 1306 1519 c 0,17,18
 1386 1486 1386 1486 1386 1442 c 0,19,20
 1386 1424 1386 1424 1374 1403 c 2,21,-1
 1290 1262 l 1,22,23
 1257 1280 1257 1280 1212 1310.5 c 128,-1,24
 1167 1341 1167 1341 1113 1370 c 0,25,26
 982 1442 982 1442 882.5 1442 c 128,-1,27
 783 1442 783 1442 713.5 1407.5 c 128,-1,28
 644 1373 644 1373 589.5 1315.5 c 128,-1,29
 535 1258 535 1258 495.5 1183.5 c 128,-1,30
 456 1109 456 1109 430 1029 c 0,31,32
 378 874 378 874 378 703 c 128,-1,33
 378 532 378 532 410 394.5 c 128,-1,34
 442 257 442 257 494 160.5 c 128,-1,35
 546 64 546 64 612 4.5 c 128,-1,36
 678 -55 678 -55 746 -88 c 0,37,38
 861 -145 861 -145 987 -145 c 0,0,1
EndSplineSet
EndChar

StartChar: D.alt
Encoding: 65546 -1 231
Width: 2233
Flags: W
LayerCount: 2
Fore
SplineSet
1545 1275 m 128,-1,1
 1434 1309 1434 1309 1306.5 1309 c 128,-1,2
 1179 1309 1179 1309 1091 1305 c 1,3,-1
 1093 141 l 1,4,5
 1216 127 1216 127 1332.5 127 c 128,-1,6
 1449 127 1449 127 1545 159 c 128,-1,7
 1641 191 1641 191 1706 260 c 0,8,9
 1839 400 1839 400 1839 702 c 0,10,11
 1839 864 1839 864 1813 979.5 c 128,-1,12
 1787 1095 1787 1095 1721.5 1168 c 128,-1,0
 1656 1241 1656 1241 1545 1275 c 128,-1,1
1317 1444 m 2,13,14
 1730 1444 1730 1444 1910 1278 c 0,15,16
 2097 1106 2097 1106 2097 702 c 0,17,18
 2097 352 2097 352 1902 170 c 0,19,20
 1720 0 1720 0 1409 0 c 2,21,-1
 936 0 l 2,22,23
 891 0 891 0 874.5 19.5 c 128,-1,24
 858 39 858 39 858 82 c 2,25,-1
 858 1296 l 1,26,27
 407 1296 407 1296 289 1126 c 0,28,29
 256 1079 256 1079 256 1015 c 128,-1,30
 256 951 256 951 281.5 905 c 128,-1,31
 307 859 307 859 348 823 c 0,32,33
 408 770 408 770 534 709 c 1,34,-1
 477 580 l 2,35,36
 456 535 456 535 413 535 c 0,37,38
 389 535 389 535 339.5 555.5 c 128,-1,39
 290 576 290 576 239 618 c 128,-1,40
 188 660 188 660 151 715 c 0,41,42
 73 831 73 831 73 981 c 0,43,44
 73 1342 73 1342 650 1418 c 0,45,46
 829 1441 829 1441 986.5 1442.5 c 128,-1,47
 1144 1444 1144 1444 1237 1444 c 2,48,-1
 1317 1444 l 2,13,14
EndSplineSet
EndChar

StartChar: E.alt
Encoding: 65547 -1 232
Width: 1943
Flags: W
LayerCount: 2
Fore
SplineSet
836 1287 m 2,0,-1
 766 1288 l 1,1,2
 459 1288 459 1288 339 1202 c 0,3,4
 248 1136 248 1136 248 1024 c 0,5,6
 248 865 248 865 437 761 c 1,7,-1
 536 709 l 1,8,-1
 479 580 l 2,9,10
 458 535 458 535 415 535 c 0,11,12
 391 535 391 535 340.5 556.5 c 128,-1,13
 290 578 290 578 238.5 620.5 c 128,-1,14
 187 663 187 663 150 720 c 0,15,16
 76 835 76 835 76 962 c 0,17,18
 76 1093 76 1093 114 1166 c 0,19,20
 152 1237 152 1237 213.5 1284 c 128,-1,21
 275 1331 275 1331 355 1357 c 128,-1,22
 435 1383 435 1383 522 1396 c 0,23,24
 678 1421 678 1421 980 1421 c 2,25,-1
 1099 1421 l 2,26,27
 1137 1421 1137 1421 1188.5 1422 c 128,-1,28
 1240 1423 1240 1423 1300 1424 c 0,29,30
 1319 1424 1319 1424 1340 1424 c 0,31,32
 1380 1424 1380 1424 1422 1423 c 0,33,34
 1484 1422 1484 1422 1544 1419 c 128,-1,35
 1604 1416 1604 1416 1657.5 1409.5 c 128,-1,36
 1711 1403 1711 1403 1752 1392 c 0,37,38
 1839 1368 1839 1368 1839 1325 c 0,39,40
 1839 1279 1839 1279 1767 1178 c 0,41,42
 1752 1157 1752 1157 1747 1151 c 0,43,44
 1747 1152 1747 1152 1720.5 1170 c 128,-1,45
 1694 1188 1694 1188 1640 1210 c 0,46,47
 1499 1266 1499 1266 1321 1268 c 2,48,-1
 1099 1270 l 1,49,-1
 1099 801 l 1,50,-1
 1628 801 l 1,51,-1
 1628 752 l 2,52,53
 1628 699 1628 699 1605.5 679 c 128,-1,54
 1583 659 1583 659 1534 659 c 2,55,-1
 1099 659 l 1,56,-1
 1099 141 l 1,57,-1
 1280 141 l 2,58,59
 1573 141 1573 141 1814 219 c 0,60,61
 1813 219 1813 219 1816.5 209 c 128,-1,62
 1820 199 1820 199 1824 183 c 0,63,64
 1835 139 1835 139 1835 99 c 128,-1,65
 1835 59 1835 59 1811 35 c 128,-1,66
 1787 11 1787 11 1734 0 c 0,67,68
 1665 -13 1665 -13 1439 -13 c 0,69,70
 1306 -13 1306 -13 1120 -8 c 0,71,72
 1015 -6 1015 -6 955 -1 c 128,-1,73
 895 4 895 4 879.5 23.5 c 128,-1,74
 864 43 864 43 864 86 c 2,75,-1
 864 1286 l 1,76,77
 851 1286 851 1286 836 1287 c 2,0,-1
EndSplineSet
EndChar

StartChar: H.alt
Encoding: 65548 -1 233
Width: 2281
Flags: W
LayerCount: 2
Fore
SplineSet
1903 1419 m 0,0,1
 2024 1419 2024 1419 2024 1321 c 2,2,-1
 2024 115 l 1,3,-1
 2212 115 l 1,4,-1
 2212 29 l 1,5,6
 2118 -18 2118 -18 1932 -18 c 0,7,8
 1827 -18 1827 -18 1799 28 c 0,9,10
 1788 47 1788 47 1788 78 c 2,11,-1
 1788 659 l 1,12,-1
 1098 659 l 1,13,-1
 1098 315 l 2,14,15
 1098 -49 1098 -49 927.5 -224 c 128,-1,16
 757 -399 757 -399 416 -399 c 0,17,18
 325 -399 325 -399 240 -373 c 128,-1,19
 155 -347 155 -347 120 -330 c 0,20,21
 43 -290 43 -290 43 -240 c 0,22,23
 43 -214 43 -214 68 -180 c 2,24,-1
 160 -53 l 1,25,-1
 254 -114 l 1,26,27
 417 -217 417 -217 566 -217 c 0,28,29
 771 -217 771 -217 829 -44 c 0,30,31
 860 50 860 50 861 141 c 128,-1,32
 862 232 862 232 863 283 c 1,33,-1
 863 1286 l 1,34,35
 850 1286 850 1286 835 1287 c 2,36,-1
 764 1288 l 1,37,38
 459 1288 459 1288 338 1202 c 0,39,40
 246 1136 246 1136 246 1024 c 0,41,42
 246 864 246 864 436 761 c 1,43,-1
 535 709 l 1,44,-1
 478 580 l 1,45,46
 456 535 456 535 414 535 c 0,47,48
 390 535 390 535 340.5 555.5 c 128,-1,49
 291 576 291 576 240 618 c 128,-1,50
 189 660 189 660 152 715 c 0,51,52
 74 831 74 831 74 981 c 0,53,54
 74 1244 74 1244 312 1342 c 0,55,56
 487 1413 487 1413 834 1413 c 2,57,-1
 923 1413 l 2,58,59
 1055 1413 1055 1413 1072 1406 c 0,60,61
 1098 1395 1098 1395 1098 1360 c 2,62,-1
 1098 801 l 1,63,-1
 1788 801 l 1,64,-1
 1788 1096 l 2,65,66
 1788 1245 1788 1245 1774 1309 c 2,67,-1
 1758 1386 l 1,68,69
 1813 1419 1813 1419 1903 1419 c 0,0,1
EndSplineSet
EndChar

StartChar: J.alt
Encoding: 65549 -1 234
Width: 1305
Flags: W
LayerCount: 2
Fore
SplineSet
836 1287 m 2,0,-1
 766 1288 l 1,1,2
 459 1288 459 1288 339 1202 c 0,3,4
 248 1136 248 1136 248 1024 c 0,5,6
 248 865 248 865 437 761 c 1,7,-1
 536 709 l 1,8,-1
 479 580 l 2,9,10
 458 535 458 535 415 535 c 0,11,12
 391 535 391 535 341.5 555.5 c 128,-1,13
 292 576 292 576 241 618 c 128,-1,14
 190 660 190 660 153 715 c 0,15,16
 75 831 75 831 75 981 c 0,17,18
 75 1244 75 1244 313 1342 c 0,19,20
 488 1413 488 1413 835 1413 c 2,21,-1
 924 1413 l 2,22,23
 1056 1413 1056 1413 1073 1406 c 0,24,25
 1099 1395 1099 1395 1099 1360 c 2,26,-1
 1097 23 l 2,27,28
 1097 -223 1097 -223 946 -363 c 0,29,30
 803 -494 803 -494 577 -494 c 0,31,32
 405 -494 405 -494 405 -436 c 0,33,34
 405 -428 405 -428 409 -418 c 2,35,-1
 475 -244 l 1,36,37
 651 -332 651 -332 735 -332 c 0,38,39
 864 -332 864 -332 864 -10 c 2,40,-1
 864 1286 l 1,41,42
 851 1286 851 1286 836 1287 c 2,0,-1
EndSplineSet
EndChar

StartChar: K.alt
Encoding: 65550 -1 235
Width: 2050
Flags: W
LayerCount: 2
Fore
SplineSet
2007 197 m 1,0,1
 1840 -14 1840 -14 1693 -14 c 0,2,3
 1639 -14 1639 -14 1595 47 c 2,4,-1
 1173 647 l 1,5,6
 1149 678 1149 678 1149 701 c 0,7,8
 1149 736 1149 736 1179 764 c 1,9,-1
 1338 904 l 1,10,11
 1575 1118 1575 1118 1575 1233 c 0,12,13
 1575 1276 1575 1276 1562 1309 c 1,14,-1
 1759 1403 l 2,15,16
 1786 1415 1786 1415 1813.5 1415 c 128,-1,17
 1841 1415 1841 1415 1860.5 1393.5 c 128,-1,18
 1880 1372 1880 1372 1880 1335.5 c 128,-1,19
 1880 1299 1880 1299 1858.5 1255 c 128,-1,20
 1837 1211 1837 1211 1802 1165 c 128,-1,21
 1767 1119 1767 1119 1722 1073 c 128,-1,22
 1677 1027 1677 1027 1630 984 c 1,23,-1
 1398 786 l 2,24,25
 1375 767 1375 767 1374 762 c 1,26,-1
 1812 164 l 1,27,-1
 1960 262 l 1,28,-1
 2007 197 l 1,0,1
985 -18 m 0,29,30
 864 -18 864 -18 864 82 c 2,31,-1
 864 1286 l 1,32,33
 851 1286 851 1286 836 1287 c 2,34,-1
 766 1288 l 1,35,36
 459 1288 459 1288 339 1202 c 0,37,38
 248 1136 248 1136 248 1024 c 0,39,40
 248 865 248 865 437 761 c 1,41,-1
 536 709 l 1,42,-1
 479 580 l 2,43,44
 458 535 458 535 415 535 c 0,45,46
 391 535 391 535 341.5 555.5 c 128,-1,47
 292 576 292 576 241 618 c 128,-1,48
 190 660 190 660 153 715 c 0,49,50
 75 831 75 831 75 981 c 0,51,52
 75 1244 75 1244 313 1342 c 0,53,54
 488 1413 488 1413 835 1413 c 2,55,-1
 924 1413 l 2,56,57
 1056 1413 1056 1413 1073 1406 c 0,58,59
 1099 1395 1099 1395 1099 1360 c 2,60,-1
 1099 315 l 2,61,62
 1099 168 1099 168 1113 100 c 2,63,-1
 1130 16 l 1,64,65
 1072 -18 1072 -18 985 -18 c 0,29,30
EndSplineSet
EndChar

StartChar: L.alt
Encoding: 65551 -1 236
Width: 1861
Flags: W
LayerCount: 2
Fore
SplineSet
836 1287 m 2,0,-1
 766 1288 l 1,1,2
 459 1288 459 1288 339 1202 c 0,3,4
 248 1136 248 1136 248 1024 c 0,5,6
 248 865 248 865 437 761 c 1,7,-1
 536 709 l 1,8,-1
 479 580 l 2,9,10
 458 535 458 535 415 535 c 0,11,12
 391 535 391 535 341.5 555.5 c 128,-1,13
 292 576 292 576 241 618 c 128,-1,14
 190 660 190 660 153 715 c 0,15,16
 75 831 75 831 75 981 c 0,17,18
 75 1244 75 1244 313 1342 c 0,19,20
 488 1413 488 1413 835 1413 c 2,21,-1
 924 1413 l 2,22,23
 1056 1413 1056 1413 1073 1406 c 0,24,25
 1099 1395 1099 1395 1099 1360 c 2,26,-1
 1099 141 l 1,27,-1
 1280 141 l 2,28,29
 1573 141 1573 141 1814 219 c 0,30,31
 1813 219 1813 219 1816.5 209 c 128,-1,32
 1820 199 1820 199 1824 183 c 0,33,34
 1835 139 1835 139 1835 101 c 128,-1,35
 1835 63 1835 63 1815.5 39.5 c 128,-1,36
 1796 16 1796 16 1752 4 c 0,37,38
 1689 -12 1689 -12 1468 -12 c 0,39,40
 1092 -12 1092 -12 942 0 c 0,41,42
 895 4 895 4 879.5 23.5 c 128,-1,43
 864 43 864 43 864 86 c 2,44,-1
 864 1286 l 1,45,46
 851 1286 851 1286 836 1287 c 2,0,-1
EndSplineSet
EndChar

StartChar: M.alt
Encoding: 65552 -1 237
Width: 2606
Flags: W
LayerCount: 2
Fore
SplineSet
841 1287 m 2,0,-1
 771 1288 l 1,1,2
 464 1288 464 1288 344 1202 c 0,3,4
 253 1136 253 1136 253 1024 c 0,5,6
 253 865 253 865 442 761 c 1,7,-1
 541 709 l 1,8,-1
 484 580 l 2,9,10
 463 535 463 535 421 535 c 0,11,12
 396 535 396 535 346.5 555.5 c 128,-1,13
 297 576 297 576 246 618 c 128,-1,14
 195 660 195 660 158 715 c 0,15,16
 81 832 81 832 81 958.5 c 128,-1,17
 81 1085 81 1085 114.5 1157.5 c 128,-1,18
 148 1230 148 1230 207.5 1277.5 c 128,-1,19
 267 1325 267 1325 348.5 1352 c 128,-1,20
 430 1379 430 1379 526 1392 c 0,21,22
 666 1411 666 1411 818.5 1411 c 128,-1,23
 971 1411 971 1411 997 1409 c 128,-1,24
 1023 1407 1023 1407 1048 1400 c 0,25,26
 1103 1386 1103 1386 1121 1346 c 0,27,28
 1225 1104 1225 1104 1268 995 c 1,29,30
 1474 440 1474 440 1500 364 c 2,31,-1
 1536 260 l 2,32,33
 1547 232 1547 232 1547 231 c 1,34,-1
 1553 231 l 1,35,-1
 1794 995 l 1,36,37
 1898 1318 1898 1318 1938 1384 c 1,38,39
 1933 1394 1933 1394 2003 1405.5 c 128,-1,40
 2073 1417 2073 1417 2096.5 1417 c 128,-1,41
 2120 1417 2120 1417 2135 1412.5 c 128,-1,42
 2150 1408 2150 1408 2159 1398 c 0,43,44
 2173 1384 2173 1384 2182 1341 c 1,45,-1
 2370 135 l 1,46,-1
 2561 164 l 1,47,-1
 2579 90 l 1,48,49
 2538 49 2538 49 2462 21 c 0,50,51
 2328 -27 2328 -27 2245 -27 c 0,52,53
 2151 -27 2151 -27 2141 49 c 1,54,-1
 1989 1061 l 1,55,56
 1694 225 1694 225 1664 147 c 2,57,-1
 1622 38 l 2,58,59
 1609 7 1609 7 1604 0 c 1,60,-1
 1496 0 l 2,61,62
 1425 0 1425 0 1397 41 c 0,63,64
 1386 57 1386 57 1332 200 c 2,65,-1
 1017 1051 l 1,66,67
 996 706 996 706 928 357 c 0,68,69
 914 285 914 285 887.5 182 c 128,-1,70
 861 79 861 79 797 -34.5 c 128,-1,71
 733 -148 733 -148 644 -226 c 0,72,73
 460 -389 460 -389 189 -389 c 0,74,75
 95 -389 95 -389 12 -363 c 128,-1,76
 -71 -337 -71 -337 -105 -319 c 0,77,78
 -182 -278 -182 -278 -182 -229 c 0,79,80
 -182 -204 -182 -204 -157 -170 c 2,81,-1
 -65 -43 l 1,82,-1
 15 -102 l 2,83,84
 90 -158 90 -158 154.5 -173 c 128,-1,85
 219 -188 219 -188 285.5 -188 c 128,-1,86
 352 -188 352 -188 411 -163 c 128,-1,87
 470 -138 470 -138 518 -94 c 128,-1,88
 566 -50 566 -50 604 6 c 0,89,90
 663 94 663 94 711.5 233.5 c 128,-1,91
 760 373 760 373 787 497.5 c 128,-1,92
 814 622 814 622 831 751 c 0,93,94
 860 970 860 970 869 1286 c 1,95,96
 856 1286 856 1286 841 1287 c 2,0,-1
EndSplineSet
EndChar

StartChar: N.alt
Encoding: 65553 -1 238
Width: 2120
Flags: W
LayerCount: 2
Fore
SplineSet
838 1287 m 2,0,-1
 768 1288 l 1,1,2
 461 1288 461 1288 341 1202 c 0,3,4
 250 1136 250 1136 250 1024 c 0,5,6
 250 865 250 865 439 761 c 1,7,-1
 538 709 l 1,8,-1
 481 580 l 2,9,10
 460 535 460 535 417 535 c 0,11,12
 343 535 343 535 243 617 c 0,13,14
 77 754 77 754 77 981 c 0,15,16
 77 1246 77 1246 288 1342 c 0,17,18
 446 1415 446 1415 772 1415 c 0,19,20
 970 1415 970 1415 1018 1394 c 0,21,22
 1040 1384 1040 1384 1052 1366 c 2,23,-1
 1769 346 l 1,24,25
 1760 1131 1760 1131 1706 1378 c 0,26,27
 1707 1378 1707 1378 1712 1379.5 c 128,-1,28
 1717 1381 1717 1381 1732 1385 c 2,29,-1
 1772 1396 l 2,30,31
 1799 1403 1799 1403 1824 1409 c 0,32,33
 1856 1417 1856 1417 1875.5 1417 c 128,-1,34
 1895 1417 1895 1417 1905.5 1407 c 128,-1,35
 1916 1397 1916 1397 1922 1376 c 0,36,37
 1929 1349 1929 1349 1929 1247 c 0,38,39
 1929 742 1929 742 1874 0 c 1,40,-1
 1781 0 l 2,41,42
 1733 0 1733 0 1710 35 c 1,43,-1
 1020 1034 l 1,44,45
 1052 638 1052 638 1052 444 c 0,46,47
 1052 190 1052 190 1041 100.5 c 128,-1,48
 1030 11 1030 11 1022 -14 c 1,49,-1
 893 4 l 1,50,51
 819 19 819 19 819 98 c 0,52,53
 819 121 819 121 827 158.5 c 128,-1,54
 835 196 835 196 843.5 252.5 c 128,-1,55
 852 309 852 309 858 391 c 0,56,57
 870 555 870 555 870 798.5 c 128,-1,58
 870 1042 870 1042 866 1286 c 1,59,60
 853 1286 853 1286 838 1287 c 2,0,-1
EndSplineSet
EndChar

StartChar: P.alt
Encoding: 65554 -1 239
Width: 1936
Flags: W
LayerCount: 2
Fore
SplineSet
1369.5 1283 m 128,-1,1
 1305 1294 1305 1294 1230 1294 c 128,-1,2
 1155 1294 1155 1294 1097 1288 c 1,3,-1
 1097 702 l 1,4,5
 1160 680 1160 680 1271.5 680 c 128,-1,6
 1383 680 1383 680 1448 705.5 c 128,-1,7
 1513 731 1513 731 1550 773 c 0,8,9
 1616 846 1616 846 1616 981 c 0,10,11
 1616 1080 1616 1080 1596.5 1126.5 c 128,-1,12
 1577 1173 1577 1173 1550 1202 c 128,-1,13
 1523 1231 1523 1231 1478.5 1251.5 c 128,-1,0
 1434 1272 1434 1272 1369.5 1283 c 128,-1,1
862 1288 m 1,14,15
 256 1288 256 1288 256 1012 c 0,16,17
 256 861 256 861 437 760 c 0,18,19
 486 732 486 732 534 709 c 1,20,-1
 477 580 l 2,21,22
 456 535 456 535 413 535 c 0,23,24
 389 535 389 535 339.5 555.5 c 128,-1,25
 290 576 290 576 239 618 c 128,-1,26
 188 660 188 660 151 715 c 0,27,28
 73 831 73 831 73 981 c 0,29,30
 73 1213 73 1213 302 1320 c 0,31,32
 529 1426 529 1426 998 1431 c 0,33,34
 1091 1432 1091 1432 1176 1432 c 128,-1,35
 1261 1432 1261 1432 1344 1428.5 c 128,-1,36
 1427 1425 1427 1425 1502 1411 c 128,-1,37
 1577 1397 1577 1397 1642 1368.5 c 128,-1,38
 1707 1340 1707 1340 1754 1290 c 0,39,40
 1855 1183 1855 1183 1855 981 c 0,41,42
 1855 779 1855 779 1723 664 c 0,43,44
 1592 551 1592 551 1360 551 c 2,45,-1
 1322 551 l 2,46,47
 1207 551 1207 551 1097 561 c 1,48,-1
 1097 315 l 2,49,50
 1097 170 1097 170 1125 56 c 0,51,52
 1131 31 1131 31 1134 16 c 1,53,54
 1070 -18 1070 -18 983 -18 c 0,55,56
 862 -18 862 -18 862 82 c 2,57,-1
 862 1288 l 1,14,15
EndSplineSet
EndChar

StartChar: Q.alt
Encoding: 65555 -1 240
Width: 1604
Flags: W
LayerCount: 2
Fore
SplineSet
981 -14 m 1,0,1
 1126 -217 1126 -217 1253 -217 c 0,2,3
 1364 -217 1364 -217 1473 -143 c 0,4,5
 1495 -128 1495 -128 1501 -125 c 1,6,-1
 1550 -205 l 1,7,8
 1551 -205 1551 -205 1551 -206 c 0,9,10
 1551 -209 1551 -209 1521 -234 c 0,11,12
 1486 -262 1486 -262 1456 -281.5 c 128,-1,13
 1426 -301 1426 -301 1389 -318 c 0,14,15
 1303 -356 1303 -356 1219.5 -356 c 128,-1,16
 1136 -356 1136 -356 1068.5 -336.5 c 128,-1,17
 1001 -317 1001 -317 942 -277 c 0,18,19
 835 -204 835 -204 727 -35 c 1,20,21
 469 -7 469 -7 300 194 c 0,22,23
 129 399 129 399 129 702 c 0,24,25
 129 1029 129 1029 324 1240 c 0,26,27
 518 1450 518 1450 803 1450 c 256,28,29
 1088 1450 1088 1450 1280 1240 c 0,30,31
 1475 1028 1475 1028 1475 702 c 0,32,33
 1475 433 1475 433 1336 236 c 0,34,35
 1201 45 1201 45 981 -14 c 1,0,1
389 696 m 0,36,37
 389 567 389 567 414 453.5 c 128,-1,38
 439 340 439 340 490 258 c 0,39,40
 598 84 598 84 803 84 c 0,41,42
 1006 84 1006 84 1114 258 c 0,43,44
 1215 422 1215 422 1215 702 c 0,45,46
 1215 974 1215 974 1115 1141 c 0,47,48
 1005 1325 1005 1325 803 1325 c 256,49,50
 601 1325 601 1325 490 1137 c 0,51,52
 389 967 389 967 389 696 c 0,36,37
EndSplineSet
EndChar

StartChar: R.alt
Encoding: 65556 -1 241
Width: 2104
Flags: W
LayerCount: 2
Fore
SplineSet
862 1288 m 1,0,1
 256 1288 256 1288 256 1012 c 0,2,3
 256 861 256 861 437 760 c 0,4,5
 486 732 486 732 534 709 c 1,6,-1
 477 580 l 2,7,8
 456 535 456 535 413 535 c 0,9,10
 389 535 389 535 339.5 556 c 128,-1,11
 290 577 290 577 239 619 c 128,-1,12
 188 661 188 661 151 716 c 0,13,14
 73 832 73 832 73 981 c 0,15,16
 73 1213 73 1213 302 1320 c 0,17,18
 529 1426 529 1426 998 1431 c 0,19,20
 1091 1432 1091 1432 1181 1432 c 128,-1,21
 1271 1432 1271 1432 1357.5 1427 c 128,-1,22
 1444 1422 1444 1422 1519.5 1406.5 c 128,-1,23
 1595 1391 1595 1391 1656.5 1361 c 128,-1,24
 1718 1331 1718 1331 1762 1281 c 0,25,26
 1855 1177 1855 1177 1855 981 c 0,27,28
 1855 834 1855 834 1786 734 c 128,-1,29
 1717 634 1717 634 1587 588 c 1,30,-1
 1882 154 l 1,31,-1
 2038 272 l 1,32,-1
 2091 207 l 1,33,34
 1904 -23 1904 -23 1788 -23 c 0,35,36
 1719 -23 1719 -23 1675 47 c 2,37,-1
 1360 551 l 1,38,-1
 1322 551 l 2,39,40
 1207 551 1207 551 1097 561 c 1,41,-1
 1097 315 l 2,42,43
 1097 170 1097 170 1125 56 c 0,44,45
 1131 31 1131 31 1134 16 c 1,46,47
 1070 -18 1070 -18 983 -18 c 0,48,49
 862 -18 862 -18 862 82 c 2,50,-1
 862 1288 l 1,0,1
1369.5 1283 m 128,-1,52
 1305 1294 1305 1294 1230 1294 c 128,-1,53
 1155 1294 1155 1294 1097 1288 c 1,54,-1
 1097 702 l 1,55,56
 1160 680 1160 680 1271.5 680 c 128,-1,57
 1383 680 1383 680 1448 705.5 c 128,-1,58
 1513 731 1513 731 1550 773 c 0,59,60
 1616 846 1616 846 1616 981 c 0,61,62
 1616 1080 1616 1080 1596.5 1126.5 c 128,-1,63
 1577 1173 1577 1173 1550 1202 c 128,-1,64
 1523 1231 1523 1231 1478.5 1251.5 c 128,-1,51
 1434 1272 1434 1272 1369.5 1283 c 128,-1,52
EndSplineSet
EndChar

StartChar: T.alt
Encoding: 65557 -1 242
Width: 1795
Flags: W
LayerCount: 2
Fore
SplineSet
1513 1411 m 2,0,1
 1685 1411 1685 1411 1685 1505 c 0,2,3
 1685 1540 1685 1540 1656 1568.5 c 128,-1,4
 1627 1597 1627 1597 1554 1628 c 1,5,-1
 1616 1761 l 2,6,7
 1637 1804 1637 1804 1669 1804 c 0,8,9
 1692 1804 1692 1804 1730 1780.5 c 128,-1,10
 1768 1757 1768 1757 1793 1731.5 c 128,-1,11
 1818 1706 1818 1706 1834 1678 c 0,12,13
 1863 1626 1863 1626 1863 1556.5 c 128,-1,14
 1863 1487 1863 1487 1830.5 1433 c 128,-1,15
 1798 1379 1798 1379 1740 1346 c 0,16,17
 1631 1286 1631 1286 1419 1286 c 0,18,19
 1300 1286 1300 1286 1214.5 1286 c 128,-1,20
 1129 1286 1129 1286 1101 1284 c 1,21,-1
 1101 315 l 2,22,23
 1101 168 1101 168 1115 100 c 2,24,-1
 1132 16 l 1,25,26
 1068 -18 1068 -18 987 -18 c 0,27,28
 866 -18 866 -18 866 82 c 2,29,-1
 866 1284 l 1,30,31
 853 1284 853 1284 838 1285 c 2,32,-1
 768 1286 l 1,33,34
 461 1286 461 1286 341 1200 c 0,35,36
 250 1134 250 1134 250 1022 c 0,37,38
 250 863 250 863 439 759 c 1,39,-1
 538 707 l 1,40,-1
 481 578 l 2,41,42
 460 532 460 532 417 532 c 0,43,44
 396 532 396 532 345 553 c 128,-1,45
 294 574 294 574 243 616 c 128,-1,46
 192 658 192 658 155 713 c 0,47,48
 77 829 77 829 77 959.5 c 128,-1,49
 77 1090 77 1090 111.5 1165.5 c 128,-1,50
 146 1241 146 1241 207 1289 c 128,-1,51
 268 1337 268 1337 351 1362 c 128,-1,52
 434 1387 434 1387 530 1398 c 0,53,54
 645 1411 645 1411 946 1411 c 2,55,-1
 1513 1411 l 2,0,1
EndSplineSet
EndChar

StartChar: U.alt
Encoding: 65558 -1 243
Width: 2236
Flags: W
LayerCount: 2
Fore
SplineSet
839 1287 m 2,0,-1
 769 1288 l 1,1,2
 462 1288 462 1288 342 1202 c 0,3,4
 251 1136 251 1136 251 1024 c 0,5,6
 251 865 251 865 440 761 c 1,7,-1
 539 709 l 1,8,-1
 482 580 l 2,9,10
 461 535 461 535 418 535 c 0,11,12
 394 535 394 535 344.5 556 c 128,-1,13
 295 577 295 577 244 619 c 128,-1,14
 193 661 193 661 156 716 c 0,15,16
 78 832 78 832 78 981 c 0,17,18
 78 1244 78 1244 315 1342 c 0,19,20
 490 1413 490 1413 838 1413 c 2,21,-1
 926 1413 l 2,22,23
 1057 1413 1057 1413 1074 1406 c 0,24,25
 1100 1395 1100 1395 1100 1360 c 2,26,-1
 1100 543 l 2,27,28
 1100 363 1100 363 1182 237 c 0,29,30
 1281 86 1281 86 1479 86 c 0,31,32
 1743 86 1743 86 1828 334 c 0,33,34
 1860 429 1860 429 1860 547 c 2,35,-1
 1860 1102 l 2,36,37
 1860 1256 1860 1256 1847 1322.5 c 128,-1,38
 1834 1389 1834 1389 1832 1403 c 1,39,40
 1873 1432 1873 1432 1946 1432 c 0,41,42
 2049 1432 2049 1432 2049 1333 c 2,43,-1
 2049 545 l 2,44,45
 2049 270 2049 270 1879 110 c 0,46,47
 1721 -39 1721 -39 1479 -39 c 0,48,49
 1032 -39 1032 -39 908 294 c 0,50,51
 867 403 867 403 867 547 c 2,52,-1
 867 1286 l 1,53,54
 854 1286 854 1286 839 1287 c 2,0,-1
EndSplineSet
EndChar

StartChar: V.alt
Encoding: 65559 -1 244
Width: 2248
Flags: W
LayerCount: 2
Fore
SplineSet
841 1287 m 2,0,-1
 771 1288 l 1,1,2
 464 1288 464 1288 344 1202 c 0,3,4
 253 1136 253 1136 253 1024 c 0,5,6
 253 865 253 865 442 761 c 1,7,-1
 541 709 l 1,8,-1
 484 580 l 2,9,10
 463 535 463 535 420 535 c 0,11,12
 396 535 396 535 345.5 556.5 c 128,-1,13
 295 578 295 578 243.5 620.5 c 128,-1,14
 192 663 192 663 156 720 c 0,15,16
 80 836 80 836 80 991 c 0,17,18
 80 1246 80 1246 312 1342 c 0,19,20
 485 1413 485 1413 822 1413 c 0,21,22
 868 1413 868 1413 914 1413 c 128,-1,23
 960 1413 960 1413 994 1411.5 c 128,-1,24
 1028 1410 1028 1410 1043 1406.5 c 128,-1,25
 1058 1403 1058 1403 1068 1396 c 0,26,27
 1085 1385 1085 1385 1100 1350 c 2,28,-1
 1588 213 l 1,29,-1
 1598 213 l 1,30,-1
 1708 457 l 2,31,32
 1915 914 1915 914 1915 1231 c 0,33,34
 1915 1340 1915 1340 1890 1402.5 c 128,-1,35
 1865 1465 1865 1465 1842 1502 c 2,36,-1
 1791 1581 l 1,37,-1
 1924 1696 l 2,38,39
 1963 1729 1963 1729 1991.5 1729 c 128,-1,40
 2020 1729 2020 1729 2047 1704 c 128,-1,41
 2074 1679 2074 1679 2094 1638 c 0,42,43
 2137 1548 2137 1548 2137 1445.5 c 128,-1,44
 2137 1343 2137 1343 2117.5 1235.5 c 128,-1,45
 2098 1128 2098 1128 2063.5 1008 c 128,-1,46
 2029 888 2029 888 1981.5 759.5 c 128,-1,47
 1934 631 1934 631 1877 500 c 0,48,49
 1765 241 1765 241 1625 -18 c 1,50,-1
 1522 -18 l 2,51,52
 1454 -18 1454 -18 1425 24 c 0,53,54
 1414 39 1414 39 1403 63 c 2,55,-1
 869 1286 l 1,56,57
 856 1286 856 1286 841 1287 c 2,0,-1
EndSplineSet
EndChar

StartChar: W.alt
Encoding: 65560 -1 245
Width: 2958
Flags: W
LayerCount: 2
Fore
SplineSet
1659 1368 m 1,0,1
 1721 1419 1721 1419 1817 1419 c 0,2,3
 1875 1419 1875 1419 1896 1406 c 0,4,5
 1933 1383 1933 1383 1952 1327 c 2,6,-1
 2344 231 l 1,7,-1
 2352 231 l 1,8,-1
 2456 528 l 1,9,10
 2610 984 2610 984 2610 1233 c 0,11,12
 2610 1388 2610 1388 2536 1502 c 1,13,-1
 2485 1581 l 1,14,-1
 2618 1696 l 2,15,16
 2659 1731 2659 1731 2685 1731 c 0,17,18
 2686 1731 2686 1731 2687 1731 c 0,19,20
 2713 1729 2713 1729 2740 1704 c 128,-1,21
 2767 1679 2767 1679 2787 1638 c 0,22,23
 2831 1548 2831 1548 2831 1440 c 128,-1,24
 2831 1332 2831 1332 2801.5 1179.5 c 128,-1,25
 2772 1027 2772 1027 2716 840 c 0,26,27
 2597 448 2597 448 2387 0 c 1,28,-1
 2266 0 l 2,29,30
 2192 0 2192 0 2166 41 c 0,31,32
 2155 57 2155 57 2147 82 c 2,33,-1
 1877 838 l 1,34,35
 1852 727 1852 727 1813 617 c 1,36,-1
 1746 430 l 1,37,38
 1717 353 1717 353 1686 278 c 1,39,-1
 1622 131 l 1,40,41
 1590 60 1590 60 1559 0 c 1,42,-1
 1432 0 l 2,43,44
 1361 0 1361 0 1333 41 c 0,45,46
 1322 57 1322 57 1313 82 c 2,47,-1
 869 1286 l 1,48,49
 856 1286 856 1286 841 1287 c 2,50,-1
 771 1288 l 1,51,52
 464 1288 464 1288 344 1202 c 0,53,54
 253 1136 253 1136 253 1024 c 0,55,56
 253 865 253 865 442 761 c 1,57,-1
 541 709 l 1,58,-1
 484 580 l 2,59,60
 463 535 463 535 420 535 c 0,61,62
 396 535 396 535 346.5 555.5 c 128,-1,63
 297 576 297 576 246 618 c 128,-1,64
 195 660 195 660 158 715 c 0,65,66
 80 831 80 831 80 981 c 0,67,68
 80 1244 80 1244 312 1340 c 0,69,70
 485 1413 485 1413 822 1413 c 0,71,72
 868 1413 868 1413 914 1413 c 128,-1,73
 960 1413 960 1413 1004.5 1411 c 128,-1,74
 1049 1409 1049 1409 1068.5 1396.5 c 128,-1,75
 1088 1384 1088 1384 1100 1350 c 2,76,-1
 1512 231 l 1,77,-1
 1524 231 l 1,78,79
 1610 430 1610 430 1684 706 c 1,80,-1
 1723 857 l 2,81,82
 1741 929 1741 929 1754 990 c 2,83,-1
 1778 1098 l 1,84,85
 1738 1238 1738 1238 1678 1338 c 2,86,-1
 1659 1368 l 1,0,1
EndSplineSet
EndChar

StartChar: X.alt
Encoding: 65561 -1 246
Width: 2191
Flags: W
LayerCount: 2
Fore
SplineSet
1860 1434 m 0,0,1
 1932 1434 1932 1434 1932 1346 c 0,2,3
 1932 1226 1932 1226 1730 981 c 0,4,5
 1641 874 1641 874 1528 760 c 1,6,-1
 1946 160 l 1,7,-1
 2095 272 l 1,8,-1
 2149 207 l 1,9,10
 2054 65 2054 65 1929 0 c 0,11,12
 1886 -23 1886 -23 1853 -23 c 0,13,14
 1782 -23 1782 -23 1733 47 c 2,15,-1
 1368 567 l 1,16,-1
 1266 381 l 1,17,18
 1044 -38 1044 -38 836 -216 c 0,19,20
 631 -391 631 -391 392 -391 c 0,21,22
 299 -391 299 -391 212.5 -366 c 128,-1,23
 126 -341 126 -341 90 -323 c 0,24,25
 6 -282 6 -282 6 -229 c 0,26,27
 6 -204 6 -204 31 -170 c 2,28,-1
 123 -43 l 1,29,30
 319 -180 319 -180 480 -180 c 0,31,32
 696 -180 696 -180 898 89 c 0,33,34
 959 171 959 171 1021 267 c 1,35,36
 1240 615 1240 615 1286 684 c 1,37,-1
 869 1286 l 1,38,39
 856 1286 856 1286 841 1287 c 2,40,-1
 770 1288 l 1,41,42
 465 1288 465 1288 344 1202 c 0,43,44
 252 1136 252 1136 252 1024 c 0,45,46
 252 864 252 864 442 761 c 1,47,-1
 541 709 l 1,48,-1
 484 580 l 1,49,50
 462 535 462 535 420 535 c 0,51,52
 396 535 396 535 346.5 555.5 c 128,-1,53
 297 576 297 576 246 618 c 128,-1,54
 195 660 195 660 158 715 c 0,55,56
 80 831 80 831 80 981 c 0,57,58
 80 1245 80 1245 316 1342 c 0,59,60
 491 1413 491 1413 836 1413 c 2,61,-1
 924 1413 l 2,62,63
 1024 1413 1024 1413 1044.5 1407 c 128,-1,64
 1065 1401 1065 1401 1077 1394 c 0,65,66
 1095 1382 1095 1382 1116 1352 c 2,67,-1
 1456 860 l 1,68,69
 1468 879 1468 879 1489 906 c 0,70,71
 1587 1037 1587 1037 1616 1091 c 0,72,73
 1669 1192 1669 1192 1669 1253 c 0,74,75
 1669 1300 1669 1300 1661.5 1317 c 128,-1,76
 1654 1334 1654 1334 1649 1348 c 1,77,-1
 1809 1421 l 1,78,79
 1835 1434 1835 1434 1860 1434 c 0,0,1
EndSplineSet
EndChar

StartChar: Y.alt
Encoding: 65562 -1 247
Width: 2029
Flags: W
LayerCount: 2
Fore
SplineSet
839 1287 m 2,0,-1
 769 1288 l 1,1,2
 462 1288 462 1288 342 1202 c 0,3,4
 251 1136 251 1136 251 1024 c 0,5,6
 251 865 251 865 440 761 c 1,7,-1
 539 709 l 1,8,-1
 482 580 l 2,9,10
 461 535 461 535 418 535 c 0,11,12
 394 535 394 535 343.5 556.5 c 128,-1,13
 293 578 293 578 241.5 620.5 c 128,-1,14
 190 663 190 663 154 720 c 0,15,16
 78 836 78 836 78 991 c 1,17,18
 84 1250 84 1250 316 1344 c 0,19,20
 487 1413 487 1413 828 1413 c 0,21,22
 969 1413 969 1413 1012 1404 c 0,23,24
 1084 1389 1084 1389 1107 1348 c 2,25,-1
 1477 672 l 1,26,-1
 1481 672 l 1,27,28
 1676 1001 1676 1001 1680 1130 c 0,29,30
 1680 1150 1680 1150 1680 1167 c 0,31,32
 1680 1269 1680 1269 1643 1354 c 1,33,-1
 1801 1421 l 1,34,35
 1823 1432 1823 1432 1848 1432 c 0,36,37
 1924 1432 1924 1432 1924 1317 c 0,38,39
 1924 1136 1924 1136 1686 758 c 1,40,-1
 1539 532 l 1,41,-1
 1539 315 l 2,42,43
 1539 163 1539 163 1552 97 c 2,44,-1
 1569 16 l 1,45,46
 1511 -18 1511 -18 1424 -18 c 0,47,48
 1303 -18 1303 -18 1303 82 c 2,49,-1
 1303 500 l 1,50,-1
 867 1286 l 1,51,52
 854 1286 854 1286 839 1287 c 2,0,-1
EndSplineSet
EndChar

StartChar: d.alt
Encoding: 65563 -1 248
Width: 1381
Flags: W
LayerCount: 2
Fore
SplineSet
1596 1464 m 0,0,1
 1596 1647 1596 1647 1367 1743 c 1,2,-1
 1424 1872 l 2,3,4
 1444 1917 1444 1917 1486 1917 c 256,5,6
 1512 1917 1512 1917 1549 1901 c 0,7,8
 1793 1796 1793 1796 1793 1550 c 0,9,10
 1793 1293 1793 1293 1596 1170 c 0,11,12
 1430 1065 1430 1065 1140 1065 c 1,13,-1
 1140 100 l 1,14,-1
 1314 100 l 1,15,-1
 1314 25 l 1,16,17
 1233 -18 1233 -18 1052 -18 c 0,18,19
 947 -18 947 -18 919 28 c 0,20,21
 908 47 908 47 908 78 c 2,22,-1
 908 90 l 2,23,24
 908 91 908 91 876 73 c 128,-1,25
 844 55 844 55 795 32 c 0,26,27
 665 -29 665 -29 569 -29 c 128,-1,28
 473 -29 473 -29 388 19 c 128,-1,29
 303 67 303 67 243 144 c 0,30,31
 118 304 118 304 118 512 c 0,32,33
 118 734 118 734 233 886 c 0,34,35
 362 1055 362 1055 580 1055 c 0,36,37
 731 1055 731 1055 894 958 c 0,38,39
 907 951 907 951 908 950 c 1,40,-1
 908 1087 l 1,41,42
 737 1130 737 1130 634 1285 c 0,43,44
 537 1433 537 1433 537 1624 c 0,45,46
 537 1787 537 1787 622 1881 c 0,47,48
 701 1970 701 1970 834 1970 c 0,49,50
 1060 1970 1060 1970 1120 1738 c 0,51,52
 1140 1663 1140 1663 1140 1569 c 2,53,-1
 1140 1178 l 1,54,55
 1596 1178 1596 1178 1596 1464 c 0,0,1
514 132 m 0,56,57
 563 102 563 102 611 102 c 128,-1,58
 659 102 659 102 697.5 110.5 c 128,-1,59
 736 119 736 119 775 133 c 0,60,61
 861 164 861 164 908 199 c 1,62,-1
 908 836 l 1,63,64
 873 851 873 851 835 869.5 c 128,-1,65
 797 888 797 888 758 904 c 0,66,67
 668 940 668 940 607 940 c 0,68,69
 483 940 483 940 424 834 c 128,-1,70
 365 728 365 728 365 514 c 0,71,72
 365 223 365 223 514 132 c 0,56,57
910 1223 m 1,73,-1
 910 1528 l 2,74,75
 910 1685 910 1685 895 1747 c 128,-1,76
 880 1809 880 1809 856.5 1840.5 c 128,-1,77
 833 1872 833 1872 798.5 1872 c 128,-1,78
 764 1872 764 1872 745 1855 c 128,-1,79
 726 1838 726 1838 714 1810 c 0,80,81
 691 1758 691 1758 691 1697 c 128,-1,82
 691 1636 691 1636 697 1592.5 c 128,-1,83
 703 1549 703 1549 713 1508 c 0,84,85
 762 1307 762 1307 910 1223 c 1,73,-1
EndSplineSet
EndChar

